<?xml version="1.0" encoding="UTF-8" standalone="no"?>
<!-- Created with Inkscape (http://www.inkscape.org/) -->

<svg
   xmlns:dc="http://purl.org/dc/elements/1.1/"
   xmlns:cc="http://creativecommons.org/ns#"
   xmlns:rdf="http://www.w3.org/1999/02/22-rdf-syntax-ns#"
   xmlns:svg="http://www.w3.org/2000/svg"
   xmlns="http://www.w3.org/2000/svg"
   xmlns:sodipodi="http://sodipodi.sourceforge.net/DTD/sodipodi-0.dtd"
   xmlns:inkscape="http://www.inkscape.org/namespaces/inkscape"
   width="512"
   height="512"
   viewBox="0 0 135.46666 135.46667"
   version="1.1"
   id="svg1434"
   inkscape:version="0.92.4 (5da689c313, 2019-01-14)"
   sodipodi:docname="iconn-logo.svg"
   inkscape:export-filename="C:\Users\h-moriyama\Desktop\aaa.png"
   inkscape:export-xdpi="96"
   inkscape:export-ydpi="96">
  <defs
     id="defs1428" />
  <sodipodi:namedview
     id="base"
     pagecolor="#ffffff"
     bordercolor="#666666"
     borderopacity="1.0"
     inkscape:pageopacity="0.0"
     inkscape:pageshadow="2"
     inkscape:zoom="0.70710678"
     inkscape:cx="306.07187"
     inkscape:cy="312.93367"
     inkscape:document-units="px"
     inkscape:current-layer="layer1"
     showgrid="true"
     showguides="false"
     inkscape:lockguides="false"
     units="px"
     inkscape:window-width="1920"
     inkscape:window-height="1027"
     inkscape:window-x="-8"
     inkscape:window-y="1072"
     inkscape:window-maximized="1">
    <inkscape:grid
       type="xygrid"
       id="grid1979" />
  </sodipodi:namedview>
  <metadata
     id="metadata1431">
    <rdf:RDF>
      <cc:Work
         rdf:about="">
        <dc:format>image/svg+xml</dc:format>
        <dc:type
           rdf:resource="http://purl.org/dc/dcmitype/StillImage" />
        <dc:title />
      </cc:Work>
    </rdf:RDF>
  </metadata>
  <g
     inkscape:label="レイヤー 1"
     inkscape:groupmode="layer"
     id="layer1"
     transform="translate(0,-161.53331)">
    <flowRoot
       xml:space="preserve"
       id="flowRoot925"
       style="font-style:normal;font-variant:normal;font-weight:bold;font-stretch:condensed;font-size:85.33333588px;line-height:1.25;font-family:Arial;-inkscape-font-specification:'Arial, Bold Condensed';font-variant-ligatures:normal;font-variant-caps:normal;font-variant-numeric:normal;font-feature-settings:normal;text-align:start;letter-spacing:0px;word-spacing:0px;writing-mode:lr-tb;text-anchor:start;fill:#ffffff;fill-opacity:1;stroke:none"
       transform="matrix(0.26458333,0,0,0.26458333,0,161.53331)"><flowRegion
         id="flowRegion927"
         style="font-style:normal;font-variant:normal;font-weight:bold;font-stretch:condensed;font-size:85.33333588px;font-family:Arial;-inkscape-font-specification:'Arial, Bold Condensed';font-variant-ligatures:normal;font-variant-caps:normal;font-variant-numeric:normal;font-feature-settings:normal;text-align:start;writing-mode:lr-tb;text-anchor:start;fill:#ffffff"><rect
           id="rect929"
           width="480"
           height="280"
           x="680"
           y="112"
           style="font-style:normal;font-variant:normal;font-weight:bold;font-stretch:condensed;font-size:85.33333588px;font-family:Arial;-inkscape-font-specification:'Arial, Bold Condensed';font-variant-ligatures:normal;font-variant-caps:normal;font-variant-numeric:normal;font-feature-settings:normal;text-align:start;writing-mode:lr-tb;text-anchor:start;fill:#ffffff" /></flowRegion><flowPara
         id="flowPara931"
         style="font-style:normal;font-variant:normal;font-weight:bold;font-stretch:normal;font-size:192px;font-family:Arial;-inkscape-font-specification:'Arial, Bold';font-variant-ligatures:normal;font-variant-caps:normal;font-variant-numeric:normal;font-feature-settings:normal;text-align:start;writing-mode:lr-tb;text-anchor:start;fill:#ffffff">iconn system</flowPara></flowRoot>    <path
       style="fill:#c0392b;fill-opacity:1;stroke-width:2.05170321"
       d="m 20.108328,214.4499 a 9.5249996,9.5249996 0 0 0 -0.67386,0.0248 9.5249996,9.5249996 0 0 0 -0.94671,0.11576 9.5249996,9.5249996 0 0 0 -0.92604,0.2067 9.5249996,9.5249996 0 0 0 -0.90537,0.3018 9.5249996,9.5249996 0 0 0 -0.86817,0.3886 9.5249996,9.5249996 0 0 0 -0.82682,0.47129 9.5249996,9.5249996 0 0 0 -0.77308,0.55397 9.5249996,9.5249996 0 0 0 -0.7152,0.62839 9.5249996,9.5249996 0 0 0 -0.64906,0.69866 9.5249996,9.5249996 0 0 0 -0.57877,0.75654 9.5249996,9.5249996 0 0 0 -0.4961,0.81029 9.5249996,9.5249996 0 0 0 -0.41341,0.8599 9.5249996,9.5249996 0 0 0 -0.32659,0.89297 9.5249996,9.5249996 0 0 0 -0.23565,0.9219 9.5249996,9.5249996 0 0 0 -0.14056,0.94258 9.5249996,9.5249996 0 0 0 -0.0496,0.95085 v 61.38333 a 9.5249994,9.5249983 0 0 0 0.0248,0.67386 9.5249994,9.5249983 0 0 0 0.11576,0.94671 9.5249994,9.5249983 0 0 0 0.2067,0.92605 9.5249994,9.5249983 0 0 0 0.30179,0.90537 9.5249994,9.5249983 0 0 0 0.38861,0.86816 9.5249994,9.5249983 0 0 0 0.47129,0.82682 9.5249994,9.5249983 0 0 0 0.55397,0.77308 9.5249994,9.5249983 0 0 0 0.62838,0.71521 9.5249994,9.5249983 0 0 0 0.69867,0.64905 9.5249994,9.5249983 0 0 0 0.75654,0.57878 9.5249994,9.5249983 0 0 0 0.81029,0.49609 9.5249994,9.5249983 0 0 0 0.85989,0.41341 9.5249994,9.5249983 0 0 0 0.89297,0.3266 9.5249994,9.5249983 0 0 0 0.92191,0.23564 9.5249994,9.5249983 0 0 0 0.94258,0.14056 9.5249994,9.5249983 0 0 0 0.95085,0.0496 h 29.633324 a 9.5249988,9.5249988 0 0 0 0.673859,-0.0248 9.5249988,9.5249988 0 0 0 0.946714,-0.11576 9.5249988,9.5249988 0 0 0 0.926041,-0.2067 9.5249988,9.5249988 0 0 0 0.152964,-0.0496 58.208327,57.149997 0 0 1 -0.0041,-0.004 58.208327,57.149997 0 0 1 -3.840594,-4.29121 58.208327,57.149997 0 0 1 -3.385838,-4.64674 58.208327,57.149997 0 0 1 -2.893881,-4.95267 58.208327,57.149997 0 0 1 -2.377114,-5.21726 58.208327,57.149997 0 0 1 -1.83555,-5.41982 58.208327,57.149997 0 0 1 -1.273305,-5.57279 58.208327,57.149997 0 0 1 -0.7028,-5.672 58.208327,57.149997 0 0 1 -0.14469,-4.04317 58.208327,57.149997 0 0 1 0.28939,-5.70507 58.208327,57.149997 0 0 1 0.87229,-5.6472 58.208327,57.149997 0 0 1 1.438673,-5.53558 58.208327,57.149997 0 0 1 1.992643,-5.36608 58.208327,57.149997 0 0 1 2.534213,-5.14698 58.208327,57.149997 0 0 1 3.038573,-4.86998 58.208327,57.149997 0 0 1 3.522266,-4.54753 58.208327,57.149997 0 0 1 2.83187,-2.98483 9.5249991,9.5249991 0 0 0 -0.868167,-0.22324 9.5249991,9.5249991 0 0 0 -0.942576,-0.14056 9.5249991,9.5249991 0 0 0 -0.950849,-0.0496 z"
       id="path851-9" />
    <path
       style="fill:#ffffff;fill-opacity:1;stroke-width:2.05170321"
       d="m 52.503248,214.86331 a 58.208327,57.149997 0 0 0 -2.83187,2.98483 58.208327,57.149997 0 0 0 -3.522268,4.54753 58.208327,57.149997 0 0 0 -3.038571,4.86998 58.208327,57.149997 0 0 0 -2.534213,5.14698 58.208327,57.149997 0 0 0 -1.992643,5.36608 58.208327,57.149997 0 0 0 -1.438665,5.53558 58.208327,57.149997 0 0 0 -0.8723,5.6472 58.208327,57.149997 0 0 0 -0.28939,5.70507 58.208327,57.149997 0 0 0 0.14469,4.04317 58.208327,57.149997 0 0 0 0.7028,5.672 58.208327,57.149997 0 0 0 1.273307,5.57279 58.208327,57.149997 0 0 0 1.835547,5.41982 58.208327,57.149997 0 0 0 2.377117,5.21726 58.208327,57.149997 0 0 0 2.893878,4.95267 58.208327,57.149997 0 0 0 3.385838,4.64674 58.208327,57.149997 0 0 0 3.840597,4.29121 58.208327,57.149997 0 0 0 0.0041,0.004 9.5249986,9.5249986 0 0 0 0.752406,-0.25219 9.5249986,9.5249986 0 0 0 0.868167,-0.3886 9.5249986,9.5249986 0 0 0 0.826823,-0.47129 9.5249986,9.5249986 0 0 0 0.773078,-0.55397 9.5249986,9.5249986 0 0 0 0.715203,-0.62839 9.5249986,9.5249986 0 0 0 0.649054,-0.69866 9.5249986,9.5249986 0 0 0 0.578779,-0.75655 9.5249986,9.5249986 0 0 0 0.496091,-0.81028 9.5249986,9.5249986 0 0 0 0.413412,-0.8599 9.5249986,9.5249986 0 0 0 0.326596,-0.89297 9.5249986,9.5249986 0 0 0 0.235643,-0.92191 9.5249986,9.5249986 0 0 0 0.14056,-0.94257 9.5249986,9.5249986 0 0 0 0.04961,-0.95085 V 223.9749 a 9.5249986,9.5249986 0 0 0 -0.02482,-0.67386 9.5249986,9.5249986 0 0 0 -0.115753,-0.94671 9.5249986,9.5249986 0 0 0 -0.206706,-0.92605 9.5249986,9.5249986 0 0 0 -0.301794,-0.90537 9.5249986,9.5249986 0 0 0 -0.388604,-0.86816 9.5249986,9.5249986 0 0 0 -0.471289,-0.82682 9.5249986,9.5249986 0 0 0 -0.553972,-0.77308 9.5249986,9.5249986 0 0 0 -0.628385,-0.71521 9.5249986,9.5249986 0 0 0 -0.698664,-0.64905 9.5249986,9.5249986 0 0 0 -0.756544,-0.57878 9.5249986,9.5249986 0 0 0 -0.810287,-0.49609 9.5249986,9.5249986 0 0 0 -0.859896,-0.41341 9.5249986,9.5249986 0 0 0 -0.892968,-0.3266 9.5249986,9.5249986 0 0 0 -0.05374,-0.0124 z"
       id="path859-8"
       inkscape:connector-curvature="0" />
    <path
       style="fill:#27ae60;fill-opacity:1;stroke-width:2.05170321"
       d="m 52.895984,214.4499 a 58.208327,57.149997 0 0 0 -0.392736,0.41341 9.5249999,9.5249999 0 0 1 0.05374,0.0124 9.5249999,9.5249999 0 0 1 0.892969,0.3266 9.5249999,9.5249999 0 0 1 0.859896,0.41341 9.5249999,9.5249999 0 0 1 0.810286,0.49609 9.5249999,9.5249999 0 0 1 0.756544,0.57878 9.5249999,9.5249999 0 0 1 0.698664,0.64905 9.5249999,9.5249999 0 0 1 0.628386,0.71521 9.5249999,9.5249999 0 0 1 0.553971,0.77308 9.5249999,9.5249999 0 0 1 0.471289,0.82682 9.5249999,9.5249999 0 0 1 0.388604,0.86816 9.5249999,9.5249999 0 0 1 0.301795,0.90537 9.5249999,9.5249999 0 0 1 0.206705,0.92605 9.5249999,9.5249999 0 0 1 0.115753,0.94671 9.5249999,9.5249999 0 0 1 0.02482,0.67386 v 61.38332 a 9.5249996,9.5249996 0 0 1 -0.04961,0.95085 9.5249996,9.5249996 0 0 1 -0.14056,0.94257 9.5249996,9.5249996 0 0 1 -0.235644,0.92192 9.5249996,9.5249996 0 0 1 -0.326596,0.89296 9.5249996,9.5249996 0 0 1 -0.413411,0.8599 9.5249996,9.5249996 0 0 1 -0.496092,0.81028 9.5249996,9.5249996 0 0 1 -0.578778,0.75656 9.5249996,9.5249996 0 0 1 -0.649055,0.69865 9.5249996,9.5249996 0 0 1 -0.715203,0.6284 9.5249996,9.5249996 0 0 1 -0.773078,0.55396 9.5249996,9.5249996 0 0 1 -0.826823,0.4713 9.5249996,9.5249996 0 0 1 -0.868167,0.38859 9.5249996,9.5249996 0 0 1 -0.752406,0.25219 58.208327,57.149997 0 0 0 0.434083,0.39687 h 6.391331 56.091669 a 9.5249986,9.5249986 0 0 0 0.67386,-0.0248 9.5249986,9.5249986 0 0 0 0.94671,-0.11576 9.5249986,9.5249986 0 0 0 0.92604,-0.2067 9.5249986,9.5249986 0 0 0 0.90538,-0.3018 9.5249986,9.5249986 0 0 0 0.86816,-0.3886 9.5249986,9.5249986 0 0 0 0.82682,-0.47129 9.5249986,9.5249986 0 0 0 0.77308,-0.55397 9.5249986,9.5249986 0 0 0 0.7152,-0.62839 9.5249986,9.5249986 0 0 0 0.64906,-0.69866 9.5249986,9.5249986 0 0 0 0.57878,-0.75655 9.5249986,9.5249986 0 0 0 0.49609,-0.81028 9.5249986,9.5249986 0 0 0 0.41341,-0.8599 9.5249986,9.5249986 0 0 0 0.3266,-0.89297 9.5249986,9.5249986 0 0 0 0.23564,-0.92191 9.5249986,9.5249986 0 0 0 0.14056,-0.94257 9.5249986,9.5249986 0 0 0 0.0496,-0.95085 v -24.34167 h -5.10976 a 26.458332,25.399998 0 0 1 -0.30593,1.15756 26.458332,25.399998 0 0 1 -0.90537,2.38538 26.458332,25.399998 0 0 1 -1.14928,2.28617 26.458332,25.399998 0 0 1 -1.38493,2.16214 26.458332,25.399998 0 0 1 -1.59991,2.02158 26.458332,25.399998 0 0 1 -1.80247,1.85622 26.458332,25.399998 0 0 1 -1.98851,1.67845 26.458332,25.399998 0 0 1 -2.14974,1.47588 26.458332,25.399998 0 0 1 -2.29443,1.26503 26.458332,25.399998 0 0 1 -2.41432,1.03353 26.458332,25.399998 0 0 1 -2.50941,0.80202 26.458332,25.399998 0 0 1 -2.579693,0.55811 26.458332,25.399998 0 0 1 -2.62516,0.30592 26.458332,25.399998 0 0 1 -1.87276,0.062 26.458332,25.399998 0 0 1 -2.6417,-0.12815 26.458332,25.399998 0 0 1 -2.612755,-0.37621 26.458332,25.399998 0 0 1 -2.563151,-0.62838 26.458332,25.399998 0 0 1 -2.484604,-0.8723 26.458332,25.399998 0 0 1 -2.38125,-1.10381 26.458332,25.399998 0 0 1 -2.257227,-1.32705 26.458332,25.399998 0 0 1 -2.104263,-1.53789 26.458332,25.399998 0 0 1 -1.934768,-1.72806 26.458332,25.399998 0 0 1 -1.744594,-1.90996 26.458332,25.399998 0 0 1 -1.537891,-2.06293 26.458332,25.399998 0 0 1 -1.318783,-2.20348 26.458332,25.399998 0 0 1 -1.079003,-2.31924 26.458332,25.399998 0 0 1 -0.835091,-2.40605 26.458332,25.399998 0 0 1 -0.578776,-2.48047 26.458332,25.399998 0 0 1 -0.318328,-2.51768 26.458332,25.399998 0 0 1 -0.06614,-1.79834 26.458332,25.399998 0 0 1 0.132292,-2.53421 26.458332,25.399998 0 0 1 0.396875,-2.51354 26.458332,25.399998 0 0 1 0.65319,-2.4598 26.458332,25.399998 0 0 1 0.905372,-2.38538 26.458332,25.399998 0 0 1 1.149284,-2.28617 26.458332,25.399998 0 0 1 1.384927,-2.16214 26.458332,25.399998 0 0 1 1.599904,-2.02158 26.458332,25.399998 0 0 1 1.802474,-1.85622 26.458332,25.399998 0 0 1 1.988508,-1.67845 26.458332,25.399998 0 0 1 2.149739,-1.47588 26.458332,25.399998 0 0 1 2.294432,-1.26504 26.458332,25.399998 0 0 1 2.414326,-1.03353 26.458332,25.399998 0 0 1 2.509406,-0.80201 26.458332,25.399998 0 0 1 2.579685,-0.55811 26.458332,25.399998 0 0 1 2.62516,-0.30592 26.458332,25.399998 0 0 1 1.87276,-0.062 26.458332,25.399998 0 0 1 2.6417,0.12816 26.458332,25.399998 0 0 1 2.61276,0.3762 26.458332,25.399998 0 0 1 2.563153,0.62838 26.458332,25.399998 0 0 1 2.48461,0.8723 26.458332,25.399998 0 0 1 2.38125,1.10381 26.458332,25.399998 0 0 1 2.25722,1.32706 26.458332,25.399998 0 0 1 2.10427,1.53788 26.458332,25.399998 0 0 1 1.93476,1.72806 26.458332,25.399998 0 0 1 1.7446,1.90996 26.458332,25.399998 0 0 1 1.53789,2.06292 26.458332,25.399998 0 0 1 1.31878,2.20349 26.458332,25.399998 0 0 1 1.07901,2.31924 26.458332,25.399998 0 0 1 0.83509,2.40605 26.458332,25.399998 0 0 1 0.10335,0.44648 h 5.09323 V 223.9749 a 9.5249988,9.5249988 0 0 0 -0.0248,-0.67387 9.5249988,9.5249988 0 0 0 -0.11575,-0.94671 9.5249988,9.5249988 0 0 0 -0.20671,-0.92604 9.5249988,9.5249988 0 0 0 -0.30179,-0.90537 9.5249988,9.5249988 0 0 0 -0.38861,-0.86817 9.5249988,9.5249988 0 0 0 -0.47129,-0.82682 9.5249988,9.5249988 0 0 0 -0.55397,-0.77307 9.5249988,9.5249988 0 0 0 -0.62838,-0.71522 9.5249988,9.5249988 0 0 0 -0.69867,-0.64904 9.5249988,9.5249988 0 0 0 -0.75655,-0.57879 9.5249988,9.5249988 0 0 0 -0.81027,-0.49608 9.5249988,9.5249988 0 0 0 -0.85991,-0.41342 9.5249988,9.5249988 0 0 0 -0.89296,-0.3266 9.5249988,9.5249988 0 0 0 -0.92192,-0.23564 9.5249988,9.5249988 0 0 0 -0.94257,-0.14056 9.5249988,9.5249988 0 0 0 -0.95084,-0.0496 H 59.266656 Z"
       id="path873-9" />
    <ellipse
       style="fill:#c0392b;fill-opacity:1;stroke-width:2.07014084"
       id="path5695-2"
       cx="34.924995"
       cy="186.93323"
       rx="24.341665"
       ry="23.283331" />
  </g>
</svg>
