<?xml version="1.0" encoding="UTF-8" standalone="no"?>
<!--?xml version="1.0" encoding="utf-8"?-->

<!-- Generator: Adobe Illustrator 18.0.0, SVG Export Plug-In . SVG Version: 6.00 Build 0)  -->

<svg
   xmlns:dc="http://purl.org/dc/elements/1.1/"
   xmlns:cc="http://creativecommons.org/ns#"
   xmlns:rdf="http://www.w3.org/1999/02/22-rdf-syntax-ns#"
   xmlns:svg="http://www.w3.org/2000/svg"
   xmlns="http://www.w3.org/2000/svg"
   xmlns:sodipodi="http://sodipodi.sourceforge.net/DTD/sodipodi-0.dtd"
   xmlns:inkscape="http://www.inkscape.org/namespaces/inkscape"
   version="1.1"
   id="_x32_"
   x="0px"
   y="0px"
   viewBox="0 0 512 512"
   style="width: 512px; height: 512px; opacity: 1;"
   xml:space="preserve"
   sodipodi:docname="icon_printer.svg"
   inkscape:export-filename="C:\Users\h-moriyama\★Folder\02_共通データ\カスタマイズ (iconn)\アイコンシステムデザイン\アイコン\icon_printer_512px.png"
   inkscape:export-xdpi="96"
   inkscape:export-ydpi="96"
   inkscape:version="0.92.4 (5da689c313, 2019-01-14)"><metadata
   id="metadata21"><rdf:RDF><cc:Work
       rdf:about=""><dc:format>image/svg+xml</dc:format><dc:type
         rdf:resource="http://purl.org/dc/dcmitype/StillImage" /></cc:Work></rdf:RDF></metadata><defs
   id="defs19">
	
	
	
	
	
</defs><sodipodi:namedview
   pagecolor="#ffffff"
   bordercolor="#666666"
   borderopacity="1"
   objecttolerance="10"
   gridtolerance="10"
   guidetolerance="10"
   inkscape:pageopacity="0"
   inkscape:pageshadow="2"
   inkscape:window-width="1920"
   inkscape:window-height="1027"
   id="namedview17"
   showgrid="false"
   inkscape:zoom="0.4609375"
   inkscape:cx="-429.55932"
   inkscape:cy="256"
   inkscape:window-x="-8"
   inkscape:window-y="1072"
   inkscape:window-maximized="1"
   inkscape:current-layer="_x32_" />
<style
   type="text/css"
   id="style2">
	.st0{fill:#4B4B4B;}
</style>
<polygon
   id="polygon4"
   style="fill:#d9d9d9;fill-opacity:1"
   points="152.65,111.254 152.65,111.255 152.41,111.255 152.41,126.976 152.41,127.008 152.41,127.008 152.41,127.245 359.59,127.245 359.59,111.255 153.498,111.255 "
   class="st0" /><polygon
   id="polygon6"
   style="fill:#d9d9d9;fill-opacity:1"
   points="152.41,159.226 152.41,175.608 152.41,175.641 152.41,175.641 152.41,175.88 359.59,175.88 359.59,159.226 "
   class="st0" /><polygon
   id="polygon8"
   style="fill:#d9d9d9;fill-opacity:1"
   points="79.84,463.641 79.959,463.641 79.84,463.88 416.16,463.88 368.56,367.96 127.44,367.96 94.551,434.236 "
   class="st0" /><polygon
   id="polygon10"
   style="fill:#d9d9d9;fill-opacity:1"
   points="399.84,80.121 399.84,191.88 431.84,191.88 431.84,48.12 80.16,48.12 80.16,191.88 112.16,191.88 112.16,80.12 398.9,80.12 "
   class="st0" /><path
   inkscape:connector-curvature="0"
   id="path12"
   style="fill:#d9d9d9;fill-opacity:1"
   d="m 431.84,207.96 v -0.08 H 80.16 v 0.08 H 0 v 192 h 80.24 l 31.76,-64 h 288 l 31.76,64 H 512 v -192 z M 92,288.12 c -11.039,0 -20,-8.961 -20,-20 0,-11.041 8.961,-20 20,-20 11.039,0 20,8.959 20,20 0,11.039 -8.961,20 -20,20 z m 64,0 c -11.039,0 -20,-8.961 -20,-20 0,-11.041 8.961,-20 20,-20 11.039,0 20,8.959 20,20 0,11.039 -8.961,20 -20,20 z"
   class="st0" />
</svg>