<?xml version="1.0" encoding="UTF-8" standalone="no"?>
<!--?xml version="1.0" encoding="utf-8"?-->

<!-- Generator: Adobe Illustrator 18.1.1, SVG Export Plug-In . SVG Version: 6.00 Build 0)  -->

<svg
   xmlns:dc="http://purl.org/dc/elements/1.1/"
   xmlns:cc="http://creativecommons.org/ns#"
   xmlns:rdf="http://www.w3.org/1999/02/22-rdf-syntax-ns#"
   xmlns:svg="http://www.w3.org/2000/svg"
   xmlns="http://www.w3.org/2000/svg"
   xmlns:sodipodi="http://sodipodi.sourceforge.net/DTD/sodipodi-0.dtd"
   xmlns:inkscape="http://www.inkscape.org/namespaces/inkscape"
   version="1.1"
   id="_x32_"
   x="0px"
   y="0px"
   viewBox="0 0 512 512"
   style="width: 512px; height: 512px; opacity: 1;"
   xml:space="preserve"
   sodipodi:docname="icon_file-dwg-a-hover.svg"
   inkscape:version="0.92.4 (5da689c313, 2019-01-14)"
   inkscape:export-filename="C:\Users\h-moriyama\★Folder\02_共通データ\カスタマイズ (iconn)\アイコンシステムデザイン\アイコン\icon_file-dwg-a-hover.png"
   inkscape:export-xdpi="96"
   inkscape:export-ydpi="96"><metadata
   id="metadata23"><rdf:RDF><cc:Work
       rdf:about=""><dc:format>image/svg+xml</dc:format><dc:type
         rdf:resource="http://purl.org/dc/dcmitype/StillImage" /><dc:title /></cc:Work></rdf:RDF></metadata><defs
   id="defs21">
	
	
	
	
	
	
</defs><sodipodi:namedview
   pagecolor="#ffffff"
   bordercolor="#666666"
   borderopacity="1"
   objecttolerance="10"
   gridtolerance="10"
   guidetolerance="10"
   inkscape:pageopacity="0"
   inkscape:pageshadow="2"
   inkscape:window-width="1920"
   inkscape:window-height="1027"
   id="namedview19"
   showgrid="false"
   inkscape:snap-text-baseline="false"
   inkscape:snap-bbox="true"
   inkscape:bbox-paths="false"
   inkscape:snap-intersection-paths="true"
   inkscape:zoom="0.921875"
   inkscape:cx="269.7193"
   inkscape:cy="186.37584"
   inkscape:window-x="-8"
   inkscape:window-y="1072"
   inkscape:window-maximized="1"
   inkscape:current-layer="_x32_"
   inkscape:snap-bbox-midpoints="true"
   inkscape:snap-object-midpoints="true"
   inkscape:snap-midpoints="true"
   inkscape:snap-bbox-edge-midpoints="false" />
<style
   type="text/css"
   id="style2">
	.st0{fill:#4B4B4B;}
</style>


<path
   inkscape:connector-curvature="0"
   id="path4"
   style="fill:#40407a;fill-opacity:1"
   d="M 189.031,111.069 V 6.177 L 68.398,126.817 h 104.884 c 11.336,0 15.749,-4.413 15.749,-15.748 z"
   class="st0" />
<flowRoot
   xml:space="preserve"
   id="flowRoot4555"
   style="font-style:normal;font-weight:normal;font-size:40px;line-height:1.25;font-family:sans-serif;letter-spacing:0px;word-spacing:0px;fill:#c8c4b7;fill-opacity:1;stroke:none"><flowRegion
     id="flowRegion4557"
     style="fill:#c8c4b7"><rect
       id="rect4559"
       width="409.5946"
       height="220.90495"
       x="573.73926"
       y="258.87973"
       style="fill:#c8c4b7" /></flowRegion><flowPara
     id="flowPara4561" /></flowRoot><flowRoot
   xml:space="preserve"
   id="flowRoot4563"
   style="fill:black;fill-opacity:1;stroke:none;font-family:sans-serif;font-style:normal;font-weight:normal;font-size:40px;line-height:1.25;letter-spacing:0px;word-spacing:0px"><flowRegion
     id="flowRegion4565"><rect
       id="rect4567"
       width="309.88055"
       height="182.55341"
       x="99.714043"
       y="200.58537" /></flowRegion><flowPara
     id="flowPara4569" /></flowRoot><flowRoot
   xml:space="preserve"
   id="flowRoot4571"
   style="fill:black;fill-opacity:1;stroke:none;font-family:sans-serif;font-style:normal;font-weight:normal;font-size:40px;line-height:1.25;letter-spacing:0px;word-spacing:0px"><flowRegion
     id="flowRegion4573"><rect
       id="rect4575"
       width="237.77963"
       height="139.59966"
       x="104.31623"
       y="327.91254" /></flowRegion><flowPara
     id="flowPara4577" /></flowRoot><flowRoot
   xml:space="preserve"
   id="flowRoot4587"
   style="fill:black;fill-opacity:1;stroke:none;font-family:sans-serif;font-style:normal;font-weight:normal;font-size:40px;line-height:1.25;letter-spacing:0px;word-spacing:0px"><flowRegion
     id="flowRegion4589"><rect
       id="rect4591"
       width="233.17744"
       height="111.98654"
       x="161.07652"
       y="223.59631" /></flowRegion><flowPara
     id="flowPara4593" /></flowRoot>
<path
   style="fill:#40407a;fill-opacity:1;stroke-width:0.76703107"
   d="M 76.396185,510.48116 C 71.463798,508.96181 65.878906,503.42487 64.144498,498.33467 62.965752,494.87523 62.865706,481.12175 62.865706,322.53648 V 150.49134 l 65.389404,-0.20846 65.3894,-0.20846 4.21867,-2.0041 c 5.07818,-2.41241 9.40773,-6.61564 12.15714,-11.80246 l 2.03293,-3.83516 0.20828,-66.15643 0.20829,-66.15643109 H 321.616 c 122.20832,0 114.23972,-0.36234866 120.58126,5.48307709 1.83735,1.6936094 4.13443,4.690688 5.10462,6.660175 l 1.76398,3.580885 V 255.92471 496.00544 l -1.60168,3.46024 c -1.92951,4.16852 -5.51028,7.88941 -9.80066,10.18418 l -3.17125,1.6962 -177.18418,0.14168 c -155.44207,0.1243 -177.641609,7.7e-4 -180.911905,-1.00658 z M 385.40228,329.99527 c 6.75888,-1.99333 17.2938,-7.01417 21.18659,-10.09731 l 2.97489,-2.35616 V 298.04696 278.55212 H 388.4704 367.37705 v 8.43735 8.43734 h 11.15421 11.15422 l -0.22403,5.93954 -0.22402,5.93955 -4.21867,2.52588 c -5.73166,3.43176 -11.60922,5.09669 -18.02523,5.10601 -7.91968,0.0115 -12.85683,-1.94737 -18.08467,-7.1752 -5.22147,-5.22148 -7.42316,-10.51721 -8.29069,-19.94165 -2.07793,-22.57372 6.59839,-36.11361 23.98404,-37.42849 10.43285,-0.78903 18.8032,3.51222 22.61478,11.62102 l 1.56725,3.33418 5.59582,-1.08782 c 3.07769,-0.59829 7.02325,-1.29301 8.76788,-1.54381 4.99215,-0.71764 5.28224,-1.08731 4.11754,-5.24719 -0.55225,-1.97246 -2.27351,-5.54296 -3.82502,-7.93443 -7.83278,-12.07334 -19.0297,-16.73383 -38.60334,-16.06786 -11.68014,0.39741 -16.80736,1.81278 -24.75911,6.83477 -6.36655,4.02084 -11.14894,9.51298 -14.94018,17.15746 -3.79488,7.65181 -5.28627,14.61949 -5.30339,24.77709 -0.0164,9.74712 1.52208,16.94552 5.4132,25.32737 5.51273,11.87499 16.68805,20.55799 30.24043,23.49623 7.46968,1.61947 22.64514,1.07961 29.91421,-1.06419 z m -230.52212,-1.48645 c 10.38837,-3.68783 16.43899,-9.10292 21.17615,-18.95186 3.77822,-7.85523 4.93397,-14.12461 4.93801,-26.78616 0.005,-17.40478 -3.51807,-28.35341 -11.98032,-37.2252 -9.10153,-9.542 -13.93773,-10.68289 -45.36108,-10.70093 l -23.20269,-0.0133 v 48.00369 48.00369 l 24.73675,-0.2852 c 23.44897,-0.27035 24.99478,-0.3768 29.69318,-2.04471 z m 79.58558,-6.42768 c 1.25842,-4.74601 5.35952,-20.27428 9.11356,-34.50729 3.75402,-14.233 6.99809,-25.88184 7.20902,-25.88632 0.21094,-0.005 4.51588,15.52381 9.56655,34.50729 l 9.18302,34.51542 h 10.47696 10.47697 l 0.922,-3.6434 c 1.91004,-7.54784 22.27105,-91.55489 22.27105,-91.88765 0,-0.35295 -19.92039,-0.50865 -19.96953,-0.15608 -0.0147,0.10547 -3.24359,14.68865 -7.17533,32.40706 -6.76296,30.47741 -7.19398,32.04979 -7.98988,29.14719 -0.4627,-1.68747 -3.80867,-14.97629 -7.43548,-29.5307 -3.62682,-14.55442 -6.93593,-27.75694 -7.35358,-29.33894 l -0.75938,-2.87637 h -11.82985 -11.82985 l -0.74731,2.87637 c -6.59641,25.38953 -15.68725,58.99229 -16.07168,59.40623 -0.27409,0.29512 -3.58375,-13.59773 -7.3548,-30.873 l -6.85644,-31.4096 h -10.29315 -10.29314 l 0.53546,2.10934 c 0.2945,1.16013 5.34498,22.30143 11.22328,46.98065 5.87829,24.67923 10.84138,45.30278 11.02908,45.83011 0.25082,0.70468 3.16695,0.95879 11.00284,0.95879 h 10.66157 z"
   id="path841"
   inkscape:connector-curvature="0" /><path
   style="fill:#40407a;fill-opacity:1;stroke-width:0.76703107"
   d="m 120.39304,282.7708 v -31.06476 h 11.00004 c 7.14354,0 12.23342,0.37119 14.51804,1.05876 10.54078,3.1723 14.61727,11.54052 14.61714,30.006 -8e-5,10.75376 -0.96416,16.35345 -3.78508,21.98482 -3.60766,7.20194 -8.77147,9.07993 -24.96658,9.07993 h -11.38356 z"
   id="path843"
   inkscape:connector-curvature="0" /></svg>