<?xml version="1.0" encoding="UTF-8" standalone="no"?>
<!--?xml version="1.0" encoding="utf-8"?-->

<!-- Generator: Adobe Illustrator 18.0.0, SVG Export Plug-In . SVG Version: 6.00 Build 0)  -->

<svg
   xmlns:dc="http://purl.org/dc/elements/1.1/"
   xmlns:cc="http://creativecommons.org/ns#"
   xmlns:rdf="http://www.w3.org/1999/02/22-rdf-syntax-ns#"
   xmlns:svg="http://www.w3.org/2000/svg"
   xmlns="http://www.w3.org/2000/svg"
   xmlns:xlink="http://www.w3.org/1999/xlink"
   xmlns:sodipodi="http://sodipodi.sourceforge.net/DTD/sodipodi-0.dtd"
   xmlns:inkscape="http://www.inkscape.org/namespaces/inkscape"
   version="1.1"
   id="_x32_"
   x="0px"
   y="0px"
   viewBox="0 0 512 512"
   style="width: 512px; height: 512px; opacity: 1;"
   xml:space="preserve"
   sodipodi:docname="icon_cancelled.svg"
   inkscape:version="0.92.4 (5da689c313, 2019-01-14)"
   inkscape:export-filename="C:\Users\h-moriyama\Desktop\icon_edit.png"
   inkscape:export-xdpi="96"
   inkscape:export-ydpi="96"><metadata
   id="metadata15"><rdf:RDF><cc:Work
       rdf:about=""><dc:format>image/svg+xml</dc:format><dc:type
         rdf:resource="http://purl.org/dc/dcmitype/StillImage" /><dc:title /></cc:Work></rdf:RDF></metadata><defs
   id="defs13">
	
	
</defs><sodipodi:namedview
   pagecolor="#ffffff"
   bordercolor="#666666"
   borderopacity="1"
   objecttolerance="10"
   gridtolerance="10"
   guidetolerance="10"
   inkscape:pageopacity="0"
   inkscape:pageshadow="2"
   inkscape:window-width="1920"
   inkscape:window-height="976"
   id="namedview11"
   showgrid="false"
   inkscape:snap-bbox="true"
   inkscape:snap-bbox-midpoints="true"
   inkscape:zoom="0.95999999"
   inkscape:cx="689.50726"
   inkscape:cy="142.2586"
   inkscape:window-x="-8"
   inkscape:window-y="-8"
   inkscape:window-maximized="1"
   inkscape:current-layer="_x32_" />
<style
   type="text/css"
   id="style2">
	.st0{fill:#4B4B4B;}
</style>
<path
   style="fill:#227093;fill-opacity:1;stroke-width:1.18358588"
   d="M 256 0 A 256 256 0 0 0 0 256 A 256 256 0 0 0 256 512 A 256 256 0 0 0 512 256 A 256 256 0 0 0 256 0 z M 351.88281 116 C 356.49761 116 361.11219 117.75432 364.61328 121.26172 L 390.74805 147.44727 C 397.74968 154.4626 397.74968 165.93974 390.74805 172.95508 L 377.69922 186.0293 C 377.68892 186.0393 377.67211 186.0393 377.66211 186.0293 L 326.10156 134.37109 C 326.09156 134.36069 326.09156 134.34594 326.10156 134.33594 L 339.15234 121.26172 C 342.65343 117.75432 347.26801 116 351.88281 116 z M 309.69922 138.79883 C 309.70952 138.78883 309.72438 138.78883 309.73438 138.79883 L 372.71875 201.90039 C 372.72875 201.91079 372.72875 201.92555 372.71875 201.93555 L 316.29102 258.4707 C 315.73813 259.02463 315.2416 259.52197 315.1875 259.57617 C 315.13336 259.63041 314.63547 260.12771 314.08203 260.68164 L 207.58203 367.38281 C 207.02913 367.93674 206.57812 368.38867 206.57812 368.38867 C 206.57813 368.38867 205.96492 368.57621 205.2168 368.80469 L 116.0332 395.99805 C 116.0135 396.00405 115.994 395.9865 116 395.9668 L 143.55664 305.25781 C 143.55864 305.25381 143.5595 305.25105 143.5625 305.24805 L 251.0625 197.54492 C 251.61539 196.991 252.11192 196.49365 252.16602 196.43945 C 252.22016 196.38521 252.71859 195.88791 253.27148 195.33398 L 309.69922 138.79883 z M 149.89062 330.53711 C 149.87693 330.52341 149.85266 330.53023 149.84766 330.54883 L 136.08984 375.8418 C 136.08324 375.8621 136.10139 375.87905 136.12109 375.87305 L 181.32812 362.08789 C 181.34703 362.08249 181.35354 362.05862 181.33984 362.04492 L 149.89062 330.53711 z "
   id="path825" />
<path
   style="fill:#227093;fill-opacity:1;stroke-width:1.04166663"
   d="m 117.35558,394.46985 c -0.0262,-0.49099 5.94158,-20.68972 13.26179,-44.88608 l 13.30947,-43.99339 83.16944,-83.08995 83.16945,-83.08995 30.64101,31.13564 30.64102,31.13563 -3.37433,3.88027 c -1.85589,2.13415 -38.99934,39.55496 -82.54101,83.15736 l -79.16666,79.27708 -42.80184,13.01941 c -23.54101,7.16067 -43.58007,13.31803 -44.53125,13.68303 -0.95118,0.36501 -1.75087,0.26193 -1.77709,-0.22905 z m 46.17808,-26.45434 18.52624,-5.5905 -15.88975,-15.91459 c -8.73935,-8.75303 -16.20774,-15.57192 -16.59641,-15.1531 -0.78882,0.85003 -13.42048,42.10921 -13.42048,43.83575 0,0.7297 1.48213,0.64764 4.42708,-0.24506 2.43489,-0.73811 12.76389,-3.85773 22.95332,-6.9325 z"
   id="path10"
   inkscape:connector-curvature="0" /><path
   style="fill:#227093;fill-opacity:1;stroke-width:1.04166663"
   d="m 352.02155,159.44559 -25.2616,-25.27739 7.56124,-7.41871 c 4.15868,-4.08029 8.63554,-7.96683 9.94858,-8.63676 3.40416,-1.73684 11.91085,-1.57478 15.44187,0.29418 4.13507,2.18868 32.09592,30.64373 34.15033,34.75393 2.12786,4.25713 2.12593,9.91534 -0.005,14.16595 -1.5348,3.06167 -14.73307,17.39619 -16.01729,17.39619 -0.30621,0 -11.92446,-11.37483 -25.81834,-25.27739 z"
   id="path12"
   inkscape:connector-curvature="0" /><path
   style="fill:#227093;fill-opacity:1;stroke-width:1.04166663"
   d="m 331.49271,161.83356 c -3.3868,-3.42252 -5.92401,-6.45658 -5.63823,-6.74235 0.28577,-0.28578 3.52668,2.51446 7.20201,6.22275 3.67533,3.7083 6.21254,6.74235 5.63823,6.74235 -0.5743,0 -3.8152,-2.80024 -7.20201,-6.22275 z"
   id="path14"
   inkscape:connector-curvature="0" /><path
   style="fill:#227093;fill-opacity:1;stroke-width:1.04166663"
   d="M 235.63242,510.76893 C 142.92393,502.87878 61.795702,445.91862 23.535487,361.85559 13.61512,340.05916 7.1080348,318.24213 3.0842398,293.28641 0.49236802,277.21154 0.53242719,234.70381 3.1551014,218.09345 18.440357,121.28637 86.418588,41.690985 178.7925,12.440457 204.66975,4.2463371 226.8987,0.92996172 255.94492,0.92996172 c 37.29924,0 67.69608,6.14719718 101.02558,20.43055328 30.39944,13.02768 55.23177,29.990571 79.7517,54.478132 37.96667,37.916563 61.62427,83.917123 71.53355,139.092073 2.04446,11.38351 2.33863,16.55917 2.33863,41.14643 0,24.78508 -0.28467,29.71247 -2.39713,41.49283 -9.7877,54.58242 -33.93477,101.30421 -71.98196,139.2768 -38.61203,38.53631 -89.12842,63.96157 -142.70635,71.82514 -16.06294,2.35755 -43.2437,3.34237 -57.87652,2.09701 z m -73.84458,-128.19971 44.67792,-13.61209 83.07291,-83.00005 c 45.69011,-45.65002 83.07292,-83.46501 83.07292,-84.0333 0,-1.35596 -35.60219,-36.99247 -36.95684,-36.99247 -0.57292,0 7.10457,8.15622 17.06107,18.12494 l 18.10274,18.12494 -2.1621,2.96881 c -1.18916,1.63285 -38.40291,39.14137 -82.69723,83.35226 l -80.53514,80.38346 -43.00812,13.10613 c -23.65445,7.20837 -43.27559,13.10613 -43.60251,13.10613 -0.90454,0 -0.16907,-2.65457 12.84276,-46.35416 l 12.09636,-40.625 83.33862,-83.49488 83.33863,-83.49487 8.31689,8.78622 c 4.57429,4.83243 8.57958,8.52353 8.90064,8.20247 0.75439,-0.75437 -16.60404,-18.22811 -18.10782,-18.22811 -0.62639,0 -38.37111,37.57447 -83.87717,83.49882 l -82.73828,83.49883 -10.18437,33.42826 c -16.06684,52.7364 -17.25925,56.86576 -16.4207,56.86576 0.43498,0 20.89595,-6.12544 45.46882,-13.6121 z m -1.67625,-12.97483 c 11.17187,-3.32649 20.76369,-6.44552 21.31513,-6.93117 1.1163,-0.9831 -9.61791,-12.26226 -22.87763,-24.03907 -5.74402,-5.10163 -3.65831,-2.6639 6.71256,7.84552 10.33051,10.46851 14.57447,15.42584 13.54167,15.81786 -5.78247,2.19485 -41.6084,12.67091 -41.6084,12.16694 0,-0.34617 2.83834,-9.94841 6.30741,-21.33832 3.46906,-11.38991 6.081,-20.93532 5.80428,-21.21203 -0.27671,-0.27671 -2.00035,4.3459 -3.83033,10.27246 -10.35397,33.53238 -10.63674,34.81281 -7.50011,33.96102 1.00261,-0.27227 10.96354,-3.21672 22.13542,-6.54321 z M 394.57847,167.53548 c 4.55881,-9.76255 2.41991,-14.04918 -16.53784,-33.14407 -8.42867,-8.48966 -16.59065,-16.10685 -18.13773,-16.92709 -3.61541,-1.91685 -12.62558,-1.91975 -16.24929,-0.005 -1.54707,0.81737 -6.19047,4.91893 -10.31865,9.11458 l -7.50582,7.62845 25.64667,26.36547 25.64666,26.36548 7.75514,-7.61548 c 4.26534,-4.18851 8.63072,-9.49047 9.70086,-11.78214 z"
   id="path16"
   inkscape:connector-curvature="0" /><path
   style="fill:#227093;fill-opacity:1;stroke-width:1.04166663"
   d="M 239.27826,511.17881 C 184.03835,506.26101 137.64663,488.11865 96.14209,455.20273 53.977894,421.76363 22.053995,372.38431 8.55913,319.73094 2.4121933,295.74724 1.2524614,285.41397 1.2981721,255.03548 1.3334904,231.56364 1.6556765,226.16959 3.7143163,214.58432 13.421076,159.95822 37.3173,113.71114 75.690807,75.286031 116.03821,34.884377 167.07952,9.8664727 224.69492,2.2516382 c 12.75607,-1.68592565 49.74394,-1.68592565 62.5,0 C 398.81488,17.004073 486.3357,99.472307 507.37741,209.72298 c 4.60814,24.14497 4.94161,64.23433 0.73216,88.02084 -4.89014,27.63297 -11.77705,48.51729 -24.0453,72.91666 -25.26309,50.24381 -63.93196,88.80528 -114.38908,114.0714 -23.60563,11.82039 -49.9281,20.08154 -76.42967,23.987 -13.24055,1.95122 -43.95528,3.35125 -53.96726,2.45993 z M 163.23659,382.07056 206.46576,368.9562 285.4386,290.12084 c 43.43506,-43.35945 80.88021,-81.08423 83.21144,-83.83287 l 4.23859,-4.99751 -17.02443,-17.13791 c -9.36344,-9.42584 -17.50638,-17.1379 -18.09543,-17.1379 -0.58905,0 6.59063,7.6722 15.95484,17.04933 14.74761,14.76795 16.88015,17.31174 15.93707,19.01042 -0.59883,1.07859 -37.79704,38.6142 -82.66268,83.41245 l -81.57391,81.45136 -43.08412,13.13813 c -23.69627,7.22598 -43.35282,12.86943 -43.68123,12.54102 -0.3284,-0.32841 5.16515,-19.92493 12.20791,-43.54782 l 12.80502,-42.95072 83.48038,-83.61957 83.48037,-83.61957 8.02761,8.61957 c 4.41519,4.74076 8.048,8.13981 8.07292,7.55346 0.0249,-0.58635 -3.70966,-4.79905 -8.29907,-9.36153 l -8.34436,-8.29544 -83.58272,83.5995 -83.58271,83.59951 -13.28125,44.03049 c -7.30469,24.21678 -13.28125,44.63034 -13.28125,45.36348 0,0.7916 0.74037,1.10214 1.82291,0.7646 1.00261,-0.31262 21.27605,-6.46986 45.05209,-13.68276 z m -4.99818,-12.03604 c 11.62921,-3.49533 21.74859,-6.68844 22.4875,-7.09583 1.65127,-0.91039 -7.63728,-11.32323 -18.14638,-20.34281 -5.35839,-4.59892 -4.03127,-2.96886 5.28428,6.49048 10.69289,10.85795 12.15786,12.73991 10.43246,13.402 -6.45829,2.47828 -41.10135,12.47335 -41.10135,11.8584 0,-0.40624 2.0572,-7.49559 4.57155,-15.75411 7.4093,-24.33622 7.99011,-26.43518 7.02525,-25.38822 -1.14285,1.24011 -12.63846,38.86298 -12.63846,41.36321 0,1.00211 0.21176,1.82201 0.47057,1.82201 0.25881,0 9.98537,-2.85981 21.61458,-6.35513 z M 385.9891,178.05091 c 10.33304,-10.65651 12.38493,-16.16035 9.02377,-24.20472 -1.91039,-4.57223 -30.67354,-33.98755 -35.45061,-36.25442 -4.3321,-2.05571 -11.19653,-2.07439 -15.47921,-0.0422 -1.82741,0.86717 -6.67925,4.96873 -10.78188,9.11459 l -7.45932,7.53793 25.20779,25.67744 c 13.86429,14.1226 25.7145,25.72416 26.33383,25.78125 0.61932,0.0571 4.49186,-3.36738 8.60563,-7.60993 z"
   id="path18"
   inkscape:connector-curvature="0" /><path
   style="fill:#227093;fill-opacity:1;stroke-width:1.04166663"
   d="m 352.49297,158.87532 -24.78984,-24.80599 8.22653,-7.85959 c 8.8479,-8.45323 12.30661,-9.95177 19.75485,-8.55911 3.16779,0.5923 6.44321,3.21046 17.32607,13.84928 7.3809,7.2154 15.23246,15.38756 17.44791,18.16036 3.5302,4.4183 4.0281,5.7207 4.0281,10.53661 0,4.01013 -0.60833,6.30724 -2.25105,8.50021 -2.75282,3.67489 -13.61452,14.98422 -14.39115,14.98422 -0.30886,0 -11.71701,-11.16269 -25.35142,-24.80599 z"
   id="path20"
   inkscape:connector-curvature="0" /><path
   style="fill:#227093;fill-opacity:1;stroke-width:1.04166663"
   d="m 352.49297,158.87532 -24.78984,-24.80599 8.26441,-7.89578 c 8.89638,-8.49955 11.87087,-9.83167 19.19149,-8.59486 3.81171,0.64399 6.11435,2.43835 17.82427,13.88982 19.06818,18.64733 21.50329,21.89029 21.50329,28.63707 0,3.27446 -0.67471,6.41873 -1.71225,7.97937 -1.94145,2.92029 -14.07794,15.59636 -14.93246,15.59636 -0.30749,0 -11.7145,-11.16269 -25.34891,-24.80599 z"
   id="path22"
   inkscape:connector-curvature="0" /><path
   style="fill:#227093;fill-opacity:1;stroke-width:1.04166663"
   d="m 352.51499,158.89736 -24.76782,-24.78396 8.16143,-7.94227 c 8.77297,-8.53738 12.24938,-10.06751 19.69826,-8.67009 3.07087,0.5761 6.49995,3.33068 17.32607,13.91801 19.12127,18.69952 21.55366,21.93689 21.55366,28.68653 0,3.27446 -0.67471,6.41873 -1.71225,7.97937 -1.94145,2.92029 -14.07794,15.59636 -14.93246,15.59636 -0.30749,0 -11.70459,-11.15278 -25.32689,-24.78395 z"
   id="path24"
   inkscape:connector-curvature="0" /><use
   id="use26"
   inkscape:spray-origin="#path24"
   xlink:href="#path24"
   x="0"
   y="0"
   width="100%"
   height="100%"
   transform="translate(-198.91261,145.06878)" /><use
   id="use28"
   inkscape:spray-origin="#path24"
   xlink:href="#path24"
   x="0"
   y="0"
   width="100%"
   height="100%"
   transform="translate(-226.07136,142.47488)" /><use
   id="use30"
   inkscape:spray-origin="#path24"
   xlink:href="#path24"
   x="0"
   y="0"
   width="100%"
   height="100%"
   transform="translate(-233.49786,149.93656)" /><use
   id="use32"
   inkscape:spray-origin="#path24"
   xlink:href="#path24"
   x="0"
   y="0"
   width="100%"
   height="100%"
   transform="translate(-201.94711,130.9369)" /><use
   id="use34"
   inkscape:spray-origin="#path24"
   xlink:href="#path24"
   x="0"
   y="0"
   width="100%"
   height="100%"
   transform="translate(-216.42125,131.68999)" /><use
   id="use36"
   inkscape:spray-origin="#path24"
   xlink:href="#path24"
   x="0"
   y="0"
   width="100%"
   height="100%"
   transform="translate(-217.62386,167.50478)" /><use
   id="use38"
   inkscape:spray-origin="#path24"
   xlink:href="#path24"
   x="0"
   y="0"
   width="100%"
   height="100%"
   transform="translate(-210.67095,149.34751)" /><use
   id="use40"
   inkscape:spray-origin="#path24"
   xlink:href="#path24"
   x="0"
   y="0"
   width="100%"
   height="100%"
   transform="translate(-193.28243,145.46216)" /><use
   id="use42"
   inkscape:spray-origin="#path24"
   xlink:href="#path24"
   x="0"
   y="0"
   width="100%"
   height="100%"
   transform="translate(-202.28201,117.47413)" /><use
   id="use44"
   inkscape:spray-origin="#path24"
   xlink:href="#path24"
   x="0"
   y="0"
   width="100%"
   height="100%"
   transform="translate(-167.202,128.27891)" /><use
   id="use46"
   inkscape:spray-origin="#path24"
   xlink:href="#path24"
   x="0"
   y="0"
   width="100%"
   height="100%"
   transform="translate(-182.78221,140.83114)" /><use
   id="use48"
   inkscape:spray-origin="#path24"
   xlink:href="#path24"
   x="0"
   y="0"
   width="100%"
   height="100%"
   transform="translate(-187.93568,140.20295)" /><use
   id="use50"
   inkscape:spray-origin="#path24"
   xlink:href="#path24"
   x="0"
   y="0"
   width="100%"
   height="100%"
   transform="translate(-182.96702,106.68785)" /><use
   id="use52"
   inkscape:spray-origin="#path24"
   xlink:href="#path24"
   x="0"
   y="0"
   width="100%"
   height="100%"
   transform="translate(-185.39619,135.72258)" /><use
   id="use54"
   inkscape:spray-origin="#path24"
   xlink:href="#path24"
   x="0"
   y="0"
   width="100%"
   height="100%"
   transform="translate(-193.7968,129.0789)" /><use
   id="use56"
   inkscape:spray-origin="#path24"
   xlink:href="#path24"
   x="0"
   y="0"
   width="100%"
   height="100%"
   transform="translate(-162.41422,109.85593)" /><use
   id="use58"
   inkscape:spray-origin="#path24"
   xlink:href="#path24"
   x="0"
   y="0"
   width="100%"
   height="100%"
   transform="translate(-149.22008,113.44576)" /><use
   id="use60"
   inkscape:spray-origin="#path24"
   xlink:href="#path24"
   x="0"
   y="0"
   width="100%"
   height="100%"
   transform="translate(-162.47581,111.64547)" /><use
   id="use62"
   inkscape:spray-origin="#path24"
   xlink:href="#path24"
   x="0"
   y="0"
   width="100%"
   height="100%"
   transform="translate(-175.85266,133.39922)" /><use
   id="use64"
   inkscape:spray-origin="#path24"
   xlink:href="#path24"
   x="0"
   y="0"
   width="100%"
   height="100%"
   transform="translate(-165.4512,118.31479)" /><use
   id="use66"
   inkscape:spray-origin="#path24"
   xlink:href="#path24"
   x="0"
   y="0"
   width="100%"
   height="100%"
   transform="translate(-163.28262,107.83449)" /><use
   id="use68"
   inkscape:spray-origin="#path24"
   xlink:href="#path24"
   x="0"
   y="0"
   width="100%"
   height="100%"
   transform="translate(-150.64821,113.23126)" /><use
   id="use70"
   inkscape:spray-origin="#path24"
   xlink:href="#path24"
   x="0"
   y="0"
   width="100%"
   height="100%"
   transform="translate(-155.20602,96.564048)" /><use
   id="use72"
   inkscape:spray-origin="#path24"
   xlink:href="#path24"
   x="0"
   y="0"
   width="100%"
   height="100%"
   transform="translate(-148.19946,131.21225)" /><use
   id="use74"
   inkscape:spray-origin="#path24"
   xlink:href="#path24"
   x="0"
   y="0"
   width="100%"
   height="100%"
   transform="translate(-176.42457,100.9186)" /><use
   id="use76"
   inkscape:spray-origin="#path24"
   xlink:href="#path24"
   x="0"
   y="0"
   width="100%"
   height="100%"
   transform="translate(-156.5734,105.80267)" /><use
   id="use78"
   inkscape:spray-origin="#path24"
   xlink:href="#path24"
   x="0"
   y="0"
   width="100%"
   height="100%"
   transform="translate(-146.68108,81.103848)" /><use
   id="use80"
   inkscape:spray-origin="#path24"
   xlink:href="#path24"
   x="0"
   y="0"
   width="100%"
   height="100%"
   transform="translate(-162.40242,72.90853)" /><use
   id="use82"
   inkscape:spray-origin="#path24"
   xlink:href="#path24"
   x="0"
   y="0"
   width="100%"
   height="100%"
   transform="translate(-142.07223,109.77902)" /><use
   id="use84"
   inkscape:spray-origin="#path24"
   xlink:href="#path24"
   x="0"
   y="0"
   width="100%"
   height="100%"
   transform="translate(-140.05079,94.776098)" /><use
   id="use86"
   inkscape:spray-origin="#path24"
   xlink:href="#path24"
   x="0"
   y="0"
   width="100%"
   height="100%"
   transform="translate(-143.55213,57.280421)" /><use
   id="use88"
   inkscape:spray-origin="#path24"
   xlink:href="#path24"
   x="0"
   y="0"
   width="100%"
   height="100%"
   transform="translate(-137.79488,94.510732)" /><use
   id="use90"
   inkscape:spray-origin="#path24"
   xlink:href="#path24"
   x="0"
   y="0"
   width="100%"
   height="100%"
   transform="translate(-123.69469,43.069763)" /><use
   id="use92"
   inkscape:spray-origin="#path24"
   xlink:href="#path24"
   x="0"
   y="0"
   width="100%"
   height="100%"
   transform="translate(-142.61923,55.230399)" /><use
   id="use94"
   inkscape:spray-origin="#path24"
   xlink:href="#path24"
   x="0"
   y="0"
   width="100%"
   height="100%"
   transform="translate(-127.88993,67.55872)" /><use
   id="use96"
   inkscape:spray-origin="#path24"
   xlink:href="#path24"
   x="0"
   y="0"
   width="100%"
   height="100%"
   transform="translate(-94.644314,66.411943)" /><use
   id="use98"
   inkscape:spray-origin="#path24"
   xlink:href="#path24"
   x="0"
   y="0"
   width="100%"
   height="100%"
   transform="translate(-121.34048,27.568091)" /><use
   id="use100"
   inkscape:spray-origin="#path24"
   xlink:href="#path24"
   x="0"
   y="0"
   width="100%"
   height="100%"
   transform="translate(-94.639615,65.027701)" /><use
   id="use102"
   inkscape:spray-origin="#path24"
   xlink:href="#path24"
   x="0"
   y="0"
   width="100%"
   height="100%"
   transform="translate(-125.25162,45.997072)" /><use
   id="use104"
   inkscape:spray-origin="#path24"
   xlink:href="#path24"
   x="0"
   y="0"
   width="100%"
   height="100%"
   transform="translate(-108.00815,47.025648)" /><use
   id="use106"
   inkscape:spray-origin="#path24"
   xlink:href="#path24"
   x="0"
   y="0"
   width="100%"
   height="100%"
   transform="translate(-81.86065,20.052881)" /><use
   id="use108"
   inkscape:spray-origin="#path24"
   xlink:href="#path24"
   x="0"
   y="0"
   width="100%"
   height="100%"
   transform="translate(-88.35275,54.055653)" /><use
   id="use110"
   inkscape:spray-origin="#path24"
   xlink:href="#path24"
   x="0"
   y="0"
   width="100%"
   height="100%"
   transform="translate(-101.00625,50.819334)" /><use
   id="use112"
   inkscape:spray-origin="#path24"
   xlink:href="#path24"
   x="0"
   y="0"
   width="100%"
   height="100%"
   transform="translate(-107.85511,32.160202)" /><use
   id="use114"
   inkscape:spray-origin="#path24"
   xlink:href="#path24"
   x="0"
   y="0"
   width="100%"
   height="100%"
   transform="translate(-71.372312,32.444453)" /><use
   id="use116"
   inkscape:spray-origin="#path24"
   xlink:href="#path24"
   x="0"
   y="0"
   width="100%"
   height="100%"
   transform="translate(-85.077975,12.464508)" /><use
   id="use118"
   inkscape:spray-origin="#path24"
   xlink:href="#path24"
   x="0"
   y="0"
   width="100%"
   height="100%"
   transform="translate(-77.210812,6.3568702)" /><use
   id="use120"
   inkscape:spray-origin="#path24"
   xlink:href="#path24"
   x="0"
   y="0"
   width="100%"
   height="100%"
   transform="translate(-56.55918,15.61585)" /><use
   id="use122"
   inkscape:spray-origin="#path24"
   xlink:href="#path24"
   x="0"
   y="0"
   width="100%"
   height="100%"
   transform="translate(-79.780579,-8.8876385)" /><use
   id="use124"
   inkscape:spray-origin="#path24"
   xlink:href="#path24"
   x="0"
   y="0"
   width="100%"
   height="100%"
   transform="translate(-83.00536,9.189443)" /><use
   id="use126"
   inkscape:spray-origin="#path24"
   xlink:href="#path24"
   x="0"
   y="0"
   width="100%"
   height="100%"
   transform="translate(-52.556538,-0.77278954)" /><use
   id="use128"
   inkscape:spray-origin="#path24"
   xlink:href="#path24"
   x="0"
   y="0"
   width="100%"
   height="100%"
   transform="translate(-67.839921,26.164644)" /><use
   id="use130"
   inkscape:spray-origin="#path24"
   xlink:href="#path24"
   x="0"
   y="0"
   width="100%"
   height="100%"
   transform="translate(-76.477737,9.3459953)" /><use
   id="use132"
   inkscape:spray-origin="#path24"
   xlink:href="#path24"
   x="0"
   y="0"
   width="100%"
   height="100%"
   transform="translate(-77.469079,-8.5288134)" /><use
   id="use134"
   inkscape:spray-origin="#path24"
   xlink:href="#path24"
   x="0"
   y="0"
   width="100%"
   height="100%"
   transform="translate(-45.465432,8.7994391)" /><use
   id="use136"
   inkscape:spray-origin="#path24"
   xlink:href="#path24"
   x="0"
   y="0"
   width="100%"
   height="100%"
   transform="translate(-72.766519,12.212983)" /><use
   id="use138"
   inkscape:spray-origin="#path24"
   xlink:href="#path24"
   x="0"
   y="0"
   width="100%"
   height="100%"
   transform="translate(-62.245391,-17.949983)" /><use
   id="use140"
   inkscape:spray-origin="#path24"
   xlink:href="#path24"
   x="0"
   y="0"
   width="100%"
   height="100%"
   transform="translate(-45.093972,-11.50914)" /><use
   id="use142"
   inkscape:spray-origin="#path24"
   xlink:href="#path24"
   x="0"
   y="0"
   width="100%"
   height="100%"
   transform="translate(-70.131007,-16.777293)" /><use
   id="use144"
   inkscape:spray-origin="#path24"
   xlink:href="#path24"
   x="0"
   y="0"
   width="100%"
   height="100%"
   transform="translate(-68.416807,0.02083964)" /><use
   id="use146"
   inkscape:spray-origin="#path24"
   xlink:href="#path24"
   x="0"
   y="0"
   width="100%"
   height="100%"
   transform="translate(-39.140981,-11.762545)" /><use
   id="use148"
   inkscape:spray-origin="#path24"
   xlink:href="#path24"
   x="0"
   y="0"
   width="100%"
   height="100%"
   transform="translate(-50.71744,-11.096284)" /><use
   id="use150"
   inkscape:spray-origin="#path24"
   xlink:href="#path24"
   x="0"
   y="0"
   width="100%"
   height="100%"
   transform="translate(-18.593494,-14.536789)" /><use
   id="use152"
   inkscape:spray-origin="#path24"
   xlink:href="#path24"
   x="0"
   y="0"
   width="100%"
   height="100%"
   transform="translate(-59.431857,-29.842706)" /><use
   id="use154"
   inkscape:spray-origin="#path24"
   xlink:href="#path24"
   x="0"
   y="0"
   width="100%"
   height="100%"
   transform="translate(-42.624235,-8.7402989)" /><use
   id="use156"
   inkscape:spray-origin="#path24"
   xlink:href="#path24"
   x="0"
   y="0"
   width="100%"
   height="100%"
   transform="translate(-27.263385,-20.622182)" /><use
   id="use158"
   inkscape:spray-origin="#path24"
   xlink:href="#path24"
   x="0"
   y="0"
   width="100%"
   height="100%"
   transform="translate(-18.05107,8.3305159)" /><use
   id="use160"
   inkscape:spray-origin="#path24"
   xlink:href="#path24"
   x="0"
   y="0"
   width="100%"
   height="100%"
   transform="translate(-41.60337,-34.517849)" /><use
   id="use162"
   inkscape:spray-origin="#path24"
   xlink:href="#path24"
   x="0"
   y="0"
   width="100%"
   height="100%"
   transform="translate(-48.303209,-12.655214)" /><use
   id="use164"
   inkscape:spray-origin="#path24"
   xlink:href="#path24"
   x="0"
   y="0"
   width="100%"
   height="100%"
   transform="translate(-38.153707,1.9940899)" /><use
   id="use166"
   inkscape:spray-origin="#path24"
   xlink:href="#path24"
   x="0"
   y="0"
   width="100%"
   height="100%"
   transform="translate(-16.914349,10.572667)" /><use
   id="use168"
   inkscape:spray-origin="#path24"
   xlink:href="#path24"
   x="0"
   y="0"
   width="100%"
   height="100%"
   transform="translate(-29.839849,12.054843)" /><use
   id="use170"
   inkscape:spray-origin="#path24"
   xlink:href="#path24"
   x="0"
   y="0"
   width="100%"
   height="100%"
   transform="translate(-9.2082959,7.5744027)" /><use
   id="use172"
   inkscape:spray-origin="#path24"
   xlink:href="#path24"
   x="0"
   y="0"
   width="100%"
   height="100%"
   transform="translate(-11.93331,3.3100096)" /><use
   id="use174"
   inkscape:spray-origin="#path24"
   xlink:href="#path24"
   x="0"
   y="0"
   width="100%"
   height="100%"
   transform="translate(15.59191,-20.463066)" /><use
   id="use176"
   inkscape:spray-origin="#path24"
   xlink:href="#path24"
   x="0"
   y="0"
   width="100%"
   height="100%"
   transform="translate(3.9761468,-29.102571)" /><use
   id="use178"
   inkscape:spray-origin="#path24"
   xlink:href="#path24"
   x="0"
   y="0"
   width="100%"
   height="100%"
   transform="translate(19.03276,-33.735773)" /><use
   id="use180"
   inkscape:spray-origin="#path24"
   xlink:href="#path24"
   x="0"
   y="0"
   width="100%"
   height="100%"
   transform="translate(9.9189926,11.596819)" /><use
   id="use182"
   inkscape:spray-origin="#path24"
   xlink:href="#path24"
   x="0"
   y="0"
   width="100%"
   height="100%"
   transform="translate(34.594236,-4.6751475)" /><use
   id="use184"
   inkscape:spray-origin="#path24"
   xlink:href="#path24"
   x="0"
   y="0"
   width="100%"
   height="100%"
   transform="translate(11.039067,2.3352659)" /><use
   id="use186"
   inkscape:spray-origin="#path24"
   xlink:href="#path24"
   x="0"
   y="0"
   width="100%"
   height="100%"
   transform="translate(8.4745656,-5.0462845)" /><use
   id="use188"
   inkscape:spray-origin="#path24"
   xlink:href="#path24"
   x="0"
   y="0"
   width="100%"
   height="100%"
   transform="translate(21.406734,10.364374)" /><use
   id="use190"
   inkscape:spray-origin="#path24"
   xlink:href="#path24"
   x="0"
   y="0"
   width="100%"
   height="100%"
   transform="translate(43.175936,12.047426)" /><use
   id="use192"
   inkscape:spray-origin="#path24"
   xlink:href="#path24"
   x="0"
   y="0"
   width="100%"
   height="100%"
   transform="translate(-0.47416387,35.923908)" /><use
   id="use194"
   inkscape:spray-origin="#path24"
   xlink:href="#path24"
   x="0"
   y="0"
   width="100%"
   height="100%"
   transform="translate(4.2215616,50.334579)" /><use
   id="use196"
   inkscape:spray-origin="#path24"
   xlink:href="#path24"
   x="0"
   y="0"
   width="100%"
   height="100%"
   transform="translate(31.640566,20.488922)" /><use
   id="use198"
   inkscape:spray-origin="#path24"
   xlink:href="#path24"
   x="0"
   y="0"
   width="100%"
   height="100%"
   transform="translate(34.739397,25.13398)" /><use
   id="use200"
   inkscape:spray-origin="#path24"
   xlink:href="#path24"
   x="0"
   y="0"
   width="100%"
   height="100%"
   transform="translate(3.2158595,31.105854)" /><use
   id="use202"
   inkscape:spray-origin="#path24"
   xlink:href="#path24"
   x="0"
   y="0"
   width="100%"
   height="100%"
   transform="translate(8.3650299,54.697758)" /><use
   id="use204"
   inkscape:spray-origin="#path24"
   xlink:href="#path24"
   x="0"
   y="0"
   width="100%"
   height="100%"
   transform="translate(-0.70315595,22.479554)" /><use
   id="use206"
   inkscape:spray-origin="#path24"
   xlink:href="#path24"
   x="0"
   y="0"
   width="100%"
   height="100%"
   transform="translate(1.9105083,39.388563)" /><use
   id="use208"
   inkscape:spray-origin="#path24"
   xlink:href="#path24"
   x="0"
   y="0"
   width="100%"
   height="100%"
   transform="translate(-0.90916091,65.860026)" /><use
   id="use210"
   inkscape:spray-origin="#path24"
   xlink:href="#path24"
   x="0"
   y="0"
   width="100%"
   height="100%"
   transform="translate(6.5677909,30.921316)" /><use
   id="use212"
   inkscape:spray-origin="#path24"
   xlink:href="#path24"
   x="0"
   y="0"
   width="100%"
   height="100%"
   transform="translate(9.7159545,44.702355)" /><use
   id="use214"
   inkscape:spray-origin="#path24"
   xlink:href="#path24"
   x="0"
   y="0"
   width="100%"
   height="100%"
   transform="translate(22.614292,42.265698)" /><use
   id="use216"
   inkscape:spray-origin="#path24"
   xlink:href="#path24"
   x="0"
   y="0"
   width="100%"
   height="100%"
   transform="translate(18.770761,60.523855)" /><use
   id="use218"
   inkscape:spray-origin="#path24"
   xlink:href="#path24"
   x="0"
   y="0"
   width="100%"
   height="100%"
   transform="translate(4.1443589,54.556012)" /><use
   id="use220"
   inkscape:spray-origin="#path24"
   xlink:href="#path24"
   x="0"
   y="0"
   width="100%"
   height="100%"
   transform="translate(2.1970299,68.620805)" /><use
   id="use222"
   inkscape:spray-origin="#path24"
   xlink:href="#path24"
   x="0"
   y="0"
   width="100%"
   height="100%"
   transform="translate(-19.74664,67.414418)" /><use
   id="use224"
   inkscape:spray-origin="#path24"
   xlink:href="#path24"
   x="0"
   y="0"
   width="100%"
   height="100%"
   transform="translate(15.773423,61.779085)" /><use
   id="use226"
   inkscape:spray-origin="#path24"
   xlink:href="#path24"
   x="0"
   y="0"
   width="100%"
   height="100%"
   transform="translate(12.837888,61.832289)" /><use
   id="use228"
   inkscape:spray-origin="#path24"
   xlink:href="#path24"
   x="0"
   y="0"
   width="100%"
   height="100%"
   transform="translate(1.2487826,82.221401)" /><use
   id="use230"
   inkscape:spray-origin="#path24"
   xlink:href="#path24"
   x="0"
   y="0"
   width="100%"
   height="100%"
   transform="translate(-2.3121803,79.808533)" /><use
   id="use232"
   inkscape:spray-origin="#path24"
   xlink:href="#path24"
   x="0"
   y="0"
   width="100%"
   height="100%"
   transform="translate(-30.111319,92.803006)" /><use
   id="use234"
   inkscape:spray-origin="#path24"
   xlink:href="#path24"
   x="0"
   y="0"
   width="100%"
   height="100%"
   transform="translate(-24.725746,54.679009)" /><use
   id="use236"
   inkscape:spray-origin="#path24"
   xlink:href="#path24"
   x="0"
   y="0"
   width="100%"
   height="100%"
   transform="translate(-22.964156,82.374433)" /><use
   id="use238"
   inkscape:spray-origin="#path24"
   xlink:href="#path24"
   x="0"
   y="0"
   width="100%"
   height="100%"
   transform="translate(-10.941755,71.584574)" /><use
   id="use240"
   inkscape:spray-origin="#path24"
   xlink:href="#path24"
   x="0"
   y="0"
   width="100%"
   height="100%"
   transform="translate(-6.0306664,85.036093)" /><use
   id="use242"
   inkscape:spray-origin="#path24"
   xlink:href="#path24"
   x="0"
   y="0"
   width="100%"
   height="100%"
   transform="translate(-19.367772,85.931539)" /><use
   id="use244"
   inkscape:spray-origin="#path24"
   xlink:href="#path24"
   x="0"
   y="0"
   width="100%"
   height="100%"
   transform="translate(-16.595494,73.762947)" /><use
   id="use246"
   inkscape:spray-origin="#path24"
   xlink:href="#path24"
   x="0"
   y="0"
   width="100%"
   height="100%"
   transform="translate(-39.23908,93.319372)" /><use
   id="use248"
   inkscape:spray-origin="#path24"
   xlink:href="#path24"
   x="0"
   y="0"
   width="100%"
   height="100%"
   transform="translate(-28.831163,94.451781)" /><use
   id="use250"
   inkscape:spray-origin="#path24"
   xlink:href="#path24"
   x="0"
   y="0"
   width="100%"
   height="100%"
   transform="translate(-39.302232,85.638641)" /><use
   id="use252"
   inkscape:spray-origin="#path24"
   xlink:href="#path24"
   x="0"
   y="0"
   width="100%"
   height="100%"
   transform="translate(-55.515282,82.232477)" /><use
   id="use254"
   inkscape:spray-origin="#path24"
   xlink:href="#path24"
   x="0"
   y="0"
   width="100%"
   height="100%"
   transform="translate(-31.317551,119.78294)" /><use
   id="use256"
   inkscape:spray-origin="#path24"
   xlink:href="#path24"
   x="0"
   y="0"
   width="100%"
   height="100%"
   transform="translate(-52.786869,121.9213)" /><use
   id="use258"
   inkscape:spray-origin="#path24"
   xlink:href="#path24"
   x="0"
   y="0"
   width="100%"
   height="100%"
   transform="translate(-57.712594,122.18054)" /><use
   id="use260"
   inkscape:spray-origin="#path24"
   xlink:href="#path24"
   x="0"
   y="0"
   width="100%"
   height="100%"
   transform="translate(-54.447096,110.98111)" /><use
   id="use262"
   inkscape:spray-origin="#path24"
   xlink:href="#path24"
   x="0"
   y="0"
   width="100%"
   height="100%"
   transform="translate(-50.688419,103.37807)" /><use
   id="use264"
   inkscape:spray-origin="#path24"
   xlink:href="#path24"
   x="0"
   y="0"
   width="100%"
   height="100%"
   transform="translate(-55.629336,134.79563)" /><use
   id="use266"
   inkscape:spray-origin="#path24"
   xlink:href="#path24"
   x="0"
   y="0"
   width="100%"
   height="100%"
   transform="translate(-98.495105,145.44642)" /><use
   id="use268"
   inkscape:spray-origin="#path24"
   xlink:href="#path24"
   x="0"
   y="0"
   width="100%"
   height="100%"
   transform="translate(-97.896152,152.59922)" /><use
   id="use270"
   inkscape:spray-origin="#path24"
   xlink:href="#path24"
   x="0"
   y="0"
   width="100%"
   height="100%"
   transform="translate(-108.50796,137.15875)" /><use
   id="use272"
   inkscape:spray-origin="#path24"
   xlink:href="#path24"
   x="0"
   y="0"
   width="100%"
   height="100%"
   transform="translate(-75.39846,161.75475)" /><use
   id="use274"
   inkscape:spray-origin="#path24"
   xlink:href="#path24"
   x="0"
   y="0"
   width="100%"
   height="100%"
   transform="translate(-117.48614,176.46286)" /><use
   id="use276"
   inkscape:spray-origin="#path24"
   xlink:href="#path24"
   x="0"
   y="0"
   width="100%"
   height="100%"
   transform="translate(-89.031572,170.90518)" /><use
   id="use278"
   inkscape:spray-origin="#path24"
   xlink:href="#path24"
   x="0"
   y="0"
   width="100%"
   height="100%"
   transform="translate(-131.38531,175.63024)" /><use
   id="use280"
   inkscape:spray-origin="#path24"
   xlink:href="#path24"
   x="0"
   y="0"
   width="100%"
   height="100%"
   transform="translate(-111.00688,194.08682)" /><use
   id="use282"
   inkscape:spray-origin="#path24"
   xlink:href="#path24"
   x="0"
   y="0"
   width="100%"
   height="100%"
   transform="translate(-89.288466,185.4113)" /><use
   id="use284"
   inkscape:spray-origin="#path24"
   xlink:href="#path24"
   x="0"
   y="0"
   width="100%"
   height="100%"
   transform="translate(-124.96131,185.40204)" /><use
   id="use286"
   inkscape:spray-origin="#path24"
   xlink:href="#path24"
   x="0"
   y="0"
   width="100%"
   height="100%"
   transform="translate(-138.76129,202.88527)" /><use
   id="use288"
   inkscape:spray-origin="#path24"
   xlink:href="#path24"
   x="0"
   y="0"
   width="100%"
   height="100%"
   transform="translate(-140.71583,201.35672)" /><use
   id="use290"
   inkscape:spray-origin="#path24"
   xlink:href="#path24"
   x="0"
   y="0"
   width="100%"
   height="100%"
   transform="translate(-125.15225,198.54112)" /><use
   id="use292"
   inkscape:spray-origin="#path24"
   xlink:href="#path24"
   x="0"
   y="0"
   width="100%"
   height="100%"
   transform="translate(-136.48731,202.93646)" /><use
   id="use294"
   inkscape:spray-origin="#path24"
   xlink:href="#path24"
   x="0"
   y="0"
   width="100%"
   height="100%"
   transform="translate(-135.00993,178.40812)" /><use
   id="use296"
   inkscape:spray-origin="#path24"
   xlink:href="#path24"
   x="0"
   y="0"
   width="100%"
   height="100%"
   transform="translate(-132.41439,179.74684)" /><use
   id="use298"
   inkscape:spray-origin="#path24"
   xlink:href="#path24"
   x="0"
   y="0"
   width="100%"
   height="100%"
   transform="translate(-113.95926,195.06398)" /><use
   id="use300"
   inkscape:spray-origin="#path24"
   xlink:href="#path24"
   x="0"
   y="0"
   width="100%"
   height="100%"
   transform="translate(-125.41472,183.84634)" /><use
   id="use302"
   inkscape:spray-origin="#path24"
   xlink:href="#path24"
   x="0"
   y="0"
   width="100%"
   height="100%"
   transform="translate(-117.73855,191.78083)" /><use
   id="use304"
   inkscape:spray-origin="#path24"
   xlink:href="#path24"
   x="0"
   y="0"
   width="100%"
   height="100%"
   transform="translate(-159.35486,210.73409)" /><use
   id="use306"
   inkscape:spray-origin="#path24"
   xlink:href="#path24"
   x="0"
   y="0"
   width="100%"
   height="100%"
   transform="translate(-155.55893,193.41278)" /><use
   id="use308"
   inkscape:spray-origin="#path24"
   xlink:href="#path24"
   x="0"
   y="0"
   width="100%"
   height="100%"
   transform="translate(-144.85624,188.856)" /><use
   id="use310"
   inkscape:spray-origin="#path24"
   xlink:href="#path24"
   x="0"
   y="0"
   width="100%"
   height="100%"
   transform="translate(-168.39078,219.97433)" /><use
   id="use312"
   inkscape:spray-origin="#path24"
   xlink:href="#path24"
   x="0"
   y="0"
   width="100%"
   height="100%"
   transform="translate(-165.40184,225.63366)" /><use
   id="use314"
   inkscape:spray-origin="#path24"
   xlink:href="#path24"
   x="0"
   y="0"
   width="100%"
   height="100%"
   transform="translate(-184.48535,211.09852)" /><use
   id="use316"
   inkscape:spray-origin="#path24"
   xlink:href="#path24"
   x="0"
   y="0"
   width="100%"
   height="100%"
   transform="translate(-175.4205,238.92666)" /><use
   id="use318"
   inkscape:spray-origin="#path24"
   xlink:href="#path24"
   x="0"
   y="0"
   width="100%"
   height="100%"
   transform="translate(-160.2072,226.91382)" /><use
   id="use320"
   inkscape:spray-origin="#path24"
   xlink:href="#path24"
   x="0"
   y="0"
   width="100%"
   height="100%"
   transform="translate(-207.73708,225.62694)" /><use
   id="use322"
   inkscape:spray-origin="#path24"
   xlink:href="#path24"
   x="0"
   y="0"
   width="100%"
   height="100%"
   transform="translate(-184.03835,220.82096)" /><use
   id="use324"
   inkscape:spray-origin="#path24"
   xlink:href="#path24"
   x="0"
   y="0"
   width="100%"
   height="100%"
   transform="translate(-202.72937,233.12059)" /><use
   id="use326"
   inkscape:spray-origin="#path24"
   xlink:href="#path24"
   x="0"
   y="0"
   width="100%"
   height="100%"
   transform="translate(-204.8795,213.03646)" /><use
   id="use328"
   inkscape:spray-origin="#path24"
   xlink:href="#path24"
   x="0"
   y="0"
   width="100%"
   height="100%"
   transform="translate(-194.97461,207.93089)" /><use
   id="use330"
   inkscape:spray-origin="#path24"
   xlink:href="#path24"
   x="0"
   y="0"
   width="100%"
   height="100%"
   transform="translate(-215.32084,211.23672)" /><use
   id="use332"
   inkscape:spray-origin="#path24"
   xlink:href="#path24"
   x="0"
   y="0"
   width="100%"
   height="100%"
   transform="translate(-194.9308,218.7086)" /><use
   id="use334"
   inkscape:spray-origin="#path24"
   xlink:href="#path24"
   x="0"
   y="0"
   width="100%"
   height="100%"
   transform="translate(-221.52543,244.95557)" /><use
   id="use336"
   inkscape:spray-origin="#path24"
   xlink:href="#path24"
   x="0"
   y="0"
   width="100%"
   height="100%"
   transform="translate(-210.7058,228.80379)" /><use
   id="use338"
   inkscape:spray-origin="#path24"
   xlink:href="#path24"
   x="0"
   y="0"
   width="100%"
   height="100%"
   transform="translate(-217.25574,216.97139)" /><use
   id="use340"
   inkscape:spray-origin="#path24"
   xlink:href="#path24"
   x="0"
   y="0"
   width="100%"
   height="100%"
   transform="translate(-197.78092,245.94173)" /><use
   id="use342"
   inkscape:spray-origin="#path24"
   xlink:href="#path24"
   x="0"
   y="0"
   width="100%"
   height="100%"
   transform="translate(-203.93043,240.15865)" /><use
   id="use344"
   inkscape:spray-origin="#path24"
   xlink:href="#path24"
   x="0"
   y="0"
   width="100%"
   height="100%"
   transform="translate(-236.00711,208.43389)" /><use
   id="use346"
   inkscape:spray-origin="#path24"
   xlink:href="#path24"
   x="0"
   y="0"
   width="100%"
   height="100%"
   transform="translate(-221.68872,243.44113)" /><use
   id="use348"
   inkscape:spray-origin="#path24"
   xlink:href="#path24"
   x="0"
   y="0"
   width="100%"
   height="100%"
   transform="translate(-230.09145,228.07034)" /><use
   id="use350"
   inkscape:spray-origin="#path24"
   xlink:href="#path24"
   x="0"
   y="0"
   width="100%"
   height="100%"
   transform="translate(-210.85349,241.94591)" /><use
   id="use352"
   inkscape:spray-origin="#path24"
   xlink:href="#path24"
   x="0"
   y="0"
   width="100%"
   height="100%"
   transform="translate(-234.66205,206.48205)" /><use
   id="use354"
   inkscape:spray-origin="#path24"
   xlink:href="#path24"
   x="0"
   y="0"
   width="100%"
   height="100%"
   transform="translate(-202.66228,219.66064)" /><use
   id="use356"
   inkscape:spray-origin="#path24"
   xlink:href="#path24"
   x="0"
   y="0"
   width="100%"
   height="100%"
   transform="translate(-231.29222,224.19)" /><use
   id="use358"
   inkscape:spray-origin="#path24"
   xlink:href="#path24"
   x="0"
   y="0"
   width="100%"
   height="100%"
   transform="translate(-226.78442,230.46362)" /><use
   id="use360"
   inkscape:spray-origin="#path24"
   xlink:href="#path24"
   x="0"
   y="0"
   width="100%"
   height="100%"
   transform="translate(-238.18032,215.54649)" /><use
   id="use362"
   inkscape:spray-origin="#path24"
   xlink:href="#path24"
   x="0"
   y="0"
   width="100%"
   height="100%"
   transform="translate(-218.02039,215.95409)" /><use
   id="use364"
   inkscape:spray-origin="#path24"
   xlink:href="#path24"
   x="0"
   y="0"
   width="100%"
   height="100%"
   transform="translate(-223.32389,208.83465)" /><use
   id="use366"
   inkscape:spray-origin="#path24"
   xlink:href="#path24"
   x="0"
   y="0"
   width="100%"
   height="100%"
   transform="translate(-230.38404,234.88574)" /><use
   id="use368"
   inkscape:spray-origin="#path24"
   xlink:href="#path24"
   x="0"
   y="0"
   width="100%"
   height="100%"
   transform="translate(-243.66471,217.14831)" /><use
   id="use370"
   inkscape:spray-origin="#path24"
   xlink:href="#path24"
   x="0"
   y="0"
   width="100%"
   height="100%"
   transform="translate(-235.92835,214.72294)" /><use
   id="use372"
   inkscape:spray-origin="#path24"
   xlink:href="#path24"
   x="0"
   y="0"
   width="100%"
   height="100%"
   transform="translate(-232.9003,196.96898)" /><use
   id="use374"
   inkscape:spray-origin="#path24"
   xlink:href="#path24"
   x="0"
   y="0"
   width="100%"
   height="100%"
   transform="translate(-231.15016,214.69621)" /><use
   id="use376"
   inkscape:spray-origin="#path24"
   xlink:href="#path24"
   x="0"
   y="0"
   width="100%"
   height="100%"
   transform="translate(-240.38408,207.36079)" /><use
   id="use378"
   inkscape:spray-origin="#path24"
   xlink:href="#path24"
   x="0"
   y="0"
   width="100%"
   height="100%"
   transform="translate(-240.03831,218.76149)" /><use
   id="use380"
   inkscape:spray-origin="#path24"
   xlink:href="#path24"
   x="0"
   y="0"
   width="100%"
   height="100%"
   transform="translate(-256.10279,215.31133)" /><use
   id="use382"
   inkscape:spray-origin="#path24"
   xlink:href="#path24"
   x="0"
   y="0"
   width="100%"
   height="100%"
   transform="translate(-220.46756,209.99189)" /><use
   id="use384"
   inkscape:spray-origin="#path24"
   xlink:href="#path24"
   x="0"
   y="0"
   width="100%"
   height="100%"
   transform="translate(-230.05204,216.14633)" /><use
   id="use386"
   inkscape:spray-origin="#path24"
   xlink:href="#path24"
   x="0"
   y="0"
   width="100%"
   height="100%"
   transform="translate(-224.92625,214.42259)" /><use
   id="use388"
   inkscape:spray-origin="#path24"
   xlink:href="#path24"
   x="0"
   y="0"
   width="100%"
   height="100%"
   transform="translate(-239.20019,212.60782)" /><use
   id="use390"
   inkscape:spray-origin="#path24"
   xlink:href="#path24"
   x="0"
   y="0"
   width="100%"
   height="100%"
   transform="translate(-255.00745,208.10143)" /><use
   id="use392"
   inkscape:spray-origin="#path24"
   xlink:href="#path24"
   x="0"
   y="0"
   width="100%"
   height="100%"
   transform="translate(-228.93527,223.47727)" /><use
   id="use394"
   inkscape:spray-origin="#path24"
   xlink:href="#path24"
   x="0"
   y="0"
   width="100%"
   height="100%"
   transform="translate(-239.94786,220.56988)" /><use
   id="use396"
   inkscape:spray-origin="#path24"
   xlink:href="#path24"
   x="0"
   y="0"
   width="100%"
   height="100%"
   transform="translate(-236.04337,222.39388)" /><use
   id="use398"
   inkscape:spray-origin="#path24"
   xlink:href="#path24"
   x="0"
   y="0"
   width="100%"
   height="100%"
   transform="translate(-244.96898,238.13335)" /><use
   id="use400"
   inkscape:spray-origin="#path24"
   xlink:href="#path24"
   x="0"
   y="0"
   width="100%"
   height="100%"
   transform="translate(-229.55548,238.74585)" /><use
   id="use402"
   inkscape:spray-origin="#path24"
   xlink:href="#path24"
   x="0"
   y="0"
   width="100%"
   height="100%"
   transform="translate(-247.48111,256.49092)" /><use
   id="use404"
   inkscape:spray-origin="#path24"
   xlink:href="#path24"
   x="0"
   y="0"
   width="100%"
   height="100%"
   transform="translate(-219.83234,232.29725)" /><use
   id="use406"
   inkscape:spray-origin="#path24"
   xlink:href="#path24"
   x="0"
   y="0"
   width="100%"
   height="100%"
   transform="translate(-250.81611,264.59535)" /><use
   id="use408"
   inkscape:spray-origin="#path24"
   xlink:href="#path24"
   x="0"
   y="0"
   width="100%"
   height="100%"
   transform="translate(-263.04982,250.23149)" /><use
   id="use410"
   inkscape:spray-origin="#path24"
   xlink:href="#path24"
   x="0"
   y="0"
   width="100%"
   height="100%"
   transform="translate(-240.81643,258.15384)" /><use
   id="use412"
   inkscape:spray-origin="#path24"
   xlink:href="#path24"
   x="0"
   y="0"
   width="100%"
   height="100%"
   transform="translate(-247.92819,257.13317)" /><use
   id="use414"
   inkscape:spray-origin="#path24"
   xlink:href="#path24"
   x="0"
   y="0"
   width="100%"
   height="100%"
   transform="translate(-223.50747,229.36044)" /><use
   id="use416"
   inkscape:spray-origin="#path24"
   xlink:href="#path24"
   x="0"
   y="0"
   width="100%"
   height="100%"
   transform="translate(-248.74952,255.26774)" /><use
   id="use418"
   inkscape:spray-origin="#path24"
   xlink:href="#path24"
   x="0"
   y="0"
   width="100%"
   height="100%"
   transform="translate(-225.13609,235.90218)" /><text
   xml:space="preserve"
   style="font-style:normal;font-weight:normal;font-size:81.71115875px;line-height:1.25;font-family:sans-serif;letter-spacing:0px;word-spacing:0px;fill:#000000;fill-opacity:1;stroke:none;stroke-width:2.04277897"
   x="125.74976"
   y="381.58737"
   id="text422"
   transform="scale(1.0933409,0.91462782)"><tspan
     sodipodi:role="line"
     id="tspan420"
     x="125.74976"
     y="381.58737"
     style="font-style:normal;font-variant:normal;font-weight:bold;font-stretch:normal;font-size:392.21356201px;line-height:674.11706543px;font-family:Arial;-inkscape-font-specification:'Arial Bold';fill:#ffffff;stroke-width:2.04277897">x</tspan></text>
</svg>