<?xml version="1.0" encoding="UTF-8" standalone="no"?>
<!DOCTYPE svg PUBLIC "-//W3C//DTD SVG 1.1//EN" "http://www.w3.org/Graphics/SVG/1.1/DTD/svg11.dtd">
<svg version="1.1" xmlns="http://www.w3.org/2000/svg" xmlns:xlink="http://www.w3.org/1999/xlink" preserveAspectRatio="xMidYMid meet" viewBox="0 0 640 640" width="32" height="32"><defs><path d="M40.45 28.96L369.93 28.96L369.93 140.49L40.45 140.49L40.45 28.96Z" id="bbj80fw4i"></path><path d="M205.19 140.49L205.19 28.96" id="i1ucEr1RtJ"></path><path d="M277.73 206.34L607.21 206.34L607.21 317.88L277.73 317.88L277.73 206.34Z" id="c7s3um5XV"></path><path d="M442.47 317.88L442.47 206.34" id="b2VaKazvlg"></path><path d="M40.45 382.28L369.93 382.28L369.93 493.81L40.45 493.81L40.45 382.28Z" id="a8aJMEofE"></path><path d="M205.19 493.81L205.19 382.28" id="a1KcAnAm6h"></path><path d="M40.45 493.81L369.93 493.81L369.93 605.35L40.45 605.35L40.45 493.81Z" id="g5vkVmAf"></path><path d="M205.19 605.35L205.19 493.81" id="f4wkRhY2pY"></path><path d="M129.45 330.98L30.29 262.11L129.45 193.24L129.45 236.9L234.61 236.9L234.61 287.44L129.45 287.44L129.45 330.98Z" id="d3HR9w8uUm"></path></defs><g><g><g><g><use xlink:href="#bbj80fw4i" opacity="1" fill-opacity="0" stroke="#ffffff" stroke-width="30" stroke-opacity="1"></use></g></g><g><use xlink:href="#i1ucEr1RtJ" opacity="1" fill="#60e794" fill-opacity="1"></use><g><use xlink:href="#i1ucEr1RtJ" opacity="1" fill-opacity="0" stroke="#ffffff" stroke-width="30" stroke-opacity="1"></use></g></g><g><g><use xlink:href="#c7s3um5XV" opacity="1" fill-opacity="0" stroke="#ffffff" stroke-width="30" stroke-opacity="1"></use></g></g><g><use xlink:href="#b2VaKazvlg" opacity="1" fill="#60e794" fill-opacity="1"></use><g><use xlink:href="#b2VaKazvlg" opacity="1" fill-opacity="0" stroke="#ffffff" stroke-width="30" stroke-opacity="1"></use></g></g><g><g><use xlink:href="#a8aJMEofE" opacity="1" fill-opacity="0" stroke="#ffffff" stroke-width="29" stroke-opacity="1"></use></g></g><g><use xlink:href="#a1KcAnAm6h" opacity="1" fill="#60e794" fill-opacity="1"></use><g><use xlink:href="#a1KcAnAm6h" opacity="1" fill-opacity="0" stroke="#ffffff" stroke-width="29" stroke-opacity="1"></use></g></g><g><g><use xlink:href="#g5vkVmAf" opacity="1" fill-opacity="0" stroke="#ffffff" stroke-width="29" stroke-opacity="1"></use></g></g><g><use xlink:href="#f4wkRhY2pY" opacity="1" fill="#60e794" fill-opacity="1"></use><g><use xlink:href="#f4wkRhY2pY" opacity="1" fill-opacity="0" stroke="#ffffff" stroke-width="29" stroke-opacity="1"></use></g></g><g><g><filter id="shadow12193087" x="21.29" y="184.24" width="223.32" height="156.75" filterUnits="userSpaceOnUse" primitiveUnits="userSpaceOnUse"><feFlood></feFlood><feComposite in2="SourceAlpha" operator="in"></feComposite><feGaussianBlur stdDeviation="1"></feGaussianBlur><feOffset dx="1" dy="1" result="afterOffset"></feOffset><feFlood flood-color="#000000" flood-opacity="0.5"></feFlood><feComposite in2="afterOffset" operator="in"></feComposite><feMorphology operator="dilate" radius="1"></feMorphology><feComposite in2="SourceAlpha" operator="out"></feComposite></filter><path d="M129.45 330.98L30.29 262.11L129.45 193.24L129.45 236.9L234.61 236.9L234.61 287.44L129.45 287.44L129.45 330.98Z" id="bgBv3X6G9" fill="white" fill-opacity="1" filter="url(#shadow12193087)"></path></g><use xlink:href="#d3HR9w8uUm" opacity="1" fill="#ffffff" fill-opacity="1"></use></g></g></g></svg>