<?xml version="1.0" encoding="UTF-8" standalone="no"?>
<!--?xml version="1.0" encoding="utf-8"?-->

<!-- Generator: Adobe Illustrator 18.1.1, SVG Export Plug-In . SVG Version: 6.00 Build 0)  -->

<svg
   xmlns:dc="http://purl.org/dc/elements/1.1/"
   xmlns:cc="http://creativecommons.org/ns#"
   xmlns:rdf="http://www.w3.org/1999/02/22-rdf-syntax-ns#"
   xmlns:svg="http://www.w3.org/2000/svg"
   xmlns="http://www.w3.org/2000/svg"
   xmlns:sodipodi="http://sodipodi.sourceforge.net/DTD/sodipodi-0.dtd"
   xmlns:inkscape="http://www.inkscape.org/namespaces/inkscape"
   version="1.1"
   id="_x32_"
   x="0px"
   y="0px"
   viewBox="0 0 512 512"
   style="width: 512px; height: 512px; opacity: 1;"
   xml:space="preserve"
   sodipodi:docname="approved.svg"
   inkscape:version="0.92.4 (5da689c313, 2019-01-14)"><metadata
   id="metadata43"><rdf:RDF><cc:Work
       rdf:about=""><dc:format>image/svg+xml</dc:format><dc:type
         rdf:resource="http://purl.org/dc/dcmitype/StillImage" /><dc:title></dc:title></cc:Work></rdf:RDF></metadata><defs
   id="defs41">
	
	
	
	
	
	
	
	
	
	
	
	
	
	
	
	
</defs><sodipodi:namedview
   pagecolor="#ffffff"
   bordercolor="#666666"
   borderopacity="1"
   objecttolerance="10"
   gridtolerance="10"
   guidetolerance="10"
   inkscape:pageopacity="0"
   inkscape:pageshadow="2"
   inkscape:window-width="1168"
   inkscape:window-height="626"
   id="namedview39"
   showgrid="false"
   inkscape:snap-bbox="true"
   inkscape:snap-bbox-midpoints="true"
   inkscape:snap-page="false"
   inkscape:snap-others="true"
   inkscape:object-nodes="false"
   inkscape:zoom="0.06"
   inkscape:cx="-2108.9506"
   inkscape:cy="-148.61116"
   inkscape:window-x="92"
   inkscape:window-y="1289"
   inkscape:window-maximized="0"
   inkscape:current-layer="_x32_" />
<style
   type="text/css"
   id="style2">
	.st0{fill:#4B4B4B;}
</style>

<path
   style="fill:#218c74;fill-opacity:1;stroke-width:0.74575096"
   d="m 253.42481,511.84542 c -1.43058,-0.25646 -3.6043,-0.9973 -4.8305,-1.64632 -1.22621,-0.64903 -12.08879,-9.29662 -24.13906,-19.21689 -12.55929,-10.33929 -22.54967,-18.0355 -23.40937,-18.0337 -1.31235,0.003 -12.7615,2.29412 -46.82379,9.37112 -10.74004,2.23142 -13.68729,2.29897 -17.38669,0.39847 -5.26086,-2.70269 -6.81439,-5.49062 -18.61576,-33.40751 -6.24951,-14.78362 -11.45332,-26.98017 -11.56401,-27.10346 -0.19337,-0.21536 -37.924903,-11.27518 -49.423543,-14.48695 -9.90931,-2.76786 -13.511833,-5.57073 -15.6039,-12.14032 -0.986715,-3.09851 -1.030884,-2.28151 2.344668,-43.36922 l 1.588249,-19.33237 -2.153417,-2.05794 C 19.732577,308.195 2.5854808,291.00105 1.4378978,288.73585 c -0.9277717,-1.83132 -1.4286879,-4.35579 -1.4286879,-7.20018 0,-5.09283 -1.0455313,-3.1704 19.1430451,-35.19863 l 13.353294,-21.18437 -9.204757,-27.45883 c -7.303865,-21.78824 -9.213662,-28.32928 -9.247875,-31.6739 -0.05187,-5.07038 1.930058,-9.46528 5.457232,-12.10137 1.332161,-0.99559 13.290743,-8.13158 26.574625,-15.85771 13.283882,-7.72613 24.246523,-14.12575 24.361426,-14.22138 0.114901,-0.0957 1.538296,-8.38597 3.163098,-18.42297 6.550116,-40.462439 6.525578,-40.336339 8.513255,-43.751793 2.426035,-4.1687 6.936386,-6.877871 12.288461,-7.381143 2.23637,-0.210294 15.269176,-0.74645 28.961796,-1.19146 13.69262,-0.445011 25.64436,-0.96365 26.55944,-1.152532 1.14637,-0.236625 7.09237,-7.663828 19.12026,-23.88325 19.34315,-26.0839825 20.65638,-27.40050854 27.85488,-27.92484654 4.21496,-0.307017 4.64672,-0.139705 25.75741,9.98120554 27.7483,13.303131 32.12391,15.315286 33.30444,15.315286 0.53667,0 9.79828,-4.241738 20.58136,-9.426085 C 308.15142,0.80866546 310.07049,-0.01798054 313.69872,2.7945804e-4 317.81195,0.02097946 322.23589,2.0613085 325.22897,5.3180485 c 1.27559,1.387948 9.57424,12.2895995 18.44146,24.2258905 8.86722,11.936292 16.68568,21.907511 17.37434,22.158264 0.68868,0.250753 12.95682,0.849428 27.26253,1.330387 14.30573,0.48096 27.43276,1.027215 29.17118,1.2139 3.70473,0.39784 8.05795,2.489981 10.36632,4.982018 3.34649,3.612759 3.1788,2.847002 10.29745,47.022002 1.49236,9.26092 3.09632,17.22774 3.56435,17.70403 0.46803,0.4763 11.71959,7.15135 25.00348,14.83343 13.28388,7.68208 25.11433,14.8695 26.2899,15.97203 2.81801,2.64294 4.88602,7.27307 4.90625,10.98475 0.0105,1.87272 -3.48659,13.57573 -9.3406,31.26086 l -9.35692,28.26755 15.62231,24.86591 c 8.59226,13.67625 15.97987,25.81393 16.41688,26.97261 1.20408,3.19241 0.95837,6.9611 -0.70819,10.86224 -1.20773,2.8271 -5.69722,7.57012 -22.86647,24.15782 l -21.36369,20.64006 0.22595,3.67011 c 0.12427,2.01856 0.92273,11.92075 1.77436,22.00486 0.85162,10.08411 1.59251,22.92939 1.64641,28.54508 l 0.098,10.21034 -2.27248,2.83748 c -4.3143,5.38696 -2.03102,4.5323 -44.17467,16.53509 -9.60526,2.73564 -17.85289,5.34086 -18.32807,5.78938 -0.47517,0.44853 -5.60052,12.09698 -11.38967,25.88545 -5.78914,13.78848 -11.25271,26.40205 -12.14125,28.03016 -0.88854,1.6281 -3.06561,3.98543 -4.83795,5.2385 -4.93981,3.49251 -9.27567,3.16 -37.65106,-2.88741 -13.07952,-2.78753 -25.1837,-5.24881 -26.89817,-5.46951 l -3.11723,-0.40127 -22.16919,18.31127 c -12.19304,10.07121 -22.86967,18.6888 -23.72584,19.1502 -2.54238,1.37017 -7.14129,2.12272 -9.92389,1.62389 z m -3.28588,-137.29194 c 2.0319,-1.01962 4.89534,-3.12438 6.36322,-4.67723 2.49198,-2.63623 115.28534,-172.09139 117.56073,-176.61742 1.78738,-3.55528 2.06197,-7.14095 0.85919,-11.2195 -1.28053,-4.34219 -4.01565,-7.11918 -13.08727,-13.28758 -3.01573,-2.05059 -8.28199,-5.71582 -11.70282,-8.14495 -7.76953,-5.51715 -11.70751,-6.84705 -16.71289,-5.64419 -1.9858,0.47722 -4.66912,1.80361 -5.96292,2.94753 -1.29379,1.14393 -22.50765,32.5283 -47.14191,69.74306 l -44.78955,67.66319 -24.06041,-24.37448 c -13.23323,-13.40597 -25.31523,-25.8254 -26.8489,-27.59873 -4.25815,-4.92358 -8.3502,-7.02825 -13.66485,-7.02825 -3.16749,0 -5.12527,0.43521 -6.86787,1.52669 -3.46723,2.17172 -25.42621,24.71396 -26.87093,27.58465 -1.50046,2.98146 -1.56903,9.87276 -0.13265,13.33452 1.56867,3.78065 86.60171,90.66739 91.70582,93.70499 7.55137,4.49404 15.08997,5.23105 21.35401,2.0877 z"
   id="path1077"
   inkscape:connector-curvature="0" /></svg>