<?xml version="1.0" encoding="UTF-8" standalone="no"?>
<!DOCTYPE svg PUBLIC "-//W3C//DTD SVG 1.1//EN" "http://www.w3.org/Graphics/SVG/1.1/DTD/svg11.dtd">
<svg version="1.1" xmlns="http://www.w3.org/2000/svg" xmlns:xlink="http://www.w3.org/1999/xlink" preserveAspectRatio="xMidYMid meet" viewBox="0 0 640 640" width="40" height="40"><defs><path d="M93.73 61.5L404.88 61.5L404.88 166.83L93.73 166.83L93.73 61.5Z" id="e6gDVicN4"></path><mask id="maskdEC0I97wc" x="73.73" y="41.5" width="351.15" height="145.33" maskUnits="userSpaceOnUse"><rect x="73.73" y="41.5" width="351.15" height="145.33" fill="white"></rect><use xlink:href="#e6gDVicN4" opacity="1" fill="black"></use></mask><path d="M249.31 166.83L249.31 61.5" id="iQ6VO1UKe"></path><path d="M290.52 219.08L601.66 219.08L601.66 324.41L290.52 324.41L290.52 219.08Z" id="a134KLQnad"></path><mask id="maskc3kwL0momV" x="270.52" y="199.08" width="351.15" height="145.33" maskUnits="userSpaceOnUse"><rect x="270.52" y="199.08" width="351.15" height="145.33" fill="white"></rect><use xlink:href="#a134KLQnad" opacity="1" fill="black"></use></mask><path d="M446.09 324.41L446.09 219.08" id="b1ri2TKFOx"></path><path d="M93.73 382.99L404.88 382.99L404.88 488.32L93.73 488.32L93.73 382.99Z" id="ec62Kzg5AX"></path><mask id="maska2zk6FhdiM" x="73.73" y="362.99" width="351.15" height="145.33" maskUnits="userSpaceOnUse"><rect x="73.73" y="362.99" width="351.15" height="145.33" fill="white"></rect><use xlink:href="#ec62Kzg5AX" opacity="1" fill="black"></use></mask><path d="M249.31 488.32L249.31 382.99" id="c1mMA9QYs2"></path><path d="M93.73 493.73L404.88 493.73L404.88 599.06L93.73 599.06L93.73 493.73Z" id="cgWc1sXA"></path><mask id="maska4insyXld" x="73.73" y="473.73" width="351.15" height="145.33" maskUnits="userSpaceOnUse"><rect x="73.73" y="473.73" width="351.15" height="145.33" fill="white"></rect><use xlink:href="#cgWc1sXA" opacity="1" fill="black"></use></mask><path d="M249.31 599.06L249.31 493.73" id="fuR7n11n3"></path><path d="M177.95 249.8L177.95 219.08L106.38 277.01L177.95 324.41L177.95 292.89L261.96 292.89L261.96 249.8L177.95 249.8Z" id="a5RvCdUr6"></path></defs><g><g><g><g mask="url(#maskdEC0I97wc)"><use xlink:href="#e6gDVicN4" opacity="1" fill-opacity="0" stroke="#757575" stroke-width="20" stroke-opacity="1"></use></g></g><g><g><use xlink:href="#iQ6VO1UKe" opacity="1" fill-opacity="0" stroke="#757575" stroke-width="10" stroke-opacity="1"></use></g></g><g><g mask="url(#maskc3kwL0momV)"><use xlink:href="#a134KLQnad" opacity="1" fill-opacity="0" stroke="#757575" stroke-width="20" stroke-opacity="1"></use></g></g><g><g><use xlink:href="#b1ri2TKFOx" opacity="1" fill-opacity="0" stroke="#757575" stroke-width="10" stroke-opacity="1"></use></g></g><g><g mask="url(#maska2zk6FhdiM)"><use xlink:href="#ec62Kzg5AX" opacity="1" fill-opacity="0" stroke="#757575" stroke-width="20" stroke-opacity="1"></use></g></g><g><g><use xlink:href="#c1mMA9QYs2" opacity="1" fill-opacity="0" stroke="#757575" stroke-width="10" stroke-opacity="1"></use></g></g><g><g mask="url(#maska4insyXld)"><use xlink:href="#cgWc1sXA" opacity="1" fill-opacity="0" stroke="#757575" stroke-width="20" stroke-opacity="1"></use></g></g><g><g><use xlink:href="#fuR7n11n3" opacity="1" fill-opacity="0" stroke="#757575" stroke-width="10" stroke-opacity="1"></use></g></g><g><use xlink:href="#a5RvCdUr6" opacity="1" fill="#757575" fill-opacity="1"></use><g><use xlink:href="#a5RvCdUr6" opacity="1" fill-opacity="0" stroke="#757575" stroke-width="10" stroke-opacity="1"></use></g></g></g></g></svg>