<?xml version="1.0" encoding="UTF-8" standalone="no"?>
<!--?xml version="1.0" encoding="utf-8"?-->

<!-- Generator: Adobe Illustrator 18.1.1, SVG Export Plug-In . SVG Version: 6.00 Build 0)  -->

<svg
   xmlns:dc="http://purl.org/dc/elements/1.1/"
   xmlns:cc="http://creativecommons.org/ns#"
   xmlns:rdf="http://www.w3.org/1999/02/22-rdf-syntax-ns#"
   xmlns:svg="http://www.w3.org/2000/svg"
   xmlns="http://www.w3.org/2000/svg"
   xmlns:sodipodi="http://sodipodi.sourceforge.net/DTD/sodipodi-0.dtd"
   xmlns:inkscape="http://www.inkscape.org/namespaces/inkscape"
   version="1.1"
   id="_x32_"
   x="0px"
   y="0px"
   viewBox="0 0 512 512"
   style="width: 512px; height: 512px; opacity: 1;"
   xml:space="preserve"
   sodipodi:docname="icon_read2.svg"
   inkscape:version="0.92.4 (5da689c313, 2019-01-14)"><metadata
   id="metadata23"><rdf:RDF><cc:Work
       rdf:about=""><dc:format>image/svg+xml</dc:format><dc:type
         rdf:resource="http://purl.org/dc/dcmitype/StillImage" /><dc:title></dc:title></cc:Work></rdf:RDF></metadata><defs
   id="defs21">
	
	
	
	
	
	
</defs><sodipodi:namedview
   pagecolor="#ffffff"
   bordercolor="#666666"
   borderopacity="1"
   objecttolerance="10"
   gridtolerance="10"
   guidetolerance="10"
   inkscape:pageopacity="0"
   inkscape:pageshadow="2"
   inkscape:window-width="2400"
   inkscape:window-height="1321"
   id="namedview19"
   showgrid="false"
   inkscape:snap-text-baseline="false"
   inkscape:snap-bbox="true"
   inkscape:bbox-paths="false"
   inkscape:snap-intersection-paths="true"
   inkscape:zoom="0.65186406"
   inkscape:cx="-215.28725"
   inkscape:cy="152.72186"
   inkscape:window-x="-9"
   inkscape:window-y="-9"
   inkscape:window-maximized="1"
   inkscape:current-layer="_x32_"
   inkscape:snap-bbox-midpoints="true"
   inkscape:snap-object-midpoints="true"
   inkscape:snap-midpoints="true"
   inkscape:snap-bbox-edge-midpoints="false" />
<style
   type="text/css"
   id="style2">
	.st0{fill:#4B4B4B;}
</style>



<flowRoot
   xml:space="preserve"
   id="flowRoot4555"
   style="font-style:normal;font-weight:normal;font-size:40px;line-height:1.25;font-family:sans-serif;letter-spacing:0px;word-spacing:0px;fill:#c8c4b7;fill-opacity:1;stroke:none"><flowRegion
     id="flowRegion4557"
     style="fill:#c8c4b7"><rect
       id="rect4559"
       width="409.5946"
       height="220.90495"
       x="573.73926"
       y="258.87973"
       style="fill:#c8c4b7" /></flowRegion><flowPara
     id="flowPara4561" /></flowRoot><flowRoot
   xml:space="preserve"
   id="flowRoot4563"
   style="fill:black;fill-opacity:1;stroke:none;font-family:sans-serif;font-style:normal;font-weight:normal;font-size:40px;line-height:1.25;letter-spacing:0px;word-spacing:0px"><flowRegion
     id="flowRegion4565"><rect
       id="rect4567"
       width="309.88055"
       height="182.55341"
       x="99.714043"
       y="200.58537" /></flowRegion><flowPara
     id="flowPara4569" /></flowRoot><flowRoot
   xml:space="preserve"
   id="flowRoot4571"
   style="fill:black;fill-opacity:1;stroke:none;font-family:sans-serif;font-style:normal;font-weight:normal;font-size:40px;line-height:1.25;letter-spacing:0px;word-spacing:0px"><flowRegion
     id="flowRegion4573"><rect
       id="rect4575"
       width="237.77963"
       height="139.59966"
       x="104.31623"
       y="327.91254" /></flowRegion><flowPara
     id="flowPara4577" /></flowRoot><flowRoot
   xml:space="preserve"
   id="flowRoot4587"
   style="fill:black;fill-opacity:1;stroke:none;font-family:sans-serif;font-style:normal;font-weight:normal;font-size:40px;line-height:1.25;letter-spacing:0px;word-spacing:0px"><flowRegion
     id="flowRegion4589"><rect
       id="rect4591"
       width="233.17744"
       height="111.98654"
       x="161.07652"
       y="223.59631" /></flowRegion><flowPara
     id="flowPara4593" /></flowRoot>
<path
   style="fill:#d9d9d9;fill-opacity:1;stroke-width:0.83543098"
   d="M 256 0 A 256 256 0 0 0 0 256 A 256 256 0 0 0 256 512 A 256 256 0 0 0 512 256 A 256 256 0 0 0 256 0 z M 256 32 A 224 224 0 0 1 278.36328 33.119141 A 224 224 0 0 1 300.50195 36.464844 A 224 224 0 0 1 322.19727 42.003906 A 224 224 0 0 1 343.23047 49.681641 A 224 224 0 0 1 363.39062 59.421875 A 224 224 0 0 1 382.48047 71.125 A 224 224 0 0 1 400.30469 84.675781 A 224 224 0 0 1 416.6875 99.9375 A 224 224 0 0 1 431.46484 116.75977 A 224 224 0 0 1 444.49023 134.97266 A 224 224 0 0 1 455.63086 154.39453 A 224 224 0 0 1 464.77734 174.83203 A 224 224 0 0 1 471.83789 196.08008 A 224 224 0 0 1 476.74023 217.92773 A 224 224 0 0 1 479.43945 240.1543 A 224 224 0 0 1 480 256 A 224 224 0 0 1 478.88086 278.36328 A 224 224 0 0 1 475.53516 300.50195 A 224 224 0 0 1 469.99609 322.19727 A 224 224 0 0 1 462.31836 343.23047 A 224 224 0 0 1 452.57812 363.39062 A 224 224 0 0 1 440.875 382.48047 A 224 224 0 0 1 427.32422 400.30469 A 224 224 0 0 1 412.0625 416.6875 A 224 224 0 0 1 395.24023 431.46484 A 224 224 0 0 1 377.02734 444.49023 A 224 224 0 0 1 357.60547 455.63086 A 224 224 0 0 1 337.16797 464.77734 A 224 224 0 0 1 315.91992 471.83789 A 224 224 0 0 1 294.07227 476.74023 A 224 224 0 0 1 271.8457 479.43945 A 224 224 0 0 1 256 480 A 224 224 0 0 1 233.63672 478.88086 A 224 224 0 0 1 211.49805 475.53516 A 224 224 0 0 1 189.80273 469.99609 A 224 224 0 0 1 168.76953 462.31836 A 224 224 0 0 1 148.60938 452.57812 A 224 224 0 0 1 129.51953 440.875 A 224 224 0 0 1 111.69531 427.32422 A 224 224 0 0 1 95.3125 412.0625 A 224 224 0 0 1 80.535156 395.24023 A 224 224 0 0 1 67.509766 377.02734 A 224 224 0 0 1 56.369141 357.60547 A 224 224 0 0 1 47.222656 337.16797 A 224 224 0 0 1 40.162109 315.91992 A 224 224 0 0 1 35.259766 294.07227 A 224 224 0 0 1 32.560547 271.8457 A 224 224 0 0 1 32 256 A 224 224 0 0 1 33.119141 233.63672 A 224 224 0 0 1 36.464844 211.49805 A 224 224 0 0 1 42.003906 189.80273 A 224 224 0 0 1 49.681641 168.76953 A 224 224 0 0 1 59.421875 148.60938 A 224 224 0 0 1 71.125 129.51953 A 224 224 0 0 1 84.675781 111.69531 A 224 224 0 0 1 99.9375 95.3125 A 224 224 0 0 1 116.75977 80.535156 A 224 224 0 0 1 134.97266 67.509766 A 224 224 0 0 1 154.39453 56.369141 A 224 224 0 0 1 174.83203 47.222656 A 224 224 0 0 1 196.08008 40.162109 A 224 224 0 0 1 217.92773 35.259766 A 224 224 0 0 1 240.1543 32.560547 A 224 224 0 0 1 256 32 z "
   id="path837-2" /></svg>