<?xml version="1.0" encoding="UTF-8" standalone="no"?>
<!--?xml version="1.0" encoding="utf-8"?-->

<!-- Generator: Adobe Illustrator 18.1.1, SVG Export Plug-In . SVG Version: 6.00 Build 0)  -->

<svg
   xmlns:dc="http://purl.org/dc/elements/1.1/"
   xmlns:cc="http://creativecommons.org/ns#"
   xmlns:rdf="http://www.w3.org/1999/02/22-rdf-syntax-ns#"
   xmlns:svg="http://www.w3.org/2000/svg"
   xmlns="http://www.w3.org/2000/svg"
   xmlns:sodipodi="http://sodipodi.sourceforge.net/DTD/sodipodi-0.dtd"
   xmlns:inkscape="http://www.inkscape.org/namespaces/inkscape"
   version="1.1"
   id="_x32_"
   x="0px"
   y="0px"
   viewBox="0 0 512 512"
   style="width: 512px; height: 512px; opacity: 1;"
   xml:space="preserve"
   sodipodi:docname="icon_file-pdf-a-hover.svg"
   inkscape:version="0.92.4 (5da689c313, 2019-01-14)"
   inkscape:export-filename="C:\Users\h-moriyama\★Folder\02_共通データ\カスタマイズ (iconn)\アイコンシステムデザイン\アイコン\icon_file-pdf-a-hover.png"
   inkscape:export-xdpi="96"
   inkscape:export-ydpi="96"><metadata
   id="metadata23"><rdf:RDF><cc:Work
       rdf:about=""><dc:format>image/svg+xml</dc:format><dc:type
         rdf:resource="http://purl.org/dc/dcmitype/StillImage" /><dc:title /></cc:Work></rdf:RDF></metadata><defs
   id="defs21">
	
	
	
	
	
	
</defs><sodipodi:namedview
   pagecolor="#ffffff"
   bordercolor="#666666"
   borderopacity="1"
   objecttolerance="10"
   gridtolerance="10"
   guidetolerance="10"
   inkscape:pageopacity="0"
   inkscape:pageshadow="2"
   inkscape:window-width="1562"
   inkscape:window-height="816"
   id="namedview19"
   showgrid="false"
   inkscape:snap-text-baseline="false"
   inkscape:snap-bbox="true"
   inkscape:bbox-paths="false"
   inkscape:snap-intersection-paths="true"
   inkscape:zoom="0.65186406"
   inkscape:cx="-77.678434"
   inkscape:cy="129.46881"
   inkscape:window-x="108"
   inkscape:window-y="1150"
   inkscape:window-maximized="0"
   inkscape:current-layer="_x32_"
   inkscape:snap-bbox-midpoints="true"
   inkscape:snap-object-midpoints="true"
   inkscape:snap-midpoints="true"
   inkscape:snap-bbox-edge-midpoints="false" />
<style
   type="text/css"
   id="style2">
	.st0{fill:#4B4B4B;}
</style>


<path
   inkscape:connector-curvature="0"
   id="path4"
   style="fill:#ff5252;fill-opacity:1"
   d="M 189.031,111.069 V 6.177 L 68.398,126.817 h 104.884 c 11.336,0 15.749,-4.413 15.749,-15.748 z"
   class="st0" />
<flowRoot
   xml:space="preserve"
   id="flowRoot4555"
   style="font-style:normal;font-weight:normal;font-size:40px;line-height:1.25;font-family:sans-serif;letter-spacing:0px;word-spacing:0px;fill:#c8c4b7;fill-opacity:1;stroke:none"><flowRegion
     id="flowRegion4557"
     style="fill:#c8c4b7"><rect
       id="rect4559"
       width="409.5946"
       height="220.90495"
       x="573.73926"
       y="258.87973"
       style="fill:#c8c4b7" /></flowRegion><flowPara
     id="flowPara4561" /></flowRoot><flowRoot
   xml:space="preserve"
   id="flowRoot4563"
   style="fill:black;fill-opacity:1;stroke:none;font-family:sans-serif;font-style:normal;font-weight:normal;font-size:40px;line-height:1.25;letter-spacing:0px;word-spacing:0px"><flowRegion
     id="flowRegion4565"><rect
       id="rect4567"
       width="309.88055"
       height="182.55341"
       x="99.714043"
       y="200.58537" /></flowRegion><flowPara
     id="flowPara4569" /></flowRoot><flowRoot
   xml:space="preserve"
   id="flowRoot4571"
   style="fill:black;fill-opacity:1;stroke:none;font-family:sans-serif;font-style:normal;font-weight:normal;font-size:40px;line-height:1.25;letter-spacing:0px;word-spacing:0px"><flowRegion
     id="flowRegion4573"><rect
       id="rect4575"
       width="237.77963"
       height="139.59966"
       x="104.31623"
       y="327.91254" /></flowRegion><flowPara
     id="flowPara4577" /></flowRoot><flowRoot
   xml:space="preserve"
   id="flowRoot4587"
   style="fill:black;fill-opacity:1;stroke:none;font-family:sans-serif;font-style:normal;font-weight:normal;font-size:40px;line-height:1.25;letter-spacing:0px;word-spacing:0px"><flowRegion
     id="flowRegion4589"><rect
       id="rect4591"
       width="233.17744"
       height="111.98654"
       x="161.07652"
       y="223.59631" /></flowRegion><flowPara
     id="flowPara4593" /></flowRoot>
<path
   style="fill:#ff5252;fill-opacity:1;stroke-width:0.76703107"
   d="m 79.311786,511.20037 c -6.680372,-1.43663 -11.553472,-5.23105 -14.304125,-11.13784 l -1.788541,-3.84074 -0.0075,-172.75293 -0.0075,-172.75295 65.02276,-0.21256 65.02276,-0.21258 5.09497,-2.5086 c 5.83644,-2.8737 9.20457,-6.34288 12.05193,-12.4135 l 1.99513,-4.25367 0.20847,-65.39954 0.20847,-65.39953516 111.01104,0.20189246 111.01104,0.20189247 3.06812,1.65860583 c 4.07745,2.2042355 7.61726,6.0051431 9.52765,10.2303764 1.55863,3.447273 1.56063,3.754467 1.57746,242.820458 0.0186,263.5043 0.40026,242.93907 -4.6224,249.03243 -1.26244,1.53156 -4.27299,3.7558 -6.69012,4.94275 l -4.39478,2.15809 -175.65012,0.10764 C 161.03895,511.72926 80.788321,511.5179 79.311786,511.20037 Z M 149.87865,314.43543 V 296.4102 h 10.56679 c 24.55438,0 33.68445,-3.50012 39.99006,-15.33066 4.05691,-7.61154 4.48076,-20.70868 0.92996,-28.73587 -1.85897,-4.2025 -7.06689,-9.93 -11.17356,-12.2883 -5.2804,-3.03233 -9.82171,-3.4736 -35.74882,-3.4736 h -24.50724 v 47.93944 47.93945 h 9.9714 9.97141 z m 121.95794,16.15802 c 11.07565,-3.53702 17.89562,-9.33699 22.68312,-19.29063 3.71781,-7.72962 5.0447,-14.81112 5.02667,-26.82667 -0.0186,-12.40634 -1.4073,-19.48163 -5.42227,-27.62616 -5.20223,-10.55297 -13.9728,-17.53216 -24.50155,-19.49714 -2.27238,-0.42409 -14.61199,-0.77108 -27.42136,-0.77108 h -23.28976 v 48.01188 48.01188 l 24.35324,-0.33242 c 20.47608,-0.2795 25.02487,-0.54691 28.57191,-1.67966 z m 63.66358,-18.45912 v -20.32632 h 19.94281 19.94281 v -8.43734 -8.43735 h -19.94281 -19.94281 v -11.12195 -11.12195 h 23.01093 23.01094 v -8.05382 -8.05383 H 348.5397 315.55736 v 47.93944 47.93945 h 9.97141 9.9714 z"
   id="path843"
   inkscape:connector-curvature="0" /><path
   style="fill:#ff5252;fill-opacity:1;stroke-width:0.76703107"
   d="m 238.85425,284.22621 v -31.53679 l 3.25989,0.036 c 11.86162,0.13117 22.59789,1.34238 25.62134,2.89046 7.97513,4.08347 11.28925,12.44349 11.30675,28.52177 0.0196,18.06472 -3.1127,25.74417 -12.19134,29.88902 -1.53648,0.70148 -6.57021,1.16449 -15.14887,1.39342 l -12.84777,0.34285 z"
   id="path845"
   inkscape:connector-curvature="0" /><path
   style="fill:#ff5252;fill-opacity:1;stroke-width:0.76703107"
   d="M 149.87865,266.15973 V 252.5755 l 11.69722,0.5156 c 9.27137,0.40868 12.36728,0.82946 14.92818,2.02896 9.27378,4.34378 8.97877,18.14606 -0.47737,22.33462 -2.84982,1.26232 -5.67627,1.62897 -14.83432,1.92436 l -11.31371,0.36491 z"
   id="path847"
   inkscape:connector-curvature="0" /></svg>