<!--?xml version="1.0" encoding="utf-8"?-->
<!-- Generator: Adobe Illustrator 18.1.1, SVG Export Plug-In . SVG Version: 6.00 Build 0)  -->

<svg version="1.1" id="_x32_" xmlns="http://www.w3.org/2000/svg" xmlns:xlink="http://www.w3.org/1999/xlink" x="0px" y="0px" viewBox="0 0 512 512" style="width: 512px; height: 512px; opacity: 1;" xml:space="preserve">
<style type="text/css">
	.st0{fill:#4B4B4B;}
</style>
<g>
	<path class="st0" d="M256,0C114.617,0,0,114.61,0,256c0,141.375,114.617,256,256,256c141.382,0,256-114.625,256-256
		C512,114.61,397.382,0,256,0z M197.172,373.641h-58.821v-58.812h58.821V373.641z M197.172,285.406h-58.821v-58.828h58.821V285.406z
		 M197.172,197.172h-58.821V138.36h58.821V197.172z M285.406,373.641h-58.813v-58.812h58.813V373.641z M285.406,285.406h-58.813
		v-58.828h58.813V285.406z M285.406,197.172h-58.813V138.36h58.813V197.172z M373.641,373.641h-58.813v-58.812h58.813V373.641z
		 M373.641,285.406h-58.813v-58.828h58.813V285.406z M373.641,197.172h-58.813V138.36h58.813V197.172z" style="fill: rgb(255, 255, 255);"></path>
</g>
</svg>
