<?xml version="1.0" encoding="UTF-8" standalone="no"?>
<!--?xml version="1.0" encoding="utf-8"?-->

<!-- Generator: Adobe Illustrator 18.0.0, SVG Export Plug-In . SVG Version: 6.00 Build 0)  -->

<svg
   xmlns:dc="http://purl.org/dc/elements/1.1/"
   xmlns:cc="http://creativecommons.org/ns#"
   xmlns:rdf="http://www.w3.org/1999/02/22-rdf-syntax-ns#"
   xmlns:svg="http://www.w3.org/2000/svg"
   xmlns="http://www.w3.org/2000/svg"
   xmlns:sodipodi="http://sodipodi.sourceforge.net/DTD/sodipodi-0.dtd"
   xmlns:inkscape="http://www.inkscape.org/namespaces/inkscape"
   version="1.1"
   id="_x32_"
   x="0px"
   y="0px"
   viewBox="0 0 512 512"
   style="width: 512px; height: 512px; opacity: 1;"
   xml:space="preserve"
   sodipodi:docname="icon-folder-ul.svg"
   inkscape:version="0.92.4 (5da689c313, 2019-01-14)"
   inkscape:export-filename="C:\Users\h-moriyama\★Folder\02_共通データ\カスタマイズ (iconn)\アイコンシステムデザイン\アイコン\PNG\icon-folder-ul.png"
   inkscape:export-xdpi="96"
   inkscape:export-ydpi="96"><metadata
   id="metadata13"><rdf:RDF><cc:Work
       rdf:about=""><dc:format>image/svg+xml</dc:format><dc:type
         rdf:resource="http://purl.org/dc/dcmitype/StillImage" /><dc:title /></cc:Work></rdf:RDF></metadata><defs
   id="defs11">
	
</defs><sodipodi:namedview
   pagecolor="#ffffff"
   bordercolor="#666666"
   borderopacity="1"
   objecttolerance="10"
   gridtolerance="10"
   guidetolerance="10"
   inkscape:pageopacity="0"
   inkscape:pageshadow="2"
   inkscape:window-width="1214"
   inkscape:window-height="750"
   id="namedview9"
   showgrid="false"
   inkscape:snap-bbox="true"
   inkscape:bbox-nodes="true"
   inkscape:zoom="0.65186406"
   inkscape:cx="157.61378"
   inkscape:cy="78.323879"
   inkscape:window-x="889"
   inkscape:window-y="1377"
   inkscape:window-maximized="0"
   inkscape:current-layer="_x32_"
   inkscape:snap-bbox-midpoints="true" />
<style
   type="text/css"
   id="style2">
	.st0{fill:#4B4B4B;}
</style>
<path
   style="fill:#ccae62;fill-opacity:1;stroke-width:2.16949153"
   d="M 13.534565,475.58264 C 0.52156898,468.52188 1.0327164,476.58347 1.0327164,278.40851 V 97.148232 H 116.64908 232.26543 l 30.98861,-32.542373 30.9886,-32.542372 h 108.3103 108.31028 V 245.86614 c 0,234.73236 0.67335,222.77884 -12.94594,229.82163 -5.57715,2.88406 -35.54833,3.28023 -242.40395,3.2041 -204.550341,-0.0753 -236.832223,-0.51675 -241.978765,-3.30923 z m 342.865765,-74.16322 0.65575,-11.38983 H 256.06135 155.06661 v 10.48587 c 0,5.76724 0.66058,11.14645 1.46796,11.95383 0.80737,0.80738 45.95992,1.21416 100.33899,0.90396 l 98.87102,-0.564 z m -60.79089,-40.06734 0.61065,-25.42325 24.74915,-0.61065 24.74917,-0.61063 -43.51289,-35.79661 c -23.93209,-19.68813 -44.72925,-35.79661 -46.2159,-35.79661 -1.48664,0 -22.49144,16.35255 -46.67733,36.33899 l -43.97437,36.33898 h 25.23723 25.23723 v 24.58756 c 0,13.52318 0.67263,25.2602 1.49471,26.0823 0.82211,0.82209 18.63906,1.22887 39.59322,0.90397 l 38.09851,-0.59078 z M 465.3039,167.65671 V 142.70755 H 255.94797 46.592038 v 24.94916 24.94915 H 255.94797 465.3039 Z"
   id="path13"
   inkscape:connector-curvature="0" />
</svg>