<?xml version="1.0" encoding="UTF-8" standalone="no"?>
<!--?xml version="1.0" encoding="utf-8"?-->

<!-- Generator: Adobe Illustrator 18.1.1, SVG Export Plug-In . SVG Version: 6.00 Build 0)  -->

<svg
   xmlns:dc="http://purl.org/dc/elements/1.1/"
   xmlns:cc="http://creativecommons.org/ns#"
   xmlns:rdf="http://www.w3.org/1999/02/22-rdf-syntax-ns#"
   xmlns:svg="http://www.w3.org/2000/svg"
   xmlns="http://www.w3.org/2000/svg"
   xmlns:sodipodi="http://sodipodi.sourceforge.net/DTD/sodipodi-0.dtd"
   xmlns:inkscape="http://www.inkscape.org/namespaces/inkscape"
   version="1.1"
   id="_x32_"
   x="0px"
   y="0px"
   viewBox="0 0 512 512"
   style="width: 512px; height: 512px; opacity: 1;"
   xml:space="preserve"
   sodipodi:docname="icon_file-disabl1.svg"
   inkscape:version="0.92.4 (5da689c313, 2019-01-14)"
   inkscape:export-filename="C:\Users\h-moriyama\★Folder\02_共通データ\カスタマイズ (iconn)\アイコンシステムデザイン\アイコン\アイコンファイル作成\icon_file-0spng.png"
   inkscape:export-xdpi="96"
   inkscape:export-ydpi="96"><metadata
   id="metadata23"><rdf:RDF><cc:Work
       rdf:about=""><dc:format>image/svg+xml</dc:format><dc:type
         rdf:resource="http://purl.org/dc/dcmitype/StillImage" /><dc:title></dc:title></cc:Work></rdf:RDF></metadata><defs
   id="defs21">
	
	
	
	
	
	
</defs><sodipodi:namedview
   pagecolor="#ffffff"
   bordercolor="#666666"
   borderopacity="1"
   objecttolerance="10"
   gridtolerance="10"
   guidetolerance="10"
   inkscape:pageopacity="0"
   inkscape:pageshadow="2"
   inkscape:window-width="1562"
   inkscape:window-height="783"
   id="namedview19"
   showgrid="false"
   inkscape:snap-text-baseline="false"
   inkscape:snap-bbox="true"
   inkscape:bbox-paths="false"
   inkscape:snap-intersection-paths="true"
   inkscape:zoom="0.32593203"
   inkscape:cx="-142.52096"
   inkscape:cy="157.14774"
   inkscape:window-x="88"
   inkscape:window-y="1197"
   inkscape:window-maximized="0"
   inkscape:current-layer="_x32_"
   inkscape:snap-bbox-midpoints="true"
   inkscape:snap-object-midpoints="true"
   inkscape:snap-midpoints="true"
   inkscape:snap-bbox-edge-midpoints="false" />
<style
   type="text/css"
   id="style2">
	.st0{fill:#4B4B4B;}
</style>
<path
   style="fill:#d9d9d9;fill-opacity:1;stroke-width:3.06812429"
   d="m 71.703174,505.93683 -6.818925,-4.77618 V 326.45155 151.74243 h 64.632311 c 40.43077,0 66.95177,-1.24133 70.82661,-3.31508 12.52877,-6.7052 14.87917,-20.22106 14.87917,-85.561984 V 1.4043341 h 110.45248 c 106.36165,0 110.67973,0.2272682 116.58872,6.1362487 6.03267,6.0326832 6.13625,10.2270812 6.13625,248.5180772 0,238.291 -0.1037,242.4854 -6.13625,248.51807 -5.99585,5.99585 -10.22707,6.13625 -184.93884,6.13625 -156.86466,0 -179.639239,-0.58601 -185.621526,-4.77615 z m 155.794506,-153.23511 29.02883,-29.15004 29.28055,29.17069 29.28055,29.17068 18.25476,-18.44725 18.25476,-18.44725 -29.00821,-29.12933 -29.00821,-29.12932 29.04091,-29.16217 29.04092,-29.16217 -18.40875,-18.40875 -18.40875,-18.40874 -29.04375,29.16502 -29.04376,29.16502 -29.95259,-29.84019 -29.95259,-29.8402 -18.44877,18.25626 -18.44877,18.25627 29.8773,29.98982 29.87729,29.98983 -29.8459,29.9583 -29.84589,29.95833 17.59761,17.5976 c 9.67869,9.6787 18.33022,17.59762 19.22562,17.59762 0.89541,0 14.69098,-13.11752 30.65684,-29.15003 z"
   id="path859"
   inkscape:connector-curvature="0" />

<path
   inkscape:connector-curvature="0"
   id="path4"
   style="fill:#d9d9d9;fill-opacity:1"
   d="M 189.031,111.069 V 6.177 L 68.398,126.817 h 104.884 c 11.336,0 15.749,-4.413 15.749,-15.748 z"
   class="st0" />
<flowRoot
   xml:space="preserve"
   id="flowRoot4555"
   style="font-style:normal;font-weight:normal;font-size:40px;line-height:1.25;font-family:sans-serif;letter-spacing:0px;word-spacing:0px;fill:#c8c4b7;fill-opacity:1;stroke:none"><flowRegion
     id="flowRegion4557"
     style="fill:#c8c4b7"><rect
       id="rect4559"
       width="409.5946"
       height="220.90495"
       x="573.73926"
       y="258.87973"
       style="fill:#c8c4b7" /></flowRegion><flowPara
     id="flowPara4561" /></flowRoot><flowRoot
   xml:space="preserve"
   id="flowRoot4563"
   style="fill:black;fill-opacity:1;stroke:none;font-family:sans-serif;font-style:normal;font-weight:normal;font-size:40px;line-height:1.25;letter-spacing:0px;word-spacing:0px"><flowRegion
     id="flowRegion4565"><rect
       id="rect4567"
       width="309.88055"
       height="182.55341"
       x="99.714043"
       y="200.58537" /></flowRegion><flowPara
     id="flowPara4569" /></flowRoot><flowRoot
   xml:space="preserve"
   id="flowRoot4571"
   style="fill:black;fill-opacity:1;stroke:none;font-family:sans-serif;font-style:normal;font-weight:normal;font-size:40px;line-height:1.25;letter-spacing:0px;word-spacing:0px"><flowRegion
     id="flowRegion4573"><rect
       id="rect4575"
       width="237.77963"
       height="139.59966"
       x="104.31623"
       y="327.91254" /></flowRegion><flowPara
     id="flowPara4577" /></flowRoot><flowRoot
   xml:space="preserve"
   id="flowRoot4587"
   style="fill:black;fill-opacity:1;stroke:none;font-family:sans-serif;font-style:normal;font-weight:normal;font-size:40px;line-height:1.25;letter-spacing:0px;word-spacing:0px"><flowRegion
     id="flowRegion4589"><rect
       id="rect4591"
       width="233.17744"
       height="111.98654"
       x="161.07652"
       y="223.59631" /></flowRegion><flowPara
     id="flowPara4593" /></flowRoot>
</svg>