<?xml version="1.0" encoding="UTF-8" standalone="no"?>
<!--?xml version="1.0" encoding="utf-8"?-->

<!-- Generator: Adobe Illustrator 18.0.0, SVG Export Plug-In . SVG Version: 6.00 Build 0)  -->

<svg
   xmlns:dc="http://purl.org/dc/elements/1.1/"
   xmlns:cc="http://creativecommons.org/ns#"
   xmlns:rdf="http://www.w3.org/1999/02/22-rdf-syntax-ns#"
   xmlns:svg="http://www.w3.org/2000/svg"
   xmlns="http://www.w3.org/2000/svg"
   xmlns:sodipodi="http://sodipodi.sourceforge.net/DTD/sodipodi-0.dtd"
   xmlns:inkscape="http://www.inkscape.org/namespaces/inkscape"
   version="1.1"
   id="_x32_"
   x="0px"
   y="0px"
   viewBox="0 0 512 512"
   style="width: 512px; height: 512px; opacity: 1;"
   xml:space="preserve"
   sodipodi:docname="icon_edit.svg"
   inkscape:version="0.92.4 (5da689c313, 2019-01-14)"
   inkscape:export-filename="C:\Users\h-moriyama\Desktop\icon_edit.png"
   inkscape:export-xdpi="96"
   inkscape:export-ydpi="96"><metadata
   id="metadata15"><rdf:RDF><cc:Work
       rdf:about=""><dc:format>image/svg+xml</dc:format><dc:type
         rdf:resource="http://purl.org/dc/dcmitype/StillImage" /><dc:title /></cc:Work></rdf:RDF></metadata><defs
   id="defs13">
	
	
</defs><sodipodi:namedview
   pagecolor="#ffffff"
   bordercolor="#666666"
   borderopacity="1"
   objecttolerance="10"
   gridtolerance="10"
   guidetolerance="10"
   inkscape:pageopacity="0"
   inkscape:pageshadow="2"
   inkscape:window-width="1120"
   inkscape:window-height="480"
   id="namedview11"
   showgrid="false"
   inkscape:snap-bbox="true"
   inkscape:snap-bbox-midpoints="true"
   inkscape:zoom="0.33941125"
   inkscape:cx="-237.73972"
   inkscape:cy="179.40976"
   inkscape:window-x="361"
   inkscape:window-y="1472"
   inkscape:window-maximized="0"
   inkscape:current-layer="_x32_" />
<style
   type="text/css"
   id="style2">
	.st0{fill:#4B4B4B;}
</style>
<path
   style="fill:#227093;fill-opacity:1;stroke-width:1.18358588"
   d="M 256 0 A 256 256 0 0 0 0 256 A 256 256 0 0 0 256 512 A 256 256 0 0 0 512 256 A 256 256 0 0 0 256 0 z M 351.88281 116 C 356.49761 116 361.11219 117.75432 364.61328 121.26172 L 390.74805 147.44727 C 397.74968 154.4626 397.74968 165.93974 390.74805 172.95508 L 377.69922 186.0293 C 377.68892 186.0393 377.67211 186.0393 377.66211 186.0293 L 326.10156 134.37109 C 326.09156 134.36069 326.09156 134.34594 326.10156 134.33594 L 339.15234 121.26172 C 342.65343 117.75432 347.26801 116 351.88281 116 z M 309.69922 138.79883 C 309.70952 138.78883 309.72438 138.78883 309.73438 138.79883 L 372.71875 201.90039 C 372.72875 201.91079 372.72875 201.92555 372.71875 201.93555 L 316.29102 258.4707 C 315.73813 259.02463 315.2416 259.52197 315.1875 259.57617 C 315.13336 259.63041 314.63547 260.12771 314.08203 260.68164 L 207.58203 367.38281 C 207.02913 367.93674 206.57812 368.38867 206.57812 368.38867 C 206.57813 368.38867 205.96492 368.57621 205.2168 368.80469 L 116.0332 395.99805 C 116.0135 396.00405 115.994 395.9865 116 395.9668 L 143.55664 305.25781 C 143.55864 305.25381 143.5595 305.25105 143.5625 305.24805 L 251.0625 197.54492 C 251.61539 196.991 252.11192 196.49365 252.16602 196.43945 C 252.22016 196.38521 252.71859 195.88791 253.27148 195.33398 L 309.69922 138.79883 z M 149.89062 330.53711 C 149.87693 330.52341 149.85266 330.53023 149.84766 330.54883 L 136.08984 375.8418 C 136.08324 375.8621 136.10139 375.87905 136.12109 375.87305 L 181.32812 362.08789 C 181.34703 362.08249 181.35354 362.05862 181.33984 362.04492 L 149.89062 330.53711 z "
   id="path825" />
</svg>