<?xml version="1.0" encoding="UTF-8" standalone="no"?>
<!--?xml version="1.0" encoding="utf-8"?-->

<!-- Generator: Adobe Illustrator 18.0.0, SVG Export Plug-In . SVG Version: 6.00 Build 0)  -->

<svg
   xmlns:dc="http://purl.org/dc/elements/1.1/"
   xmlns:cc="http://creativecommons.org/ns#"
   xmlns:rdf="http://www.w3.org/1999/02/22-rdf-syntax-ns#"
   xmlns:svg="http://www.w3.org/2000/svg"
   xmlns="http://www.w3.org/2000/svg"
   xmlns:sodipodi="http://sodipodi.sourceforge.net/DTD/sodipodi-0.dtd"
   xmlns:inkscape="http://www.inkscape.org/namespaces/inkscape"
   version="1.1"
   id="_x32_"
   x="0px"
   y="0px"
   viewBox="0 0 512 512"
   style="width: 512px; height: 512px; opacity: 1;"
   xml:space="preserve"
   sodipodi:docname="icon_cancelled_disabled.svg"
   inkscape:version="0.92.4 (5da689c313, 2019-01-14)"
   inkscape:export-filename="C:\Users\h-moriyama\Desktop\icon_edit.png"
   inkscape:export-xdpi="96"
   inkscape:export-ydpi="96"><metadata
   id="metadata15"><rdf:RDF><cc:Work
       rdf:about=""><dc:format>image/svg+xml</dc:format><dc:type
         rdf:resource="http://purl.org/dc/dcmitype/StillImage" /><dc:title /></cc:Work></rdf:RDF></metadata><defs
   id="defs13">
	
	
</defs><sodipodi:namedview
   pagecolor="#ffffff"
   bordercolor="#666666"
   borderopacity="1"
   objecttolerance="10"
   gridtolerance="10"
   guidetolerance="10"
   inkscape:pageopacity="0"
   inkscape:pageshadow="2"
   inkscape:window-width="1920"
   inkscape:window-height="976"
   id="namedview11"
   showgrid="false"
   inkscape:snap-bbox="true"
   inkscape:snap-bbox-midpoints="true"
   inkscape:zoom="0.95999999"
   inkscape:cx="533.59196"
   inkscape:cy="243.06697"
   inkscape:window-x="-8"
   inkscape:window-y="-8"
   inkscape:window-maximized="1"
   inkscape:current-layer="_x32_" />
<style
   type="text/css"
   id="style2">
	.st0{fill:#4B4B4B;}
</style>
<g
   id="g5113"
   transform="translate(281.25,117.70834)"><path
     inkscape:connector-curvature="0"
     id="path825"
     d="m -24.218769,-118.01043 a 256,256 0 0 0 -255.999991,255.99999 256,256 0 0 0 255.999991,256 256,256 0 0 0 255.999989,-256 256,256 0 0 0 -255.999989,-255.99999 z M 71.664023,-2.0103975 c 4.6148,0 9.2294,1.75432004 12.7305,5.2617167 L 110.52932,29.436872 c 7.0016,7.01533 7.0016,18.492464 0,25.507798 L 97.480423,68.018881 c -0.01,0.01 -0.027,0.01 -0.037,0 L 45.882896,16.360689 c -0.01,-0.0104 -0.01,-0.0251 0,-0.0352 L 58.933676,3.2512692 c 3.501087,-3.50739666 8.115647,-5.2617167 12.730447,-5.2617167 z M 29.480456,20.788429 c 0.0103,-0.01 0.0252,-0.01 0.0352,0 l 62.984407,63.10153 c 0.01,0.0104 0.01,0.0252 0,0.0352 L 36.072296,140.4603 c -0.55289,0.55393 -1.04942,1.05127 -1.10352,1.10547 -0.0541,0.0542 -0.55203,0.55154 -1.10547,1.10547 l -106.50001,106.70117 c -0.5529,0.55393 -1.00391,1.00586 -1.00391,1.00586 1e-5,0 -0.6132,0.18754 -1.36132,0.41602 l -89.183596,27.19336 c -0.0197,0.006 -0.0392,-0.0115 -0.0332,-0.0312 l 27.55664,-90.70899 c 0.002,-0.004 0.003,-0.007 0.006,-0.01 L -29.156089,79.534342 c 0.55289,-0.55392 1.04942,-1.051267 1.10352,-1.105467 0.0541,-0.0542 0.55257,-0.55154 1.10546,-1.10547 z M -130.32815,212.52667 c -0.0137,-0.0137 -0.038,-0.007 -0.043,0.0117 l -13.75782,45.29297 c -0.007,0.0203 0.0116,0.0373 0.0312,0.0312 l 45.207027,-13.78516 c 0.0189,-0.005 0.0254,-0.0293 0.0117,-0.043 z"
     style="fill:#d9d9d9;fill-opacity:1;stroke-width:1.18358588" /></g>
<path
   style="fill:#d9d9d9;fill-opacity:1;stroke-width:1.04166663"
   d="m 117.52598,394.21363 c 0,-0.59735 6.08263,-21.09294 13.51695,-45.54576 l 13.51694,-44.45966 83.09537,-83.10023 83.09535,-83.10024 31.77166,31.77165 31.77165,31.77165 -83.44802,83.44801 -83.44801,83.44801 -44.05538,13.42634 c -24.23046,7.38448 -44.45164,13.42634 -44.93595,13.42634 -0.4843,0 -0.88056,-0.48875 -0.88056,-1.08611 z m 50.31719,-28.24467 14.37969,-4.38444 -15.37147,-15.39714 c -8.45431,-8.46842 -15.53264,-15.23597 -15.72962,-15.03898 -0.30131,0.30131 -6.91441,21.63374 -12.18429,39.30391 l -1.44348,4.84006 7.98474,-2.46949 c 4.39161,-1.35823 14.4556,-4.44249 22.36443,-6.85392 z"
   id="path5115"
   inkscape:connector-curvature="0" /><path
   style="fill:#d9d9d9;fill-opacity:1;stroke-width:1.04166663"
   d="m 234.19265,511.28941 c -10.72929,-1.01564 -31.51074,-4.78977 -42.60432,-7.73743 C 89.717925,476.48424 14.665823,389.90325 2.4346413,285.34205 -1.1707136,254.5208 1.7550099,215.61009 9.8119927,187.22682 l 0.6653063,-2.34375 H 193.94159 377.40587 l -25.26077,-25.27657 -25.26078,-25.27657 8.08125,-7.92872 c 4.44469,-4.36078 9.01875,-8.44082 10.16459,-9.06675 1.51461,-0.82737 -39.50416,-1.14668 -150.26042,-1.16972 -83.78907,-0.0174 -152.336509,-0.38323 -152.327652,-0.81292 0.0089,-0.42969 3.698703,-5.70313 8.199657,-11.71875 C 95.073918,44.382139 159.65945,7.7346694 232.6259,0.42739076 c 15.24922,-1.52714426 47.70554,-0.6930147 62.50425,1.60636364 50.49476,7.8457146 98.64259,31.0666136 135.93751,65.5603866 83.74728,77.457199 106.23961,201.013889 55.1323,302.857099 -20.50888,40.86871 -50.99479,74.82217 -90.54897,100.84823 -11.7438,7.72724 -36.9937,20.27311 -51.53906,25.60812 -12.62683,4.63133 -34.70083,10.20529 -49.50261,12.50003 -10.61455,1.64559 -49.96424,2.8712 -60.41667,1.88179 z"
   id="path5117"
   inkscape:connector-curvature="0" /><flowRoot
   xml:space="preserve"
   id="flowRoot5119"
   style="font-style:normal;font-weight:normal;font-size:40px;line-height:1.25;font-family:sans-serif;letter-spacing:0px;word-spacing:0px;fill:#000000;fill-opacity:1;stroke:none"><flowRegion
     id="flowRegion5121"><rect
       id="rect5123"
       width="11.458334"
       height="46.875"
       x="213.54167"
       y="253.66666" /></flowRegion><flowPara
     id="flowPara5125">x</flowPara></flowRoot><text
   xml:space="preserve"
   style="font-style:normal;font-weight:normal;font-size:81.07587433px;line-height:1.25;font-family:sans-serif;letter-spacing:0px;word-spacing:0px;fill:#000000;fill-opacity:1;stroke:none;stroke-width:2.02689672"
   x="245.91618"
   y="374.21307"
   id="text5129"
   transform="scale(1.066917,0.93728003)"><tspan
     sodipodi:role="line"
     id="tspan5127"
     x="245.91618"
     y="374.21307"
     style="font-style:normal;font-variant:normal;font-weight:bold;font-stretch:normal;font-size:389.16418457px;line-height:674.11999512px;font-family:Arial;-inkscape-font-specification:'Arial Bold';text-align:center;text-anchor:middle;fill:#ffffff;stroke-width:2.02689672">x</tspan></text>
</svg>