<?xml version="1.0" encoding="UTF-8" standalone="no"?>
<!--?xml version="1.0" encoding="utf-8"?-->

<!-- Generator: Adobe Illustrator 18.0.0, SVG Export Plug-In . SVG Version: 6.00 Build 0)  -->

<svg
   xmlns:dc="http://purl.org/dc/elements/1.1/"
   xmlns:cc="http://creativecommons.org/ns#"
   xmlns:rdf="http://www.w3.org/1999/02/22-rdf-syntax-ns#"
   xmlns:svg="http://www.w3.org/2000/svg"
   xmlns="http://www.w3.org/2000/svg"
   xmlns:sodipodi="http://sodipodi.sourceforge.net/DTD/sodipodi-0.dtd"
   xmlns:inkscape="http://www.inkscape.org/namespaces/inkscape"
   version="1.1"
   id="_x32_"
   x="0px"
   y="0px"
   viewBox="0 0 512 512"
   style="width: 512px; height: 512px; opacity: 1;"
   xml:space="preserve"
   sodipodi:docname="icon-folder-dl.svg"
   inkscape:version="0.92.4 (5da689c313, 2019-01-14)"
   inkscape:export-filename="C:\Users\h-moriyama\★Folder\02_共通データ\カスタマイズ (iconn)\アイコンシステムデザイン\アイコン\PNG\icon-folder-dl.png"
   inkscape:export-xdpi="96"
   inkscape:export-ydpi="96"><metadata
   id="metadata13"><rdf:RDF><cc:Work
       rdf:about=""><dc:format>image/svg+xml</dc:format><dc:type
         rdf:resource="http://purl.org/dc/dcmitype/StillImage" /><dc:title></dc:title></cc:Work></rdf:RDF></metadata><defs
   id="defs11">
	
</defs><sodipodi:namedview
   pagecolor="#ffffff"
   bordercolor="#666666"
   borderopacity="1"
   objecttolerance="10"
   gridtolerance="10"
   guidetolerance="10"
   inkscape:pageopacity="0"
   inkscape:pageshadow="2"
   inkscape:window-width="1214"
   inkscape:window-height="750"
   id="namedview9"
   showgrid="false"
   inkscape:snap-bbox="true"
   inkscape:bbox-nodes="true"
   inkscape:zoom="0.65186406"
   inkscape:cx="297.20192"
   inkscape:cy="134.09014"
   inkscape:window-x="253"
   inkscape:window-y="265"
   inkscape:window-maximized="0"
   inkscape:current-layer="_x32_"
   inkscape:snap-bbox-midpoints="true" />
<style
   type="text/css"
   id="style2">
	.st0{fill:#4B4B4B;}
</style>

<path
   style="fill:#ccae62;fill-opacity:1;stroke-width:1.53406215"
   d="m 14.212817,475.96454 c -3.349986,-1.89738 -7.6645361,-5.78491 -9.5878883,-8.63897 L 1.1279248,462.13636 V 279.04281 95.949234 H 116.58014 232.03235 l 31.42021,-31.448275 31.4202,-31.448274 h 108.54893 108.54894 l -0.009,210.550035 c -0.006,140.10017 -0.53871,212.45896 -1.59301,216.25513 -2.03098,7.31283 -8.38367,14.84659 -14.7687,17.51442 -4.15672,1.7368 -44.98091,2.08821 -240.15235,2.06727 L 20.303702,479.41431 Z M 357.03035,401.22761 V 390.48917 H 256.54928 156.0682 v 10.73844 10.73843 h 100.48108 100.48107 z m -54.96855,-52.15812 43.60529,-36.05046 -24.99961,-0.42061 -24.99962,-0.42061 v -25.27493 -25.27493 h -39.11858 -39.11859 v 25.27493 25.27493 l -25.49581,0.42061 -25.4958,0.42061 44.19068,36.49135 c 24.30487,20.07026 45.00879,36.29297 46.00871,36.05046 0.99991,-0.24249 21.44042,-16.66359 45.42333,-36.49135 z M 464.4147,168.05016 v -24.545 H 255.78224 47.14979 v 24.545 24.54499 H 255.78224 464.4147 Z"
   id="path819"
   inkscape:connector-curvature="0" /></svg>