<?xml version="1.0" encoding="UTF-8" standalone="no"?>
<!--?xml version="1.0" encoding="utf-8"?-->

<!-- Generator: Adobe Illustrator 18.1.1, SVG Export Plug-In . SVG Version: 6.00 Build 0)  -->

<svg
   xmlns:dc="http://purl.org/dc/elements/1.1/"
   xmlns:cc="http://creativecommons.org/ns#"
   xmlns:rdf="http://www.w3.org/1999/02/22-rdf-syntax-ns#"
   xmlns:svg="http://www.w3.org/2000/svg"
   xmlns="http://www.w3.org/2000/svg"
   xmlns:sodipodi="http://sodipodi.sourceforge.net/DTD/sodipodi-0.dtd"
   xmlns:inkscape="http://www.inkscape.org/namespaces/inkscape"
   version="1.1"
   id="_x32_"
   x="0px"
   y="0px"
   viewBox="0 0 512 512"
   style="width: 512px; height: 512px; opacity: 1;"
   xml:space="preserve"
   sodipodi:docname="icon_file-pdf-ul-hover.svg"
   inkscape:version="0.92.4 (5da689c313, 2019-01-14)"
   inkscape:export-filename="C:\Users\h-moriyama\★Folder\02_共通データ\カスタマイズ (iconn)\アイコンシステムデザイン\アイコン\PNG\icon_file-pdf-ul-hover.png"
   inkscape:export-xdpi="96"
   inkscape:export-ydpi="96"><metadata
   id="metadata23"><rdf:RDF><cc:Work
       rdf:about=""><dc:format>image/svg+xml</dc:format><dc:type
         rdf:resource="http://purl.org/dc/dcmitype/StillImage" /><dc:title></dc:title></cc:Work></rdf:RDF></metadata><defs
   id="defs21">
	
	
	
	
	
	
</defs><sodipodi:namedview
   pagecolor="#ffffff"
   bordercolor="#666666"
   borderopacity="1"
   objecttolerance="10"
   gridtolerance="10"
   guidetolerance="10"
   inkscape:pageopacity="0"
   inkscape:pageshadow="2"
   inkscape:window-width="1562"
   inkscape:window-height="800"
   id="namedview19"
   showgrid="false"
   inkscape:snap-text-baseline="false"
   inkscape:snap-bbox="true"
   inkscape:bbox-paths="false"
   inkscape:snap-intersection-paths="true"
   inkscape:zoom="0.5"
   inkscape:cx="335.24226"
   inkscape:cy="245.87179"
   inkscape:window-x="328"
   inkscape:window-y="1185"
   inkscape:window-maximized="0"
   inkscape:current-layer="_x32_"
   inkscape:snap-bbox-midpoints="true"
   inkscape:snap-object-midpoints="true"
   inkscape:snap-midpoints="true"
   inkscape:snap-bbox-edge-midpoints="false" />
<style
   type="text/css"
   id="style2">
	.st0{fill:#4B4B4B;}
</style>



<path
   inkscape:connector-curvature="0"
   id="path4"
   style="fill:#ff5252;fill-opacity:1"
   d="M 189.031,111.069 V 6.177 L 68.398,126.817 h 104.884 c 11.336,0 15.749,-4.413 15.749,-15.748 z"
   class="st0" />
<flowRoot
   xml:space="preserve"
   id="flowRoot4555"
   style="font-style:normal;font-weight:normal;font-size:40px;line-height:1.25;font-family:sans-serif;letter-spacing:0px;word-spacing:0px;fill:#c8c4b7;fill-opacity:1;stroke:none"><flowRegion
     id="flowRegion4557"
     style="fill:#c8c4b7"><rect
       id="rect4559"
       width="409.5946"
       height="220.90495"
       x="573.73926"
       y="258.87973"
       style="fill:#c8c4b7" /></flowRegion><flowPara
     id="flowPara4561" /></flowRoot><flowRoot
   xml:space="preserve"
   id="flowRoot4563"
   style="fill:black;fill-opacity:1;stroke:none;font-family:sans-serif;font-style:normal;font-weight:normal;font-size:40px;line-height:1.25;letter-spacing:0px;word-spacing:0px"><flowRegion
     id="flowRegion4565"><rect
       id="rect4567"
       width="309.88055"
       height="182.55341"
       x="99.714043"
       y="200.58537" /></flowRegion><flowPara
     id="flowPara4569" /></flowRoot><flowRoot
   xml:space="preserve"
   id="flowRoot4571"
   style="fill:black;fill-opacity:1;stroke:none;font-family:sans-serif;font-style:normal;font-weight:normal;font-size:40px;line-height:1.25;letter-spacing:0px;word-spacing:0px"><flowRegion
     id="flowRegion4573"><rect
       id="rect4575"
       width="237.77963"
       height="139.59966"
       x="104.31623"
       y="327.91254" /></flowRegion><flowPara
     id="flowPara4577" /></flowRoot><flowRoot
   xml:space="preserve"
   id="flowRoot4587"
   style="fill:black;fill-opacity:1;stroke:none;font-family:sans-serif;font-style:normal;font-weight:normal;font-size:40px;line-height:1.25;letter-spacing:0px;word-spacing:0px"><flowRegion
     id="flowRegion4589"><rect
       id="rect4591"
       width="233.17744"
       height="111.98654"
       x="161.07652"
       y="223.59631" /></flowRegion><flowPara
     id="flowPara4593" /></flowRoot>
<path
   style="fill:#ff5252;fill-opacity:1;stroke-width:2"
   d="m 73.329203,508.1292 c -2.997345,-1.6362 -6.372345,-4.69884 -7.5,-6.80588 -1.355084,-2.532 -2.050283,-62.5355 -2.050283,-176.96248 V 151.22936 h 64.19774 c 73.45384,0 75.4308,-0.35793 82.01205,-14.84828 3.35091,-7.3779 3.70653,-14.17958 3.74629,-71.65172 l 0.0439,-63.5 H 324.93274 436.0866 l 5.84614,5.8461538 5.84616,5.8461542 V 255.96398 499.0063 l -4.82644,5.61154 -4.82642,5.61152 -179.67357,0.43736 c -155.8296,0.37934 -180.396786,0.0426 -185.123287,-2.53752 z M 355.77892,452.22936 v -11 h -100 -100 v 11 11 h 100 100 z m -60.43892,-40.4407 0.56108,-24.4407 25.36988,-0.5593 25.36986,-0.5593 -22.93094,-18.9188 C 311.09784,356.9052 290.73538,340.0552 278.45992,329.8661 l -22.31899,-18.52564 -43.68101,36.0442 c -24.02455,19.8243 -43.981,36.8993 -44.34767,37.94444 -0.39818,1.13498 9.46847,1.90026 24.5,1.90026 h 25.16667 v 25.04318 25.0432 l 38.5,-0.5432 38.5,-0.54318 z M 151.77892,265.5258 v -17.70358 l 16.07859,-1.23988 c 8.84322,-0.68194 19.04581,-2.64794 22.67243,-4.36888 13.44925,-6.38208 19.16416,-26.72426 11.52279,-41.0153 -6.35137,-11.87847 -12.73025,-14.15525 -43.2432,-15.43459 l -27.03061,-1.13333 v 49.29956 49.29956 h 10 10 z m 127,13.22292 c 7.31896,-3.82942 13.314,-10.23578 18.26606,-19.51936 5.60068,-10.49956 5.16436,-39.97018 -0.75876,-51.24842 -5.00232,-9.52497 -14.46158,-18.13148 -22.16144,-20.16362 -2.94022,-0.77597 -16.14586,-1.45071 -29.34586,-1.49941 l -24,-0.0885 -0.53872,45.95672 c -0.29629,25.2762 -0.0539,47.22002 0.53856,48.76406 1.55944,4.06384 49.50366,2.24408 58.00016,-2.20142 z m 58.56996,-17.01936 0.56998,-20.5 h 19.93002 19.93004 v -8 -8 h -20 -20 v -11 -11 h 23.115 23.115 l -0.615,-8.5 -0.615,-8.5 -32.5,-0.54954 -32.5,-0.54955 v 49.15913 49.15912 l 9.5,-0.60958 9.5,-0.60958 z"
   id="path838"
   inkscape:connector-curvature="0" /><path
   style="fill:#ff5252;fill-opacity:1;stroke-width:2"
   d="m 151.77892,216.22936 v -13 h 11.55499 c 14.68426,0 20.44501,3.66298 20.44501,13 0,9.33702 -5.76075,13 -20.44501,13 h -11.55499 z"
   id="path840"
   inkscape:connector-curvature="0" /><path
   style="fill:#ff5252;fill-opacity:1;stroke-width:2"
   d="m 241.77892,234.22936 v -31 h 11.09932 c 22.03074,0 27.7411,7.53056 26.60925,35.09103 -0.65756,16.01143 -1.11317,17.60333 -6.32013,22.08217 -4.67649,4.02254 -7.75901,4.8268 -18.49997,4.8268 h -12.88847 z"
   id="path842"
   inkscape:connector-curvature="0" /></svg>