<?xml version="1.0" encoding="UTF-8" standalone="no"?>
<!--?xml version="1.0" encoding="utf-8"?-->

<!-- Generator: Adobe Illustrator 18.0.0, SVG Export Plug-In . SVG Version: 6.00 Build 0)  -->

<svg
   xmlns:dc="http://purl.org/dc/elements/1.1/"
   xmlns:cc="http://creativecommons.org/ns#"
   xmlns:rdf="http://www.w3.org/1999/02/22-rdf-syntax-ns#"
   xmlns:svg="http://www.w3.org/2000/svg"
   xmlns="http://www.w3.org/2000/svg"
   xmlns:sodipodi="http://sodipodi.sourceforge.net/DTD/sodipodi-0.dtd"
   xmlns:inkscape="http://www.inkscape.org/namespaces/inkscape"
   version="1.1"
   id="_x32_"
   x="0px"
   y="0px"
   viewBox="0 0 512 512"
   style="width: 512px; height: 512px; opacity: 1;"
   xml:space="preserve"
   sodipodi:docname="icon_cancelled.svg"
   inkscape:version="0.92.4 (5da689c313, 2019-01-14)"
   inkscape:export-filename="C:\Users\h-moriyama\Desktop\icon_edit.png"
   inkscape:export-xdpi="96"
   inkscape:export-ydpi="96"><metadata
   id="metadata15"><rdf:RDF><cc:Work
       rdf:about=""><dc:format>image/svg+xml</dc:format><dc:type
         rdf:resource="http://purl.org/dc/dcmitype/StillImage" /><dc:title /></cc:Work></rdf:RDF></metadata><defs
   id="defs13">
	
	
</defs><sodipodi:namedview
   pagecolor="#ffffff"
   bordercolor="#666666"
   borderopacity="1"
   objecttolerance="10"
   gridtolerance="10"
   guidetolerance="10"
   inkscape:pageopacity="0"
   inkscape:pageshadow="2"
   inkscape:window-width="1920"
   inkscape:window-height="976"
   id="namedview11"
   showgrid="false"
   inkscape:snap-bbox="true"
   inkscape:snap-bbox-midpoints="true"
   inkscape:zoom="1.357645"
   inkscape:cx="490.00653"
   inkscape:cy="217.7433"
   inkscape:window-x="-8"
   inkscape:window-y="-8"
   inkscape:window-maximized="1"
   inkscape:current-layer="_x32_" />
<style
   type="text/css"
   id="style2">
	.st0{fill:#4B4B4B;}
</style>
<path
   style="fill:#d40000;fill-opacity:1;stroke-width:1.18358588"
   d="M 254.95833,0 A 256,256 0 0 0 -1.0416653,256 256,256 0 0 0 254.95833,512 256,256 0 0 0 510.95829,256 256,256 0 0 0 254.95833,0 Z m 95.88281,116 c 4.6148,0 9.22938,1.75432 12.73047,5.26172 l 26.13477,26.18555 c 7.00163,7.01533 7.00163,18.49247 0,25.50781 l -13.04883,13.07422 c -0.0103,0.01 -0.0271,0.01 -0.0371,0 l -51.56056,-51.65821 c -0.01,-0.0104 -0.01,-0.0251 0,-0.0352 l 13.05078,-13.07422 c 3.50109,-3.5074 8.11567,-5.26172 12.73047,-5.26172 z m -42.18359,22.79883 c 0.0103,-0.01 0.0252,-0.01 0.0352,0 l 62.98437,63.10156 c 0.01,0.0104 0.01,0.0252 0,0.0352 l -56.42773,56.53515 c -0.55289,0.55393 -1.04942,1.05127 -1.10352,1.10547 -0.0541,0.0542 -0.55203,0.55154 -1.10547,1.10547 l -106.5,106.70117 c -0.5529,0.55393 -1.00391,1.00586 -1.00391,1.00586 1e-5,0 -0.6132,0.18754 -1.36132,0.41602 l -89.1836,27.19336 c -0.0197,0.006 -0.0392,-0.0115 -0.0332,-0.0312 l 27.55664,-90.70899 c 0.002,-0.004 0.003,-0.007 0.006,-0.01 l 107.5,-107.70313 c 0.55289,-0.55392 1.04942,-1.05127 1.10352,-1.10547 0.0541,-0.0542 0.55257,-0.55154 1.10546,-1.10547 z m -159.8086,191.73828 c -0.0137,-0.0137 -0.038,-0.007 -0.043,0.0117 l -13.75782,45.29297 c -0.007,0.0203 0.0115,0.0373 0.0312,0.0312 l 45.20703,-13.78516 c 0.0189,-0.005 0.0254,-0.0293 0.0117,-0.043 z"
   id="path825"
   inkscape:connector-curvature="0" />
<path
   style="fill:#d40000;fill-opacity:1;stroke-width:1.29140258"
   d="m 98.559935,406.78689 c -0.0334,-0.59206 7.572895,-24.94935 16.902965,-54.12729 l 16.96375,-53.05082 106.00466,-100.19664 106.00467,-100.196651 39.05387,37.545901 39.0539,37.54588 -4.3008,4.67914 c -2.36544,2.57354 -49.70709,47.69861 -105.20367,100.27794 l -100.90286,95.59877 -54.55362,15.69986 c -30.0045,8.63492 -55.54553,16.05997 -56.75786,16.50012 -1.212345,0.44016 -2.231585,0.31586 -2.265005,-0.27621 z m 58.856835,-31.9008 23.61285,-6.74147 -20.25247,-19.19112 c -11.13886,-10.55511 -20.65779,-18.77789 -21.15317,-18.27285 -1.00539,1.02504 -17.10525,50.77873 -17.10525,52.86074 0,0.87992 1.88908,0.78097 5.6426,-0.29552 3.10341,-0.89008 16.26838,-4.65196 29.25544,-8.35978 z"
   id="path10"
   inkscape:connector-curvature="0" /><path
   inkscape:connector-curvature="0"
   id="use228"
   d="m 121.44904,386.42925 -51.828095,-48.22348 17.07826,-15.4537 c 18.357945,-16.61163 25.632535,-19.58889 41.219745,-16.86985 6.42597,1.12095 13.60151,6.48068 36.2558,27.08102 40.01235,36.38465 45.10228,42.68378 45.10228,55.81692 0,6.37128 -1.41188,12.48925 -3.58299,15.52588 -4.06259,5.68217 -29.4589,30.34667 -31.24703,30.34667 -0.64344,0 -24.49253,-21.70056 -52.99797,-48.22346 z"
   style="fill:#d40000;fill-opacity:1;stroke-width:2.10189676" /><text
   xml:space="preserve"
   style="font-style:normal;font-weight:normal;font-size:81.71115875px;line-height:1.25;font-family:sans-serif;letter-spacing:0px;word-spacing:0px;fill:#000000;fill-opacity:1;stroke:none;stroke-width:2.04277897"
   x="124.797"
   y="381.58737"
   id="text422"
   transform="scale(1.0933409,0.91462782)"><tspan
     sodipodi:role="line"
     id="tspan420"
     x="124.797"
     y="381.58737"
     style="font-style:normal;font-variant:normal;font-weight:bold;font-stretch:normal;font-size:392.21356201px;line-height:674.11706543px;font-family:Arial;-inkscape-font-specification:'Arial Bold';fill:#ffffff;stroke-width:2.04277897">x</tspan></text>

</svg>