<?xml version="1.0" encoding="UTF-8" standalone="no"?>
<!DOCTYPE svg PUBLIC "-//W3C//DTD SVG 1.1//EN" "http://www.w3.org/Graphics/SVG/1.1/DTD/svg11.dtd">
<svg version="1.1" xmlns="http://www.w3.org/2000/svg" xmlns:xlink="http://www.w3.org/1999/xlink" preserveAspectRatio="xMidYMid meet" viewBox="0 0 640 640" width="32" height="32"><defs><path d="M520.26 289.06L318.09 298.64L355.57 491.09L407.77 427.05L534.85 524.02L595.27 449.9L468.19 352.93L520.26 289.06Z" id="e55gt48KC"></path><path d="M294.25 529.1C217.55 529.1 169.61 529.1 150.43 529.1C134.25 529.1 121.13 515.98 121.13 499.8C121.13 421.84 121.13 217.26 121.13 139.29C121.13 123.11 134.25 110 150.43 110C228.66 110 434.04 110 512.27 110C528.45 110 541.56 123.11 541.56 139.29C541.56 154.55 541.56 192.68 541.56 253.69" id="e2xAg2ekdc"></path></defs><g><g><g><use xlink:href="#e55gt48KC" opacity="1" fill="#ffffff" fill-opacity="1"></use></g><g><g><use xlink:href="#e2xAg2ekdc" opacity="1" fill-opacity="0" stroke="#ffffff" stroke-width="100" stroke-opacity="1"></use></g></g></g></g></svg>