<?xml version="1.0" encoding="UTF-8" standalone="no"?>
<!--?xml version="1.0" encoding="utf-8"?-->

<!-- Generator: Adobe Illustrator 18.0.0, SVG Export Plug-In . SVG Version: 6.00 Build 0)  -->

<svg
   xmlns:dc="http://purl.org/dc/elements/1.1/"
   xmlns:cc="http://creativecommons.org/ns#"
   xmlns:rdf="http://www.w3.org/1999/02/22-rdf-syntax-ns#"
   xmlns:svg="http://www.w3.org/2000/svg"
   xmlns="http://www.w3.org/2000/svg"
   xmlns:sodipodi="http://sodipodi.sourceforge.net/DTD/sodipodi-0.dtd"
   xmlns:inkscape="http://www.inkscape.org/namespaces/inkscape"
   version="1.1"
   id="_x32_"
   x="0px"
   y="0px"
   viewBox="0 0 512 512"
   style="width: 512px; height: 512px; opacity: 1;"
   xml:space="preserve"
   sodipodi:docname="icon_printer_512px.svg"
   inkscape:export-filename="C:\Users\h-moriyama\★Folder\02_共通データ\カスタマイズ (iconn)\アイコンシステムデザイン\アイコン\icon_printer_512px.png"
   inkscape:export-xdpi="96"
   inkscape:export-ydpi="96"
   inkscape:version="0.92.4 (5da689c313, 2019-01-14)"><metadata
   id="metadata21"><rdf:RDF><cc:Work
       rdf:about=""><dc:format>image/svg+xml</dc:format><dc:type
         rdf:resource="http://purl.org/dc/dcmitype/StillImage" /></cc:Work></rdf:RDF></metadata><defs
   id="defs19" /><sodipodi:namedview
   pagecolor="#ffffff"
   bordercolor="#666666"
   borderopacity="1"
   objecttolerance="10"
   gridtolerance="10"
   guidetolerance="10"
   inkscape:pageopacity="0"
   inkscape:pageshadow="2"
   inkscape:window-width="1920"
   inkscape:window-height="1027"
   id="namedview17"
   showgrid="false"
   inkscape:zoom="0.4609375"
   inkscape:cx="-67.254237"
   inkscape:cy="256"
   inkscape:window-x="-8"
   inkscape:window-y="1072"
   inkscape:window-maximized="1"
   inkscape:current-layer="_x32_" />
<style
   type="text/css"
   id="style2">
	.st0{fill:#4B4B4B;}
</style>
<g
   id="g14">
	<polygon
   class="st0"
   points="359.59,111.255 153.498,111.255 152.65,111.254 152.65,111.255 152.41,111.255 152.41,126.976    152.41,127.008 152.41,127.008 152.41,127.245 359.59,127.245  "
   style="fill: rgb(71, 71, 135);"
   id="polygon4" />
	<polygon
   class="st0"
   points="359.59,175.88 359.59,159.226 152.41,159.226 152.41,175.608 152.41,175.641 152.41,175.641    152.41,175.88  "
   style="fill: rgb(71, 71, 135);"
   id="polygon6" />
	<polygon
   class="st0"
   points="127.44,367.96 94.551,434.236 79.84,463.641 79.959,463.641 79.84,463.88 416.16,463.88    368.56,367.96  "
   style="fill: rgb(71, 71, 135);"
   id="polygon8" />
	<polygon
   class="st0"
   points="112.16,80.12 398.9,80.12 399.84,80.121 399.84,191.88 431.84,191.88 431.84,48.12 80.16,48.12    80.16,191.88 112.16,191.88  "
   style="fill: rgb(71, 71, 135);"
   id="polygon10" />
	<path
   class="st0"
   d="M431.84,207.96v-0.08H80.16v0.08H0v192h80.24l31.76-64h288l31.76,64H512v-192H431.84z M92,288.12   c-11.039,0-20-8.961-20-20c0-11.041,8.961-20,20-20c11.039,0,20,8.959,20,20C112,279.159,103.039,288.12,92,288.12z M156,288.12   c-11.039,0-20-8.961-20-20c0-11.041,8.961-20,20-20c11.039,0,20,8.959,20,20C176,279.159,167.039,288.12,156,288.12z"
   style="fill: rgb(71, 71, 135);"
   id="path12" />
</g>
</svg>