<?xml version="1.0" encoding="UTF-8" standalone="no"?>
<!-- Created with Inkscape (http://www.inkscape.org/) -->

<svg
   xmlns:osb="http://www.openswatchbook.org/uri/2009/osb"
   xmlns:dc="http://purl.org/dc/elements/1.1/"
   xmlns:cc="http://creativecommons.org/ns#"
   xmlns:rdf="http://www.w3.org/1999/02/22-rdf-syntax-ns#"
   xmlns:svg="http://www.w3.org/2000/svg"
   xmlns="http://www.w3.org/2000/svg"
   xmlns:xlink="http://www.w3.org/1999/xlink"
   xmlns:sodipodi="http://sodipodi.sourceforge.net/DTD/sodipodi-0.dtd"
   xmlns:inkscape="http://www.inkscape.org/namespaces/inkscape"
   width="420mm"
   height="297mm"
   viewBox="0 0 420 297"
   version="1.1"
   id="SVGRoot"
   inkscape:version="0.92.4 (5da689c313, 2019-01-14)"
   sodipodi:docname="icon_send.svg">
  <defs
     id="defs4747">
    <linearGradient
       id="linearGradient5879"
       osb:paint="solid">
      <stop
         style="stop-color:#546e7a;stop-opacity:1;"
         offset="0"
         id="stop5877" />
    </linearGradient>
    <linearGradient
       inkscape:collect="always"
       xlink:href="#linearGradient5879"
       id="linearGradient5881"
       x1="-4.333497"
       y1="165.0863"
       x2="711.14894"
       y2="165.0863"
       gradientUnits="userSpaceOnUse"
       gradientTransform="matrix(0.82080255,0,0,0.77008122,-76.521422,26.617154)" />
  </defs>
  <sodipodi:namedview
     id="base"
     pagecolor="#ffffff"
     bordercolor="#666666"
     borderopacity="1.0"
     inkscape:pageopacity="0.0"
     inkscape:pageshadow="2"
     inkscape:zoom="0.35"
     inkscape:cx="729.38322"
     inkscape:cy="42.969382"
     inkscape:document-units="mm"
     inkscape:current-layer="layer1"
     showgrid="false"
     inkscape:window-width="1920"
     inkscape:window-height="976"
     inkscape:window-x="-8"
     inkscape:window-y="-8"
     inkscape:window-maximized="1" />
  <metadata
     id="metadata4750">
    <rdf:RDF>
      <cc:Work
         rdf:about="">
        <dc:format>image/svg+xml</dc:format>
        <dc:type
           rdf:resource="http://purl.org/dc/dcmitype/StillImage" />
        <dc:title></dc:title>
      </cc:Work>
    </rdf:RDF>
  </metadata>
  <g
     inkscape:label="Layer 1"
     inkscape:groupmode="layer"
     id="layer1">
    <rect
       style="fill:url(#linearGradient5881);fill-opacity:1;stroke:#546e7a;stroke-width:10.33787155;stroke-linecap:round;stroke-linejoin:round;stroke-miterlimit:4;stroke-dasharray:none;stroke-opacity:1;paint-order:normal"
       id="rect5303"
       width="576.43304"
       height="254.39725"
       x="-74.659973"
       y="26.548388"
       ry="106.24144" />
    <g
       id="g10164"
       transform="matrix(0.83663871,0,0,1.2145981,-22.598471,-13.369263)">
      <path
         style="fill:#d0d0d0;stroke-width:0.44273028"
         d="m 65.143385,209.70068 c -0.750941,-0.49804 -0.854286,-2.50091 -0.854286,-16.55599 0,-8.79417 0.155681,-16.25848 0.345959,-16.58735 0.858515,-1.4838 2.461301,-1.34144 16.088273,1.42899 13.173433,2.67823 14.553024,3.11817 14.553024,4.64083 0,0.68973 -23.039835,25.22381 -25.194841,26.82885 -1.273484,0.94849 -3.695948,1.06851 -4.938129,0.24467 z m 45.946945,-31.91263 c -24.341798,-4.93762 -44.830083,-9.22618 -45.529525,-9.53013 -2.961795,-1.28709 -3.659943,-0.67301 37.462365,-32.95106 21.30374,-16.7219 38.82649,-30.58778 38.93945,-30.81308 0.11296,-0.2253 -0.62095,0.0937 -1.63091,0.70886 -15.14258,9.22347 -96.12954,57.33962 -97.175866,57.73435 -1.358709,0.51257 -3.393311,0.1239 -42.1386887,-8.0496 -22.3910743,-4.72349 -41.0445863,-8.80937 -41.4522493,-9.07975 -0.800439,-0.53087 -0.979317,-2.15739 -0.313627,-2.85176 0.796377,-0.83068 239.650591,-81.597366 241.310821,-81.597366 2.06486,0 2.89783,0.58578 2.89783,2.037883 0,0.974911 -43.37895,120.440073 -44.32948,122.082923 -0.29175,0.50423 -2.57505,1.39003 -3.40016,1.31907 -0.21018,-0.0181 -20.29816,-4.07273 -44.63996,-9.01034 z"
         id="path10178"
         inkscape:connector-curvature="0" />
      <path
         style="fill:#b1b1b1;stroke-width:0.44273028"
         d="m 65.596538,209.50865 c -0.977566,-0.71609 -1.044972,-1.6004 -1.202414,-15.77423 -0.177775,-16.00385 0.01381,-17.54561 2.225668,-17.91208 0.956843,-0.15853 21.995439,3.84587 26.622619,5.06724 1.040764,0.27471 1.782192,1.67217 1.315306,2.4791 -0.733186,1.2672 -24.00249,25.36716 -25.188171,26.08733 -1.660237,1.00842 -2.45313,1.01948 -3.773008,0.0526 z m 45.173442,-32.06103 c -24.218984,-4.91948 -44.401473,-9.09608 -44.849973,-9.28134 -0.4485,-0.18525 -0.8861,-0.80721 -0.97244,-1.38212 -0.137687,-0.9168 4.760409,-4.90139 39.844573,-32.41349 36.91267,-28.94596 42.12459,-33.11628 40.61337,-32.49683 -0.29561,0.12116 -23.48945,13.93193 -51.54187,30.69058 -28.052415,16.75866 -51.416572,30.47028 -51.920343,30.47028 -1.824824,0 -81.078476,-16.91435 -82.08536,-17.51869 -1.368652,-0.82148 -1.306308,-1.66378 0.188944,-2.55267 0.898309,-0.53402 158.720009,-54.211894 235.383529,-80.057981 5.0629,-1.706889 6.56509,-1.775385 7.53931,-0.343773 0.6988,1.026904 -43.48174,122.146134 -44.94677,123.219794 -0.51733,0.37913 -1.45311,0.67165 -2.07952,0.65004 -0.62641,-0.0216 -20.95446,-4.06432 -45.17345,-8.9838 z"
         id="path10176"
         inkscape:connector-curvature="0" />
      <path
         style="fill:#8f8f8f;stroke-width:0.44273028"
         d="m 65.395496,209.2093 c -0.771702,-0.95633 -0.771702,-31.54092 0,-32.49725 0.345769,-0.4285 1.135993,-0.69741 2.04941,-0.69741 0.817656,0 6.976389,1.12395 13.686082,2.49767 11.573778,2.36957 13.601731,2.99112 13.601731,4.1688 0,0.51602 -24.913172,26.59977 -25.740217,26.94966 -1.172145,0.49589 -3.032663,0.27789 -3.597006,-0.42147 z M 110.4255,177.16485 c -24.109458,-4.89616 -44.230788,-9.12479 -44.71407,-9.39695 -0.483282,-0.27217 -0.878695,-0.7908 -0.878695,-1.15253 0,-0.36173 18.362983,-15.06598 40.806625,-32.67612 22.44365,-17.61013 41.04461,-32.30236 41.33548,-32.6494 0.29086,-0.34703 0.39625,-0.63096 0.23422,-0.63096 -0.16205,0 -23.61492,13.93089 -52.117514,30.95753 -28.502589,17.02665 -52.169492,31.03733 -52.593115,31.13484 -0.423629,0.0975 -1.871092,-0.0371 -3.216592,-0.29906 -7.170891,-1.3963 -77.994894,-16.42864 -78.875853,-16.74134 -0.658728,-0.23381 -1.03865,-0.75412 -1.03865,-1.42244 0,-0.86285 0.418633,-1.21148 2.310454,-1.92414 4.151692,-1.56395 235.5593,-79.925948 237.34949,-80.374106 2.11511,-0.529496 3.5408,-0.07348 3.77615,1.207834 0.16685,0.908325 -43.61706,121.139852 -44.52395,122.263732 -0.34424,0.4266 -1.12109,0.64102 -2.27092,0.62682 -0.96123,-0.0119 -21.47361,-4.02754 -45.58306,-8.92371 z"
         id="path10174"
         inkscape:connector-curvature="0" />
      <path
         style="fill:#6f6f6f;stroke-width:0.44273028"
         d="m 65.679013,209.10537 c -0.733762,-0.69479 -0.846278,-2.8413 -0.846278,-16.14469 0,-13.3034 0.112516,-15.44991 0.846278,-16.1447 0.465456,-0.44074 1.211776,-0.80134 1.658487,-0.80134 1.347358,0 25.26809,4.98556 26.089166,5.43751 0.419328,0.23081 0.762417,0.75249 0.762417,1.15929 0,0.63599 -20.632588,22.81081 -24.306605,26.12347 -1.515793,1.36671 -3.01207,1.49858 -4.203465,0.37046 z M 111.0418,177.15564 c -24.069486,-4.89463 -44.190816,-9.01448 -44.714066,-9.15521 -2.821428,-0.75889 -2.419414,-1.10418 40.413156,-34.71142 22.74661,-17.84742 41.60054,-32.74606 41.89761,-33.10811 0.46542,-0.567217 0.40285,-0.607949 -0.45239,-0.294494 -0.54588,0.200074 -24.47759,14.407874 -53.181573,31.572894 -28.703985,17.16502 -52.61778,31.21042 -53.141769,31.21199 -1.406213,0.004 -79.838588,-16.56151 -81.27225,-17.16555 -1.463815,-0.61674 -1.579627,-1.62654 -0.271818,-2.37004 0.523249,-0.29747 52.324972,-17.94831 115.114938,-39.22408 C 138.2236,82.63585 191.96249,64.423675 194.85339,63.440119 c 5.44053,-1.851006 7.14194,-1.995884 7.78004,-0.662482 0.34747,0.726083 -43.29827,120.795433 -44.43872,122.250853 -0.43165,0.55085 -1.22818,0.92571 -2.04826,0.96393 -0.73807,0.0344 -21.03516,-3.94215 -45.10465,-8.83678 z"
         id="path10172"
         inkscape:connector-curvature="0" />
      <path
         style="fill:#4f4f4f;stroke-width:0.44273028"
         d="m 65.706353,208.97583 c -0.181493,-0.31367 -0.329982,-7.6903 -0.329982,-16.39251 0,-15.13227 0.04469,-15.83806 1.024906,-16.18599 0.788946,-0.28003 3.995241,0.24674 13.926592,2.28804 11.974106,2.46117 13.830629,3.00001 13.852891,4.0207 0.0091,0.41521 -23.483997,25.17717 -24.86605,26.20911 -1.053078,0.78631 -3.167931,0.82186 -3.608357,0.0607 z m 45.607267,-31.93186 c -24.517988,-4.96569 -44.883954,-9.19557 -45.257704,-9.39973 -0.37375,-0.20415 -0.679545,-0.66236 -0.679545,-1.01824 0,-0.35589 18.981331,-15.54689 42.180729,-33.75778 23.1994,-18.2109 42.42186,-33.406936 42.71658,-33.768979 0.46761,-0.574435 0.40132,-0.610508 -0.52062,-0.283269 -0.58106,0.206247 -24.60678,14.455898 -53.390493,31.665888 -28.783709,17.21 -52.851592,31.50043 -53.484189,31.75653 -1.014713,0.41078 -5.877636,-0.53184 -41.289285,-8.00347 -22.076509,-4.658 -40.485385,-8.65969 -40.908614,-8.89264 -0.423228,-0.23296 -0.769507,-0.79544 -0.769507,-1.24996 0,-0.68734 0.983304,-1.15981 5.844088,-2.80801 3.214249,-1.08989 57.094509,-19.36373 119.733921,-40.60853 C 163.87588,74.090057 199.80308,62.081764 200.73983,62.154385 c 1.02529,0.07949 1.40287,0.346173 1.53071,1.081121 0.12532,0.720454 -32.97418,92.292434 -42.95691,118.843134 -1.02156,2.71702 -2.0464,4.06404 -3.05296,4.01269 -0.20289,-0.0103 -20.42906,-4.08166 -44.94705,-9.04736 z"
         id="path10170"
         inkscape:connector-curvature="0" />
      <path
         style="fill:#2e2e2e;stroke-width:0.44273028"
         d="m 65.956789,208.87063 c -0.787647,-0.97609 -0.804222,-30.82328 -0.01767,-31.79803 0.309519,-0.38357 0.948699,-0.6974 1.420396,-0.6974 1.002199,0 23.929849,4.62017 25.334556,5.10519 0.523249,0.18067 0.946976,0.68784 0.94161,1.12705 -0.0054,0.4392 -5.592759,6.63953 -12.41643,13.7785 -12.740585,13.32926 -13.849189,14.2361 -15.262475,12.48469 z m 44.857481,-32.09609 c -35.132505,-7.12099 -44.14361,-9.06956 -44.751928,-9.67719 -0.712386,-0.71158 -0.381932,-1.06021 5.105455,-5.3863 3.226931,-2.54402 21.877057,-17.19323 41.444733,-32.55381 19.56768,-15.36059 36.40262,-28.64518 37.41098,-29.521318 1.95523,-1.698847 2.032,-2.266853 0.19078,-1.411529 -0.6198,0.28792 -24.99388,14.785217 -54.16464,32.216207 -29.170756,17.431 -53.491017,31.74291 -54.045026,31.80426 -0.9532,0.10555 -79.089262,-16.19789 -81.175278,-16.93759 -2.071357,-0.7345 -0.8651,-1.84767 3.702533,-3.41682 C 9.1814818,126.55166 200.10747,62.085291 200.66824,62.158735 c 0.42484,0.05564 1.00684,0.348091 1.29333,0.649891 0.36857,0.388245 -5.95398,18.2618 -21.61827,61.113884 -12.17656,33.31083 -22.36227,60.84909 -22.63494,61.19612 -0.27266,0.34703 -1.03757,0.61776 -1.6998,0.60162 -0.66223,-0.0161 -20.99966,-4.04171 -45.19429,-8.94571 z"
         id="path10168"
         inkscape:connector-curvature="0" />
      <path
         style="fill:#ffffff;stroke-width:0.44273028"
         d="m 66.168824,208.73491 c -0.143384,-0.24788 -0.196862,-7.50854 -0.118845,-16.13479 0.14183,-15.68219 0.141987,-15.68411 1.296893,-15.79339 1.417727,-0.13414 24.652749,4.54049 25.672099,5.16495 0.951108,0.58265 1.663657,-0.25029 -12.562092,14.68467 -8.939611,9.38529 -12.196883,12.52925 -12.980817,12.52925 -0.575597,0 -1.163854,-0.20281 -1.307238,-0.45069 z M 110.76998,176.5042 c -23.919984,-4.85635 -43.834428,-9.05269 -44.254316,-9.32521 -0.655207,-0.42526 -0.644606,-0.61357 0.07477,-1.32837 0.461014,-0.45808 19.827005,-15.73425 43.035536,-33.94704 23.20854,-18.2128 42.55211,-33.450105 42.98572,-33.860686 1.13114,-1.071069 0.4352,-1.49543 -1.25525,-0.765406 -0.79456,0.343132 -25.50025,14.994942 -54.901516,32.559582 -39.655958,23.69089 -53.831301,31.95689 -54.907244,32.01779 -0.797709,0.0452 -19.308828,-3.69444 -41.13581602,-8.31021 -37.48656698,-7.92731 -39.68543298,-8.43858 -39.68543298,-9.22741 0,-0.74756 12.480891,-5.07091 119.0563,-41.24086 C 145.26369,80.853218 199.45062,62.659337 200.19812,62.645539 c 1.06957,-0.01974 1.38263,0.166929 1.46959,0.876298 0.0608,0.495761 -9.84917,28.078132 -22.02209,61.294153 l -22.13258,60.39278 -1.62609,0.0626 c -0.89434,0.0344 -21.19698,-3.9108 -45.11697,-8.76715 z"
         id="path10166"
         inkscape:connector-curvature="0" />
    </g>
    <text
       xml:space="preserve"
       style="font-style:normal;font-weight:normal;font-size:14.32025433px;line-height:1.25;font-family:sans-serif;letter-spacing:0px;word-spacing:0px;fill:#000000;fill-opacity:1;stroke:none;stroke-width:0.35800636"
       x="148.50519"
       y="201.8797"
       id="text10182"
       transform="scale(0.92584569,1.0800936)"><tspan
         sodipodi:role="line"
         id="tspan10180"
         x="148.50519"
         y="201.8797"
         style="font-size:68.73722076px;fill:#ffffff;stroke-width:0.35800636;-inkscape-font-specification:'Arial Bold';font-family:Arial;font-weight:bold;font-style:normal;font-stretch:normal;font-variant:normal">Send Mail</tspan></text>
  </g>
</svg>
