<?xml version="1.0" encoding="UTF-8" standalone="no"?>
<!--?xml version="1.0" encoding="utf-8"?-->

<!-- Generator: Adobe Illustrator 18.1.1, SVG Export Plug-In . SVG Version: 6.00 Build 0)  -->

<svg
   xmlns:dc="http://purl.org/dc/elements/1.1/"
   xmlns:cc="http://creativecommons.org/ns#"
   xmlns:rdf="http://www.w3.org/1999/02/22-rdf-syntax-ns#"
   xmlns:svg="http://www.w3.org/2000/svg"
   xmlns="http://www.w3.org/2000/svg"
   xmlns:sodipodi="http://sodipodi.sourceforge.net/DTD/sodipodi-0.dtd"
   xmlns:inkscape="http://www.inkscape.org/namespaces/inkscape"
   version="1.1"
   id="_x32_"
   x="0px"
   y="0px"
   viewBox="0 0 512 512"
   style="width: 512px; height: 512px; opacity: 1;"
   xml:space="preserve"
   sodipodi:docname="icon_file-dwg-ul-hover.svg"
   inkscape:version="0.92.4 (5da689c313, 2019-01-14)"
   inkscape:export-filename="C:\Users\h-moriyama\★Folder\02_共通データ\カスタマイズ (iconn)\アイコンシステムデザイン\アイコン\PNG\icon_file-dwg-ul-hover.png"
   inkscape:export-xdpi="96"
   inkscape:export-ydpi="96"><metadata
   id="metadata23"><rdf:RDF><cc:Work
       rdf:about=""><dc:format>image/svg+xml</dc:format><dc:type
         rdf:resource="http://purl.org/dc/dcmitype/StillImage" /><dc:title /></cc:Work></rdf:RDF></metadata><defs
   id="defs21">
	
	
	
	
	
	
</defs><sodipodi:namedview
   pagecolor="#ffffff"
   bordercolor="#666666"
   borderopacity="1"
   objecttolerance="10"
   gridtolerance="10"
   guidetolerance="10"
   inkscape:pageopacity="0"
   inkscape:pageshadow="2"
   inkscape:window-width="1562"
   inkscape:window-height="783"
   id="namedview19"
   showgrid="false"
   inkscape:snap-text-baseline="false"
   inkscape:snap-bbox="true"
   inkscape:bbox-paths="false"
   inkscape:snap-intersection-paths="true"
   inkscape:zoom="0.70710678"
   inkscape:cx="152.86478"
   inkscape:cy="229.26641"
   inkscape:window-x="43"
   inkscape:window-y="1256"
   inkscape:window-maximized="0"
   inkscape:current-layer="_x32_"
   inkscape:snap-bbox-midpoints="true"
   inkscape:snap-object-midpoints="true"
   inkscape:snap-midpoints="true"
   inkscape:snap-bbox-edge-midpoints="false" />
<style
   type="text/css"
   id="style2">
	.st0{fill:#4B4B4B;}
</style>



<path
   style="fill:#40407a;fill-opacity:1"
   d="m 73.969362,509.0865 c -4.723492,-2.343 -8.313757,-6.54316 -10.065614,-11.77551 -0.833202,-2.48857 -1.138103,-49.43849 -1.138103,-175.25 V 150.21021 h 65.320685 65.32068 l 5.42245,-2.75 c 6.04265,-3.06454 11.25664,-9.14197 12.89057,-15.02526 0.66296,-2.38709 1.03646,-26.80473 1.04003,-67.991789 l 0.006,-64.26704895 110.75,0.26704831 110.75,0.2670483 4.24888,2.26975494 c 2.33689,1.2483651 5.48689,4.1404755 7,6.4269121 l 2.75112,4.1571573 0.23698,241.573087 0.23698,241.57309 -2.23698,3.90494 c -1.23034,2.14771 -3.96621,5.29771 -6.07972,7 l -3.84274,3.09506 -179.15726,0.25369 -179.157255,0.25369 z M 356.26564,451.21021 v -10.5 l -100.25,-0.25481 -100.25,-0.2548 v 11.00961 11.00961 l 100.25,-0.2548 100.25,-0.25481 z m -61.5,-40 v -25 h 25 c 13.75,0 24.9756,-0.3375 24.94578,-0.75 -0.0839,-1.16 -86.9765,-72.49036 -88.47365,-72.62822 -0.72743,-0.067 -21.22825,16.30322 -45.55738,36.37822 l -44.23478,36.5 25.16002,0.26717 25.16001,0.26717 v 24.98283 24.98283 h 39 39 z m 88.33479,-130.48288 c 7.54735,-1.59912 15.65959,-5.02564 22.91521,-9.67913 l 4.75,-3.04648 v -19.39576 -19.39575 h -21 -21 v 8 8 h 11 11 v 6.44892 6.44892 l -6.75,3.29815 c -6.02012,2.94153 -7.6691,3.29847 -15.25,3.30108 -7.21576,0.002 -9.17284,-0.37479 -12.9533,-2.49707 -5.29343,-2.97163 -10.49928,-9.45994 -12.26948,-15.29205 -0.71831,-2.36657 -1.27722,-9.24031 -1.27722,-15.70795 0,-10.54606 0.23016,-11.96869 2.7747,-17.15015 4.85915,-9.89475 13.60229,-14.48513 25.91182,-13.60439 5.60314,0.4009 7.79614,1.07126 11.04863,3.37736 3.37808,2.39515 6.76606,6.88081 8.00556,10.5993 0.31052,0.93157 17.82461,-2.0606 19.13726,-3.26949 1.42232,-1.30989 -4.75895,-13.25445 -8.99037,-17.3728 -7.37032,-7.17337 -17.47639,-10.57983 -31.3876,-10.57983 -23.4219,0 -39.05475,11.50183 -45.58997,33.54271 -2.7783,9.37017 -2.36716,23.95232 0.9509,33.72582 3.34733,9.85973 6.01093,14.04276 13.02233,20.45078 10.77048,9.84361 28.19776,13.55947 45.95153,9.79781 z m -221.78111,-4.51712 c 14.16354,-7.24296 21.47463,-22.04548 21.42896,-43.38649 -0.0454,-21.20446 -8.00691,-37.56425 -21.49132,-44.16156 -6.59223,-3.22528 -17.42406,-4.38744 -41.24132,-4.42485 l -17.25,-0.0271 v 48.07469 48.07469 l 25.85473,-0.32469 25.85473,-0.32469 z m 72.83802,2.25 c 0.28957,-0.9625 4.38926,-16.375 9.11043,-34.25 4.72117,-17.875 8.69513,-32.89167 8.83103,-33.37037 0.1359,-0.4787 2.61728,8.0713 5.51418,19 2.8969,10.9287 7.1113,26.74738 9.36534,35.15262 l 4.09825,15.28226 10.57571,-0.28226 10.57571,-0.28225 11.22308,-46 c 6.17269,-25.3 11.24367,-46.8038 11.26883,-47.78621 0.0413,-1.61468 -0.88817,-1.75873 -9.67946,-1.5 l -9.72521,0.28621 -7.0198,32.17166 c -3.86089,17.69442 -7.24705,31.94735 -7.52479,31.67319 -0.27775,-0.27417 -4.105,-14.75142 -8.505,-32.17167 l -8,-31.67318 -10.9145,-0.2855 c -6.00297,-0.15703 -11.27713,0.0771 -11.72035,0.52035 -0.44321,0.44321 -4.58907,14.97169 -9.21302,32.2855 -8.11274,30.37716 -8.44414,31.33956 -9.46282,27.47965 -0.58061,-2.2 -3.57837,-15.7 -6.66169,-30 -3.08332,-14.3 -6.02875,-27.0125 -6.54539,-28.25 -0.88091,-2.11002 -1.5317,-2.25 -10.46079,-2.25 -5.23679,0 -9.53388,0.3375 -9.54908,0.75 -0.0152,0.4125 5.02496,22.0125 11.20036,48 l 11.22799,47.25 h 10.73226 c 9.35396,0 10.79987,-0.22474 11.25873,-1.75 z"
   id="path846"
   inkscape:connector-curvature="0" /><path
   inkscape:connector-curvature="0"
   id="path4"
   style="fill:#40407a;fill-opacity:1"
   d="M 189.031,111.069 V 6.177 L 68.398,126.817 h 104.884 c 11.336,0 15.749,-4.413 15.749,-15.748 z"
   class="st0" />
<flowRoot
   xml:space="preserve"
   id="flowRoot4555"
   style="font-style:normal;font-weight:normal;font-size:40px;line-height:1.25;font-family:sans-serif;letter-spacing:0px;word-spacing:0px;fill:#c8c4b7;fill-opacity:1;stroke:none"><flowRegion
     id="flowRegion4557"
     style="fill:#c8c4b7"><rect
       id="rect4559"
       width="409.5946"
       height="220.90495"
       x="573.73926"
       y="258.87973"
       style="fill:#c8c4b7" /></flowRegion><flowPara
     id="flowPara4561" /></flowRoot><flowRoot
   xml:space="preserve"
   id="flowRoot4563"
   style="fill:black;fill-opacity:1;stroke:none;font-family:sans-serif;font-style:normal;font-weight:normal;font-size:40px;line-height:1.25;letter-spacing:0px;word-spacing:0px"><flowRegion
     id="flowRegion4565"><rect
       id="rect4567"
       width="309.88055"
       height="182.55341"
       x="99.714043"
       y="200.58537" /></flowRegion><flowPara
     id="flowPara4569" /></flowRoot><flowRoot
   xml:space="preserve"
   id="flowRoot4571"
   style="fill:black;fill-opacity:1;stroke:none;font-family:sans-serif;font-style:normal;font-weight:normal;font-size:40px;line-height:1.25;letter-spacing:0px;word-spacing:0px"><flowRegion
     id="flowRegion4573"><rect
       id="rect4575"
       width="237.77963"
       height="139.59966"
       x="104.31623"
       y="327.91254" /></flowRegion><flowPara
     id="flowPara4577" /></flowRoot><flowRoot
   xml:space="preserve"
   id="flowRoot4587"
   style="fill:black;fill-opacity:1;stroke:none;font-family:sans-serif;font-style:normal;font-weight:normal;font-size:40px;line-height:1.25;letter-spacing:0px;word-spacing:0px"><flowRegion
     id="flowRegion4589"><rect
       id="rect4591"
       width="233.17744"
       height="111.98654"
       x="161.07652"
       y="223.59631" /></flowRegion><flowPara
     id="flowPara4593" /></flowRoot>
<path
   style="fill:#40407a;fill-opacity:1"
   d="m 121.76564,232.5752 v -31.63501 l 12.25,0.51522 c 12.88873,0.54208 16.75002,1.49279 20.59732,5.07141 6.12209,5.69454 9.05817,19.52308 7.26232,34.2046 -2.3753,19.41876 -7.59047,23.47879 -30.15886,23.47879 h -9.95078 z"
   id="path850"
   inkscape:connector-curvature="0" /></svg>