<?xml version="1.0" encoding="UTF-8" standalone="no"?>
<!--?xml version="1.0" encoding="utf-8"?-->

<!-- Generator: Adobe Illustrator 18.0.0, SVG Export Plug-In . SVG Version: 6.00 Build 0)  -->

<svg
   xmlns:dc="http://purl.org/dc/elements/1.1/"
   xmlns:cc="http://creativecommons.org/ns#"
   xmlns:rdf="http://www.w3.org/1999/02/22-rdf-syntax-ns#"
   xmlns:svg="http://www.w3.org/2000/svg"
   xmlns="http://www.w3.org/2000/svg"
   xmlns:xlink="http://www.w3.org/1999/xlink"
   xmlns:sodipodi="http://sodipodi.sourceforge.net/DTD/sodipodi-0.dtd"
   xmlns:inkscape="http://www.inkscape.org/namespaces/inkscape"
   version="1.1"
   id="_x32_"
   x="0px"
   y="0px"
   viewBox="0 0 512 512"
   style="width: 512px; height: 512px; opacity: 1;"
   xml:space="preserve"
   sodipodi:docname="icon_cancelled_hover.svg"
   inkscape:version="0.92.4 (5da689c313, 2019-01-14)"
   inkscape:export-filename="C:\Users\h-moriyama\Desktop\icon_edit-hover.png"
   inkscape:export-xdpi="96"
   inkscape:export-ydpi="96"><metadata
   id="metadata15"><rdf:RDF><cc:Work
       rdf:about=""><dc:format>image/svg+xml</dc:format><dc:type
         rdf:resource="http://purl.org/dc/dcmitype/StillImage" /><dc:title></dc:title></cc:Work></rdf:RDF></metadata><defs
   id="defs13">
	
	
</defs><sodipodi:namedview
   pagecolor="#ffffff"
   bordercolor="#666666"
   borderopacity="1"
   objecttolerance="10"
   gridtolerance="10"
   guidetolerance="10"
   inkscape:pageopacity="0"
   inkscape:pageshadow="2"
   inkscape:window-width="1920"
   inkscape:window-height="976"
   id="namedview11"
   showgrid="false"
   inkscape:snap-bbox="true"
   inkscape:snap-bbox-midpoints="true"
   inkscape:zoom="1.357645"
   inkscape:cx="257.95268"
   inkscape:cy="214.82062"
   inkscape:window-x="-8"
   inkscape:window-y="-8"
   inkscape:window-maximized="1"
   inkscape:current-layer="_x32_" />
<style
   type="text/css"
   id="style2">
	.st0{fill:#4B4B4B;}
</style>
<path
   style="fill:#34ace0;fill-opacity:1;stroke-width:1.18358588"
   d="M 256 0 A 256 256 0 0 0 0 256 A 256 256 0 0 0 256 512 A 256 256 0 0 0 512 256 A 256 256 0 0 0 256 0 z M 351.88281 116 C 356.49761 116 361.11219 117.75432 364.61328 121.26172 L 390.74805 147.44727 C 397.74968 154.4626 397.74968 165.93974 390.74805 172.95508 L 377.69922 186.0293 C 377.68892 186.0393 377.67211 186.0393 377.66211 186.0293 L 326.10156 134.37109 C 326.09156 134.36069 326.09156 134.34594 326.10156 134.33594 L 339.15234 121.26172 C 342.65343 117.75432 347.26801 116 351.88281 116 z M 309.69922 138.79883 C 309.70952 138.78883 309.72438 138.78883 309.73438 138.79883 L 372.71875 201.90039 C 372.72875 201.91079 372.72875 201.92555 372.71875 201.93555 L 316.29102 258.4707 C 315.73813 259.02463 315.2416 259.52197 315.1875 259.57617 C 315.13336 259.63041 314.63547 260.12771 314.08203 260.68164 L 207.58203 367.38281 C 207.02913 367.93674 206.57812 368.38867 206.57812 368.38867 C 206.57813 368.38867 205.96492 368.57621 205.2168 368.80469 L 116.0332 395.99805 C 116.0135 396.00405 115.994 395.9865 116 395.9668 L 143.55664 305.25781 C 143.55864 305.25381 143.5595 305.25105 143.5625 305.24805 L 251.0625 197.54492 C 251.61539 196.991 252.11192 196.49365 252.16602 196.43945 C 252.22016 196.38521 252.71859 195.88791 253.27148 195.33398 L 309.69922 138.79883 z M 149.89062 330.53711 C 149.87693 330.52341 149.85266 330.53023 149.84766 330.54883 L 136.08984 375.8418 C 136.08324 375.8621 136.10139 375.87905 136.12109 375.87305 L 181.32812 362.08789 C 181.34703 362.08249 181.35354 362.05862 181.33984 362.04492 L 149.89062 330.53711 z "
   id="path825" />
<path
   style="fill:#34ace0;fill-opacity:1;stroke-width:0.73656958"
   d="m 117.01614,393.63409 c 0.33728,-1.15057 6.49029,-21.48214 13.67336,-45.18126 l 13.06012,-43.08932 82.9668,-83.04723 82.96681,-83.04722 31.12309,31.11663 c 17.11771,17.11415 31.03987,31.34957 30.93814,31.63427 -0.10172,0.2847 -37.41336,37.80491 -82.91474,83.37825 l -82.72978,82.86063 -43.96019,13.39574 c -24.17809,7.36765 -44.35993,13.54777 -44.84851,13.7336 -0.64836,0.24659 -0.72267,-0.22725 -0.2751,-1.75409 z m 42.25935,-24.48166 c 11.66469,-3.58796 21.42835,-6.7434 21.69703,-7.01207 0.26867,-0.26867 -6.52733,-7.50432 -15.10223,-16.07922 -8.5749,-8.5749 -15.81896,-15.36249 -16.09791,-15.08354 -0.52028,0.52029 -13.54685,42.905 -13.54685,44.07756 0,0.35791 0.41432,0.64402 0.92071,0.63579 0.50639,-0.008 10.46455,-2.95056 22.12925,-6.53852 z"
   id="path22"
   inkscape:connector-curvature="0" /><path
   style="fill:#34ace0;fill-opacity:1;stroke-width:0.73656958"
   d="m 354.23406,162.34765 c -12.75159,-12.89688 -24.15048,-24.5485 -25.33087,-25.8925 l -2.14617,-2.44364 6.93328,-6.96918 c 7.79845,-7.83883 12.39268,-10.61116 17.57402,-10.60481 7.43883,0.009 8.08713,0.45816 25.34948,17.55829 10.19881,10.10298 16.60679,17.03176 17.47735,18.8978 0.75637,1.62127 1.37994,4.60253 1.38659,6.62912 0.0231,7.04464 -0.96714,8.8461 -9.8299,17.88301 l -8.22907,8.39078 z"
   id="path24"
   inkscape:connector-curvature="0" /><use
   id="use26"
   inkscape:spray-origin="#path24"
   xlink:href="#path24"
   x="0"
   y="0"
   width="100%"
   height="100%"
   transform="translate(-197.78238,101.25898)" /><use
   id="use28"
   inkscape:spray-origin="#path24"
   xlink:href="#path24"
   x="0"
   y="0"
   width="100%"
   height="100%"
   transform="translate(-177.31537,106.91685)" /><use
   id="use30"
   inkscape:spray-origin="#path24"
   xlink:href="#path24"
   x="0"
   y="0"
   width="100%"
   height="100%"
   transform="translate(-189.03485,144.29177)" /><use
   id="use32"
   inkscape:spray-origin="#path24"
   xlink:href="#path24"
   x="0"
   y="0"
   width="100%"
   height="100%"
   transform="translate(-156.37434,127.31314)" /><use
   id="use34"
   inkscape:spray-origin="#path24"
   xlink:href="#path24"
   x="0"
   y="0"
   width="100%"
   height="100%"
   transform="translate(-170.72389,90.213921)" /><use
   id="use36"
   inkscape:spray-origin="#path24"
   xlink:href="#path24"
   x="0"
   y="0"
   width="100%"
   height="100%"
   transform="translate(-164.82993,138.37211)" /><use
   id="use38"
   inkscape:spray-origin="#path24"
   xlink:href="#path24"
   x="0"
   y="0"
   width="100%"
   height="100%"
   transform="translate(-166.65141,124.95745)" /><use
   id="use40"
   inkscape:spray-origin="#path24"
   xlink:href="#path24"
   x="0"
   y="0"
   width="100%"
   height="100%"
   transform="translate(-153.27643,90.249262)" /><use
   id="use42"
   inkscape:spray-origin="#path24"
   xlink:href="#path24"
   x="0"
   y="0"
   width="100%"
   height="100%"
   transform="translate(-142.8927,128.82531)" /><use
   id="use44"
   inkscape:spray-origin="#path24"
   xlink:href="#path24"
   x="0"
   y="0"
   width="100%"
   height="100%"
   transform="translate(-161.22191,104.55185)" /><use
   id="use46"
   inkscape:spray-origin="#path24"
   xlink:href="#path24"
   x="0"
   y="0"
   width="100%"
   height="100%"
   transform="translate(-157.7308,112.08913)" /><use
   id="use48"
   inkscape:spray-origin="#path24"
   xlink:href="#path24"
   x="0"
   y="0"
   width="100%"
   height="100%"
   transform="translate(-164.39678,91.005389)" /><use
   id="use50"
   inkscape:spray-origin="#path24"
   xlink:href="#path24"
   x="0"
   y="0"
   width="100%"
   height="100%"
   transform="translate(-118.6107,101.51262)" /><use
   id="use52"
   inkscape:spray-origin="#path24"
   xlink:href="#path24"
   x="0"
   y="0"
   width="100%"
   height="100%"
   transform="translate(-134.6019,104.49161)" /><use
   id="use54"
   inkscape:spray-origin="#path24"
   xlink:href="#path24"
   x="0"
   y="0"
   width="100%"
   height="100%"
   transform="translate(-118.05384,92.877918)" /><use
   id="use56"
   inkscape:spray-origin="#path24"
   xlink:href="#path24"
   x="0"
   y="0"
   width="100%"
   height="100%"
   transform="translate(-133.96852,118.9689)" /><use
   id="use58"
   inkscape:spray-origin="#path24"
   xlink:href="#path24"
   x="0"
   y="0"
   width="100%"
   height="100%"
   transform="translate(-147.80105,98.903573)" /><use
   id="use60"
   inkscape:spray-origin="#path24"
   xlink:href="#path24"
   x="0"
   y="0"
   width="100%"
   height="100%"
   transform="translate(-145.16142,79.294297)" /><use
   id="use62"
   inkscape:spray-origin="#path24"
   xlink:href="#path24"
   x="0"
   y="0"
   width="100%"
   height="100%"
   transform="translate(-127.02573,97.896021)" /><use
   id="use64"
   inkscape:spray-origin="#path24"
   xlink:href="#path24"
   x="0"
   y="0"
   width="100%"
   height="100%"
   transform="translate(-155.0878,81.31469)" /><use
   id="use66"
   inkscape:spray-origin="#path24"
   xlink:href="#path24"
   x="0"
   y="0"
   width="100%"
   height="100%"
   transform="translate(-148.48295,57.189264)" /><use
   id="use68"
   inkscape:spray-origin="#path24"
   xlink:href="#path24"
   x="0"
   y="0"
   width="100%"
   height="100%"
   transform="translate(-140.40365,55.343784)" /><use
   id="use70"
   inkscape:spray-origin="#path24"
   xlink:href="#path24"
   x="0"
   y="0"
   width="100%"
   height="100%"
   transform="translate(-101.22339,62.940856)" /><use
   id="use72"
   inkscape:spray-origin="#path24"
   xlink:href="#path24"
   x="0"
   y="0"
   width="100%"
   height="100%"
   transform="translate(-129.78859,48.103722)" /><use
   id="use74"
   inkscape:spray-origin="#path24"
   xlink:href="#path24"
   x="0"
   y="0"
   width="100%"
   height="100%"
   transform="translate(-141.01406,52.754379)" /><use
   id="use76"
   inkscape:spray-origin="#path24"
   xlink:href="#path24"
   x="0"
   y="0"
   width="100%"
   height="100%"
   transform="translate(-138.71085,84.339206)" /><use
   id="use78"
   inkscape:spray-origin="#path24"
   xlink:href="#path24"
   x="0"
   y="0"
   width="100%"
   height="100%"
   transform="translate(-138.39885,60.58058)" /><use
   id="use80"
   inkscape:spray-origin="#path24"
   xlink:href="#path24"
   x="0"
   y="0"
   width="100%"
   height="100%"
   transform="translate(-118.05392,69.135118)" /><use
   id="use82"
   inkscape:spray-origin="#path24"
   xlink:href="#path24"
   x="0"
   y="0"
   width="100%"
   height="100%"
   transform="translate(-135.23003,73.81754)" /><use
   id="use84"
   inkscape:spray-origin="#path24"
   xlink:href="#path24"
   x="0"
   y="0"
   width="100%"
   height="100%"
   transform="translate(-105.55363,36.301001)" /><use
   id="use86"
   inkscape:spray-origin="#path24"
   xlink:href="#path24"
   x="0"
   y="0"
   width="100%"
   height="100%"
   transform="translate(-124.39741,39.011594)" /><use
   id="use88"
   inkscape:spray-origin="#path24"
   xlink:href="#path24"
   x="0"
   y="0"
   width="100%"
   height="100%"
   transform="translate(-109.90902,35.169016)" /><use
   id="use90"
   inkscape:spray-origin="#path24"
   xlink:href="#path24"
   x="0"
   y="0"
   width="100%"
   height="100%"
   transform="translate(-87.143903,20.508043)" /><use
   id="use92"
   inkscape:spray-origin="#path24"
   xlink:href="#path24"
   x="0"
   y="0"
   width="100%"
   height="100%"
   transform="translate(-89.856826,25.789362)" /><use
   id="use94"
   inkscape:spray-origin="#path24"
   xlink:href="#path24"
   x="0"
   y="0"
   width="100%"
   height="100%"
   transform="translate(-99.508683,-3.7291362)" /><use
   id="use96"
   inkscape:spray-origin="#path24"
   xlink:href="#path24"
   x="0"
   y="0"
   width="100%"
   height="100%"
   transform="translate(-66.618289,18.307051)" /><use
   id="use98"
   inkscape:spray-origin="#path24"
   xlink:href="#path24"
   x="0"
   y="0"
   width="100%"
   height="100%"
   transform="translate(-84.60337,2.7206612)" /><use
   id="use100"
   inkscape:spray-origin="#path24"
   xlink:href="#path24"
   x="0"
   y="0"
   width="100%"
   height="100%"
   transform="translate(-54.089017,12.314169)" /><use
   id="use102"
   inkscape:spray-origin="#path24"
   xlink:href="#path24"
   x="0"
   y="0"
   width="100%"
   height="100%"
   transform="translate(-47.354877,8.0517731)" /><use
   id="use104"
   inkscape:spray-origin="#path24"
   xlink:href="#path24"
   x="0"
   y="0"
   width="100%"
   height="100%"
   transform="translate(-31.145972,9.4052732)" /><use
   id="use106"
   inkscape:spray-origin="#path24"
   xlink:href="#path24"
   x="0"
   y="0"
   width="100%"
   height="100%"
   transform="translate(-52.755928,11.232613)" /><use
   id="use108"
   inkscape:spray-origin="#path24"
   xlink:href="#path24"
   x="0"
   y="0"
   width="100%"
   height="100%"
   transform="translate(-58.217048,-6.7790791)" /><use
   id="use110"
   inkscape:spray-origin="#path24"
   xlink:href="#path24"
   x="0"
   y="0"
   width="100%"
   height="100%"
   transform="translate(-26.742442,-23.183565)" /><use
   id="use112"
   inkscape:spray-origin="#path24"
   xlink:href="#path24"
   x="0"
   y="0"
   width="100%"
   height="100%"
   transform="translate(-2.3037092,-29.948445)" /><use
   id="use114"
   inkscape:spray-origin="#path24"
   xlink:href="#path24"
   x="0"
   y="0"
   width="100%"
   height="100%"
   transform="translate(-31.978783,-3.7816835)" /><use
   id="use116"
   inkscape:spray-origin="#path24"
   xlink:href="#path24"
   x="0"
   y="0"
   width="100%"
   height="100%"
   transform="translate(-10.302237,-5.1317155)" /><use
   id="use118"
   inkscape:spray-origin="#path24"
   xlink:href="#path24"
   x="0"
   y="0"
   width="100%"
   height="100%"
   transform="translate(-23.311618,-6.5046666)" /><use
   id="use120"
   inkscape:spray-origin="#path24"
   xlink:href="#path24"
   x="0"
   y="0"
   width="100%"
   height="100%"
   transform="translate(-5.335927,-16.401088)" /><use
   id="use122"
   inkscape:spray-origin="#path24"
   xlink:href="#path24"
   x="0"
   y="0"
   width="100%"
   height="100%"
   transform="translate(-9.6193602,-31.255233)" /><use
   id="use124"
   inkscape:spray-origin="#path24"
   xlink:href="#path24"
   x="0"
   y="0"
   width="100%"
   height="100%"
   transform="translate(27.524757,-25.964674)" /><use
   id="use126"
   inkscape:spray-origin="#path24"
   xlink:href="#path24"
   x="0"
   y="0"
   width="100%"
   height="100%"
   transform="translate(-3.5930566,-40.576675)" /><use
   id="use128"
   inkscape:spray-origin="#path24"
   xlink:href="#path24"
   x="0"
   y="0"
   width="100%"
   height="100%"
   transform="translate(-1.3380331,-33.001827)" /><use
   id="use130"
   inkscape:spray-origin="#path24"
   xlink:href="#path24"
   x="0"
   y="0"
   width="100%"
   height="100%"
   transform="translate(24.343514,-18.942253)" /><use
   id="use132"
   inkscape:spray-origin="#path24"
   xlink:href="#path24"
   x="0"
   y="0"
   width="100%"
   height="100%"
   transform="translate(26.094936,-25.963245)" /><use
   id="use134"
   inkscape:spray-origin="#path24"
   xlink:href="#path24"
   x="0"
   y="0"
   width="100%"
   height="100%"
   transform="translate(9.3698438,-41.130258)" /><use
   id="use136"
   inkscape:spray-origin="#path24"
   xlink:href="#path24"
   x="0"
   y="0"
   width="100%"
   height="100%"
   transform="translate(-6.8808804,-33.928941)" /><use
   id="use138"
   inkscape:spray-origin="#path24"
   xlink:href="#path24"
   x="0"
   y="0"
   width="100%"
   height="100%"
   transform="translate(15.59927,-10.485193)" /><use
   id="use140"
   inkscape:spray-origin="#path24"
   xlink:href="#path24"
   x="0"
   y="0"
   width="100%"
   height="100%"
   transform="translate(20.267148,-38.070985)" /><use
   id="use142"
   inkscape:spray-origin="#path24"
   xlink:href="#path24"
   x="0"
   y="0"
   width="100%"
   height="100%"
   transform="translate(32.494482,-34.075428)" /><use
   id="use144"
   inkscape:spray-origin="#path24"
   xlink:href="#path24"
   x="0"
   y="0"
   width="100%"
   height="100%"
   transform="translate(12.624969,7.4787777)" /><use
   id="use146"
   inkscape:spray-origin="#path24"
   xlink:href="#path24"
   x="0"
   y="0"
   width="100%"
   height="100%"
   transform="translate(28.094216,6.9350618)" /><use
   id="use148"
   inkscape:spray-origin="#path24"
   xlink:href="#path24"
   x="0"
   y="0"
   width="100%"
   height="100%"
   transform="translate(6.4839526,21.578671)" /><use
   id="use150"
   inkscape:spray-origin="#path24"
   xlink:href="#path24"
   x="0"
   y="0"
   width="100%"
   height="100%"
   transform="translate(24.212409,28.756247)" /><use
   id="use152"
   inkscape:spray-origin="#path24"
   xlink:href="#path24"
   x="0"
   y="0"
   width="100%"
   height="100%"
   transform="translate(10.819166,16.870488)" /><use
   id="use154"
   inkscape:spray-origin="#path24"
   xlink:href="#path24"
   x="0"
   y="0"
   width="100%"
   height="100%"
   transform="translate(25.185631,26.782625)" /><use
   id="use156"
   inkscape:spray-origin="#path24"
   xlink:href="#path24"
   x="0"
   y="0"
   width="100%"
   height="100%"
   transform="translate(23.239275,9.5264599)" /><use
   id="use158"
   inkscape:spray-origin="#path24"
   xlink:href="#path24"
   x="0"
   y="0"
   width="100%"
   height="100%"
   transform="translate(4.9483809,40.132095)" /><use
   id="use160"
   inkscape:spray-origin="#path24"
   xlink:href="#path24"
   x="0"
   y="0"
   width="100%"
   height="100%"
   transform="translate(35.070998,48.350977)" /><use
   id="use162"
   inkscape:spray-origin="#path24"
   xlink:href="#path24"
   x="0"
   y="0"
   width="100%"
   height="100%"
   transform="translate(47.022632,24.632826)" /><use
   id="use164"
   inkscape:spray-origin="#path24"
   xlink:href="#path24"
   x="0"
   y="0"
   width="100%"
   height="100%"
   transform="translate(13.772339,32.064923)" /><use
   id="use166"
   inkscape:spray-origin="#path24"
   xlink:href="#path24"
   x="0"
   y="0"
   width="100%"
   height="100%"
   transform="translate(30.612976,36.278542)" /><use
   id="use168"
   inkscape:spray-origin="#path24"
   xlink:href="#path24"
   x="0"
   y="0"
   width="100%"
   height="100%"
   transform="translate(4.7565938,52.971144)" /><use
   id="use170"
   inkscape:spray-origin="#path24"
   xlink:href="#path24"
   x="0"
   y="0"
   width="100%"
   height="100%"
   transform="translate(17.325732,42.816578)" /><use
   id="use172"
   inkscape:spray-origin="#path24"
   xlink:href="#path24"
   x="0"
   y="0"
   width="100%"
   height="100%"
   transform="translate(32.923531,60.349525)" /><use
   id="use174"
   inkscape:spray-origin="#path24"
   xlink:href="#path24"
   x="0"
   y="0"
   width="100%"
   height="100%"
   transform="translate(18.700576,54.391138)" /><use
   id="use176"
   inkscape:spray-origin="#path24"
   xlink:href="#path24"
   x="0"
   y="0"
   width="100%"
   height="100%"
   transform="translate(8.974811,50.979723)" /><use
   id="use178"
   inkscape:spray-origin="#path24"
   xlink:href="#path24"
   x="0"
   y="0"
   width="100%"
   height="100%"
   transform="translate(4.8241324,48.283736)" /><use
   id="use180"
   inkscape:spray-origin="#path24"
   xlink:href="#path24"
   x="0"
   y="0"
   width="100%"
   height="100%"
   transform="translate(24.900495,41.665706)" /><use
   id="use182"
   inkscape:spray-origin="#path24"
   xlink:href="#path24"
   x="0"
   y="0"
   width="100%"
   height="100%"
   transform="translate(23.920932,62.62769)" /><use
   id="use184"
   inkscape:spray-origin="#path24"
   xlink:href="#path24"
   x="0"
   y="0"
   width="100%"
   height="100%"
   transform="translate(21.335165,30.557952)" /><use
   id="use186"
   inkscape:spray-origin="#path24"
   xlink:href="#path24"
   x="0"
   y="0"
   width="100%"
   height="100%"
   transform="translate(-8.8418668,65.034855)" /><use
   id="use188"
   inkscape:spray-origin="#path24"
   xlink:href="#path24"
   x="0"
   y="0"
   width="100%"
   height="100%"
   transform="translate(23.316665,55.096235)" /><use
   id="use190"
   inkscape:spray-origin="#path24"
   xlink:href="#path24"
   x="0"
   y="0"
   width="100%"
   height="100%"
   transform="translate(-3.3879374,59.180644)" /><use
   id="use192"
   inkscape:spray-origin="#path24"
   xlink:href="#path24"
   x="0"
   y="0"
   width="100%"
   height="100%"
   transform="translate(12.074172,75.119644)" /><use
   id="use194"
   inkscape:spray-origin="#path24"
   xlink:href="#path24"
   x="0"
   y="0"
   width="100%"
   height="100%"
   transform="translate(-17.471739,73.220299)" /><use
   id="use196"
   inkscape:spray-origin="#path24"
   xlink:href="#path24"
   x="0"
   y="0"
   width="100%"
   height="100%"
   transform="translate(-26.224894,67.356044)" /><use
   id="use198"
   inkscape:spray-origin="#path24"
   xlink:href="#path24"
   x="0"
   y="0"
   width="100%"
   height="100%"
   transform="translate(-29.703118,91.559744)" /><use
   id="use200"
   inkscape:spray-origin="#path24"
   xlink:href="#path24"
   x="0"
   y="0"
   width="100%"
   height="100%"
   transform="translate(-39.570358,81.284788)" /><use
   id="use202"
   inkscape:spray-origin="#path24"
   xlink:href="#path24"
   x="0"
   y="0"
   width="100%"
   height="100%"
   transform="translate(-7.6630624,105.31025)" /><use
   id="use204"
   inkscape:spray-origin="#path24"
   xlink:href="#path24"
   x="0"
   y="0"
   width="100%"
   height="100%"
   transform="translate(-24.360015,119.57073)" /><use
   id="use206"
   inkscape:spray-origin="#path24"
   xlink:href="#path24"
   x="0"
   y="0"
   width="100%"
   height="100%"
   transform="translate(-9.4240872,108.57741)" /><use
   id="use208"
   inkscape:spray-origin="#path24"
   xlink:href="#path24"
   x="0"
   y="0"
   width="100%"
   height="100%"
   transform="translate(-43.292784,136.12586)" /><use
   id="use210"
   inkscape:spray-origin="#path24"
   xlink:href="#path24"
   x="0"
   y="0"
   width="100%"
   height="100%"
   transform="translate(-41.435733,105.265)" /><use
   id="use212"
   inkscape:spray-origin="#path24"
   xlink:href="#path24"
   x="0"
   y="0"
   width="100%"
   height="100%"
   transform="translate(-33.273683,136.67089)" /><use
   id="use214"
   inkscape:spray-origin="#path24"
   xlink:href="#path24"
   x="0"
   y="0"
   width="100%"
   height="100%"
   transform="translate(-48.998545,143.86073)" /><use
   id="use216"
   inkscape:spray-origin="#path24"
   xlink:href="#path24"
   x="0"
   y="0"
   width="100%"
   height="100%"
   transform="translate(-34.515414,139.25801)" /><use
   id="use218"
   inkscape:spray-origin="#path24"
   xlink:href="#path24"
   x="0"
   y="0"
   width="100%"
   height="100%"
   transform="translate(-74.807878,135.20329)" /><use
   id="use220"
   inkscape:spray-origin="#path24"
   xlink:href="#path24"
   x="0"
   y="0"
   width="100%"
   height="100%"
   transform="translate(-82.963094,138.89043)" /><use
   id="use222"
   inkscape:spray-origin="#path24"
   xlink:href="#path24"
   x="0"
   y="0"
   width="100%"
   height="100%"
   transform="translate(-99.828618,154.72456)" /><use
   id="use224"
   inkscape:spray-origin="#path24"
   xlink:href="#path24"
   x="0"
   y="0"
   width="100%"
   height="100%"
   transform="translate(-90.7575,154.85411)" /><use
   id="use226"
   inkscape:spray-origin="#path24"
   xlink:href="#path24"
   x="0"
   y="0"
   width="100%"
   height="100%"
   transform="translate(-95.66227,140.56352)" /><use
   id="use228"
   inkscape:spray-origin="#path24"
   xlink:href="#path24"
   x="0"
   y="0"
   width="100%"
   height="100%"
   transform="translate(-99.065041,164.38144)" /><use
   id="use230"
   inkscape:spray-origin="#path24"
   xlink:href="#path24"
   x="0"
   y="0"
   width="100%"
   height="100%"
   transform="translate(-107.19701,150.70823)" /><use
   id="use232"
   inkscape:spray-origin="#path24"
   xlink:href="#path24"
   x="0"
   y="0"
   width="100%"
   height="100%"
   transform="translate(-107.90101,166.72096)" /><use
   id="use234"
   inkscape:spray-origin="#path24"
   xlink:href="#path24"
   x="0"
   y="0"
   width="100%"
   height="100%"
   transform="translate(-122.03054,194.91987)" /><use
   id="use236"
   inkscape:spray-origin="#path24"
   xlink:href="#path24"
   x="0"
   y="0"
   width="100%"
   height="100%"
   transform="translate(-127.74325,176.16172)" /><use
   id="use238"
   inkscape:spray-origin="#path24"
   xlink:href="#path24"
   x="0"
   y="0"
   width="100%"
   height="100%"
   transform="translate(-144.58742,192.33338)" /><use
   id="use240"
   inkscape:spray-origin="#path24"
   xlink:href="#path24"
   x="0"
   y="0"
   width="100%"
   height="100%"
   transform="translate(-138.70847,191.9748)" /><use
   id="use242"
   inkscape:spray-origin="#path24"
   xlink:href="#path24"
   x="0"
   y="0"
   width="100%"
   height="100%"
   transform="translate(-176.11703,186.86415)" /><use
   id="use244"
   inkscape:spray-origin="#path24"
   xlink:href="#path24"
   x="0"
   y="0"
   width="100%"
   height="100%"
   transform="translate(-165.84291,224.82437)" /><use
   id="use246"
   inkscape:spray-origin="#path24"
   xlink:href="#path24"
   x="0"
   y="0"
   width="100%"
   height="100%"
   transform="translate(-185.01556,223.56118)" /><use
   id="use248"
   inkscape:spray-origin="#path24"
   xlink:href="#path24"
   x="0"
   y="0"
   width="100%"
   height="100%"
   transform="translate(-175.19489,225.00941)" /><use
   id="use250"
   inkscape:spray-origin="#path24"
   xlink:href="#path24"
   x="0"
   y="0"
   width="100%"
   height="100%"
   transform="translate(-190.67175,235.21551)" /><use
   id="use252"
   inkscape:spray-origin="#path24"
   xlink:href="#path24"
   x="0"
   y="0"
   width="100%"
   height="100%"
   transform="translate(-215.76137,218.35987)" /><use
   id="use254"
   inkscape:spray-origin="#path24"
   xlink:href="#path24"
   x="0"
   y="0"
   width="100%"
   height="100%"
   transform="translate(-186.77325,242.44815)" /><use
   id="use256"
   inkscape:spray-origin="#path24"
   xlink:href="#path24"
   x="0"
   y="0"
   width="100%"
   height="100%"
   transform="translate(-222.74826,224.99778)" /><use
   id="use258"
   inkscape:spray-origin="#path24"
   xlink:href="#path24"
   x="0"
   y="0"
   width="100%"
   height="100%"
   transform="translate(-193.94123,240.35575)" /><use
   id="use260"
   inkscape:spray-origin="#path24"
   xlink:href="#path24"
   x="0"
   y="0"
   width="100%"
   height="100%"
   transform="translate(-197.9338,219.58648)" /><use
   id="use262"
   inkscape:spray-origin="#path24"
   xlink:href="#path24"
   x="0"
   y="0"
   width="100%"
   height="100%"
   transform="translate(-225.33217,232.17124)" /><use
   id="use264"
   inkscape:spray-origin="#path24"
   xlink:href="#path24"
   x="0"
   y="0"
   width="100%"
   height="100%"
   transform="translate(-231.00591,218.63907)" /><use
   id="use266"
   inkscape:spray-origin="#path24"
   xlink:href="#path24"
   x="0"
   y="0"
   width="100%"
   height="100%"
   transform="translate(-220.31962,229.74316)" /><use
   id="use268"
   inkscape:spray-origin="#path24"
   xlink:href="#path24"
   x="0"
   y="0"
   width="100%"
   height="100%"
   transform="translate(-215.52464,248.59841)" /><use
   id="use270"
   inkscape:spray-origin="#path24"
   xlink:href="#path24"
   x="0"
   y="0"
   width="100%"
   height="100%"
   transform="translate(-228.57061,226.55836)" /><use
   id="use272"
   inkscape:spray-origin="#path24"
   xlink:href="#path24"
   x="0"
   y="0"
   width="100%"
   height="100%"
   transform="translate(-218.49659,218.57865)" /><use
   id="use274"
   inkscape:spray-origin="#path24"
   xlink:href="#path24"
   x="0"
   y="0"
   width="100%"
   height="100%"
   transform="translate(-209.77682,236.04647)" /><use
   id="use276"
   inkscape:spray-origin="#path24"
   xlink:href="#path24"
   x="0"
   y="0"
   width="100%"
   height="100%"
   transform="translate(-211.19433,244.85852)" /><use
   id="use278"
   inkscape:spray-origin="#path24"
   xlink:href="#path24"
   x="0"
   y="0"
   width="100%"
   height="100%"
   transform="translate(-213.45788,234.81408)" /><use
   id="use280"
   inkscape:spray-origin="#path24"
   xlink:href="#path24"
   x="0"
   y="0"
   width="100%"
   height="100%"
   transform="translate(-211.87849,228.98751)" /><use
   id="use282"
   inkscape:spray-origin="#path24"
   xlink:href="#path24"
   x="0"
   y="0"
   width="100%"
   height="100%"
   transform="translate(-242.82266,245.37051)" /><use
   id="use284"
   inkscape:spray-origin="#path24"
   xlink:href="#path24"
   x="0"
   y="0"
   width="100%"
   height="100%"
   transform="translate(-231.57643,217.1062)" /><use
   id="use286"
   inkscape:spray-origin="#path24"
   xlink:href="#path24"
   x="0"
   y="0"
   width="100%"
   height="100%"
   transform="translate(-246.10662,216.56013)" /><use
   id="use288"
   inkscape:spray-origin="#path24"
   xlink:href="#path24"
   x="0"
   y="0"
   width="100%"
   height="100%"
   transform="translate(-250.75182,247.90131)" /><use
   id="use290"
   inkscape:spray-origin="#path24"
   xlink:href="#path24"
   x="0"
   y="0"
   width="100%"
   height="100%"
   transform="translate(-237.5708,244.77725)" /><use
   id="use292"
   inkscape:spray-origin="#path24"
   xlink:href="#path24"
   x="0"
   y="0"
   width="100%"
   height="100%"
   transform="translate(-253.74407,215.6382)" /><use
   id="use294"
   inkscape:spray-origin="#path24"
   xlink:href="#path24"
   x="0"
   y="0"
   width="100%"
   height="100%"
   transform="translate(-245.74013,199.51254)" /><use
   id="use296"
   inkscape:spray-origin="#path24"
   xlink:href="#path24"
   x="0"
   y="0"
   width="100%"
   height="100%"
   transform="translate(-239.55217,222.6432)" /><use
   id="use298"
   inkscape:spray-origin="#path24"
   xlink:href="#path24"
   x="0"
   y="0"
   width="100%"
   height="100%"
   transform="translate(-241.48917,243.39166)" /><use
   id="use300"
   inkscape:spray-origin="#path24"
   xlink:href="#path24"
   x="0"
   y="0"
   width="100%"
   height="100%"
   transform="translate(-222.34931,228.70397)" /><use
   id="use302"
   inkscape:spray-origin="#path24"
   xlink:href="#path24"
   x="0"
   y="0"
   width="100%"
   height="100%"
   transform="translate(-244.14923,234.73837)" /><use
   id="use304"
   inkscape:spray-origin="#path24"
   xlink:href="#path24"
   x="0"
   y="0"
   width="100%"
   height="100%"
   transform="translate(-225.12071,199.89582)" /><use
   id="use306"
   inkscape:spray-origin="#path24"
   xlink:href="#path24"
   x="0"
   y="0"
   width="100%"
   height="100%"
   transform="translate(-228.95327,206.25224)" /><use
   id="use308"
   inkscape:spray-origin="#path24"
   xlink:href="#path24"
   x="0"
   y="0"
   width="100%"
   height="100%"
   transform="translate(-242.69546,220.08786)" /><use
   id="use310"
   inkscape:spray-origin="#path24"
   xlink:href="#path24"
   x="0"
   y="0"
   width="100%"
   height="100%"
   transform="translate(-258.5458,190.36387)" /><use
   id="use312"
   inkscape:spray-origin="#path24"
   xlink:href="#path24"
   x="0"
   y="0"
   width="100%"
   height="100%"
   transform="translate(-228.2121,198.50368)" /><use
   id="use314"
   inkscape:spray-origin="#path24"
   xlink:href="#path24"
   x="0"
   y="0"
   width="100%"
   height="100%"
   transform="translate(-249.83988,192.23366)" /><use
   id="use316"
   inkscape:spray-origin="#path24"
   xlink:href="#path24"
   x="0"
   y="0"
   width="100%"
   height="100%"
   transform="translate(-202.34488,167.49944)" /><use
   id="use318"
   inkscape:spray-origin="#path24"
   xlink:href="#path24"
   x="0"
   y="0"
   width="100%"
   height="100%"
   transform="translate(-207.00067,151.13443)" /><use
   id="use320"
   inkscape:spray-origin="#path24"
   xlink:href="#path24"
   x="0"
   y="0"
   width="100%"
   height="100%"
   transform="translate(-235.893,164.4004)" /><use
   id="use322"
   inkscape:spray-origin="#path24"
   xlink:href="#path24"
   x="0"
   y="0"
   width="100%"
   height="100%"
   transform="translate(-203.41806,149.92232)" /><use
   id="use324"
   inkscape:spray-origin="#path24"
   xlink:href="#path24"
   x="0"
   y="0"
   width="100%"
   height="100%"
   transform="translate(-207.28522,152.75464)" /><use
   id="use326"
   inkscape:spray-origin="#path24"
   xlink:href="#path24"
   x="0"
   y="0"
   width="100%"
   height="100%"
   transform="translate(-228.96465,162.817)" /><use
   id="use328"
   inkscape:spray-origin="#path24"
   xlink:href="#path24"
   x="0"
   y="0"
   width="100%"
   height="100%"
   transform="translate(-232.45792,160.79675)" /><use
   id="use330"
   inkscape:spray-origin="#path24"
   xlink:href="#path24"
   x="0"
   y="0"
   width="100%"
   height="100%"
   transform="translate(-210.10219,150.63905)" /><use
   id="use332"
   inkscape:spray-origin="#path24"
   xlink:href="#path24"
   x="0"
   y="0"
   width="100%"
   height="100%"
   transform="translate(-233.41869,147.73434)" /><use
   id="use334"
   inkscape:spray-origin="#path24"
   xlink:href="#path24"
   x="0"
   y="0"
   width="100%"
   height="100%"
   transform="translate(-205.60771,135.95564)" /><use
   id="use336"
   inkscape:spray-origin="#path24"
   xlink:href="#path24"
   x="0"
   y="0"
   width="100%"
   height="100%"
   transform="translate(-204.69031,130.4845)" /><use
   id="use338"
   inkscape:spray-origin="#path24"
   xlink:href="#path24"
   x="0"
   y="0"
   width="100%"
   height="100%"
   transform="translate(-208.28957,131.35455)" /><use
   id="use340"
   inkscape:spray-origin="#path24"
   xlink:href="#path24"
   x="0"
   y="0"
   width="100%"
   height="100%"
   transform="translate(-217.51934,150.4576)" /><use
   id="use342"
   inkscape:spray-origin="#path24"
   xlink:href="#path24"
   x="0"
   y="0"
   width="100%"
   height="100%"
   transform="translate(-212.43557,166.53327)" /><use
   id="use344"
   inkscape:spray-origin="#path24"
   xlink:href="#path24"
   x="0"
   y="0"
   width="100%"
   height="100%"
   transform="translate(-209.34076,150.6215)" /><use
   id="use346"
   inkscape:spray-origin="#path24"
   xlink:href="#path24"
   x="0"
   y="0"
   width="100%"
   height="100%"
   transform="translate(-226.10826,152.89418)" /><use
   id="use348"
   inkscape:spray-origin="#path24"
   xlink:href="#path24"
   x="0"
   y="0"
   width="100%"
   height="100%"
   transform="translate(-220.76139,158.12661)" /><use
   id="use350"
   inkscape:spray-origin="#path24"
   xlink:href="#path24"
   x="0"
   y="0"
   width="100%"
   height="100%"
   transform="translate(-223.67564,187.60607)" /><use
   id="use352"
   inkscape:spray-origin="#path24"
   xlink:href="#path24"
   x="0"
   y="0"
   width="100%"
   height="100%"
   transform="translate(-252.04874,190.88577)" /><use
   id="use354"
   inkscape:spray-origin="#path24"
   xlink:href="#path24"
   x="0"
   y="0"
   width="100%"
   height="100%"
   transform="translate(-227.51083,161.82212)" /><use
   id="use356"
   inkscape:spray-origin="#path24"
   xlink:href="#path24"
   x="0"
   y="0"
   width="100%"
   height="100%"
   transform="translate(-235.02591,215.08406)" /><use
   id="use358"
   inkscape:spray-origin="#path24"
   xlink:href="#path24"
   x="0"
   y="0"
   width="100%"
   height="100%"
   transform="translate(-232.92589,195.69099)" /><use
   id="use360"
   inkscape:spray-origin="#path24"
   xlink:href="#path24"
   x="0"
   y="0"
   width="100%"
   height="100%"
   transform="translate(-213.8838,189.5134)" /><use
   id="use362"
   inkscape:spray-origin="#path24"
   xlink:href="#path24"
   x="0"
   y="0"
   width="100%"
   height="100%"
   transform="translate(-195.2775,188.98288)" /><use
   id="use364"
   inkscape:spray-origin="#path24"
   xlink:href="#path24"
   x="0"
   y="0"
   width="100%"
   height="100%"
   transform="translate(-187.9525,204.95447)" /><use
   id="use366"
   inkscape:spray-origin="#path24"
   xlink:href="#path24"
   x="0"
   y="0"
   width="100%"
   height="100%"
   transform="translate(-176.84877,201.21349)" /><use
   id="use368"
   inkscape:spray-origin="#path24"
   xlink:href="#path24"
   x="0"
   y="0"
   width="100%"
   height="100%"
   transform="translate(-140.62401,216.72669)" /><use
   id="use370"
   inkscape:spray-origin="#path24"
   xlink:href="#path24"
   x="0"
   y="0"
   width="100%"
   height="100%"
   transform="translate(-162.85779,191.72233)" /><use
   id="use372"
   inkscape:spray-origin="#path24"
   xlink:href="#path24"
   x="0"
   y="0"
   width="100%"
   height="100%"
   transform="translate(-143.2626,196.215)" /><use
   id="use374"
   inkscape:spray-origin="#path24"
   xlink:href="#path24"
   x="0"
   y="0"
   width="100%"
   height="100%"
   transform="translate(-118.65493,215.76575)" /><use
   id="use376"
   inkscape:spray-origin="#path24"
   xlink:href="#path24"
   x="0"
   y="0"
   width="100%"
   height="100%"
   transform="translate(-136.45669,227.58343)" /><use
   id="use378"
   inkscape:spray-origin="#path24"
   xlink:href="#path24"
   x="0"
   y="0"
   width="100%"
   height="100%"
   transform="translate(-98.075877,215.86043)" /><use
   id="use380"
   inkscape:spray-origin="#path24"
   xlink:href="#path24"
   x="0"
   y="0"
   width="100%"
   height="100%"
   transform="translate(-107.47632,238.10718)" /><use
   id="use382"
   inkscape:spray-origin="#path24"
   xlink:href="#path24"
   x="0"
   y="0"
   width="100%"
   height="100%"
   transform="translate(-122.21391,218.37427)" /><use
   id="use384"
   inkscape:spray-origin="#path24"
   xlink:href="#path24"
   x="0"
   y="0"
   width="100%"
   height="100%"
   transform="translate(-98.862945,233.31534)" /><use
   id="use386"
   inkscape:spray-origin="#path24"
   xlink:href="#path24"
   x="0"
   y="0"
   width="100%"
   height="100%"
   transform="translate(-101.93591,242.78097)" /><use
   id="use388"
   inkscape:spray-origin="#path24"
   xlink:href="#path24"
   x="0"
   y="0"
   width="100%"
   height="100%"
   transform="translate(-93.745944,221.18467)" /><use
   id="use390"
   inkscape:spray-origin="#path24"
   xlink:href="#path24"
   x="0"
   y="0"
   width="100%"
   height="100%"
   transform="translate(-82.573822,222.52634)" /><use
   id="use392"
   inkscape:spray-origin="#path24"
   xlink:href="#path24"
   x="0"
   y="0"
   width="100%"
   height="100%"
   transform="translate(-88.46719,217.94848)" /><use
   id="use394"
   inkscape:spray-origin="#path24"
   xlink:href="#path24"
   x="0"
   y="0"
   width="100%"
   height="100%"
   transform="translate(-101.56779,241.24224)" /><use
   id="use396"
   inkscape:spray-origin="#path24"
   xlink:href="#path24"
   x="0"
   y="0"
   width="100%"
   height="100%"
   transform="translate(-74.45932,213.29908)" /><use
   id="use398"
   inkscape:spray-origin="#path24"
   xlink:href="#path24"
   x="0"
   y="0"
   width="100%"
   height="100%"
   transform="translate(-94.045842,209.06209)" /><use
   id="use400"
   inkscape:spray-origin="#path24"
   xlink:href="#path24"
   x="0"
   y="0"
   width="100%"
   height="100%"
   transform="translate(-90.535151,206.45147)" /><use
   id="use402"
   inkscape:spray-origin="#path24"
   xlink:href="#path24"
   x="0"
   y="0"
   width="100%"
   height="100%"
   transform="translate(-109.88959,216.35024)" /><use
   id="use404"
   inkscape:spray-origin="#path24"
   xlink:href="#path24"
   x="0"
   y="0"
   width="100%"
   height="100%"
   transform="translate(-105.08507,219.60573)" /><use
   id="use406"
   inkscape:spray-origin="#path24"
   xlink:href="#path24"
   x="0"
   y="0"
   width="100%"
   height="100%"
   transform="translate(-118.72341,228.17618)" /><use
   id="use408"
   inkscape:spray-origin="#path24"
   xlink:href="#path24"
   x="0"
   y="0"
   width="100%"
   height="100%"
   transform="translate(-109.99261,191.96351)" /><use
   id="use410"
   inkscape:spray-origin="#path24"
   xlink:href="#path24"
   x="0"
   y="0"
   width="100%"
   height="100%"
   transform="translate(-119.34044,211.20155)" /><use
   id="use412"
   inkscape:spray-origin="#path24"
   xlink:href="#path24"
   x="0"
   y="0"
   width="100%"
   height="100%"
   transform="translate(-167.37949,194.26632)" /><use
   id="use414"
   inkscape:spray-origin="#path24"
   xlink:href="#path24"
   x="0"
   y="0"
   width="100%"
   height="100%"
   transform="translate(-182.63848,187.14659)" /><use
   id="use416"
   inkscape:spray-origin="#path24"
   xlink:href="#path24"
   x="0"
   y="0"
   width="100%"
   height="100%"
   transform="translate(-190.22494,205.36536)" /><use
   id="use418"
   inkscape:spray-origin="#path24"
   xlink:href="#path24"
   x="0"
   y="0"
   width="100%"
   height="100%"
   transform="translate(-198.79118,169.3897)" /><use
   id="use420"
   inkscape:spray-origin="#path24"
   xlink:href="#path24"
   x="0"
   y="0"
   width="100%"
   height="100%"
   transform="translate(-183.35715,189.66968)" /><use
   id="use422"
   inkscape:spray-origin="#path24"
   xlink:href="#path24"
   x="0"
   y="0"
   width="100%"
   height="100%"
   transform="translate(-198.25174,164.67475)" /><use
   id="use424"
   inkscape:spray-origin="#path24"
   xlink:href="#path24"
   x="0"
   y="0"
   width="100%"
   height="100%"
   transform="translate(-197.99733,200.05317)" /><use
   id="use426"
   inkscape:spray-origin="#path24"
   xlink:href="#path24"
   x="0"
   y="0"
   width="100%"
   height="100%"
   transform="translate(-180.36404,155.56365)" /><use
   id="use428"
   inkscape:spray-origin="#path24"
   xlink:href="#path24"
   x="0"
   y="0"
   width="100%"
   height="100%"
   transform="translate(-193.35475,196.94809)" /><use
   id="use430"
   inkscape:spray-origin="#path24"
   xlink:href="#path24"
   x="0"
   y="0"
   width="100%"
   height="100%"
   transform="translate(-195.29704,182.95155)" /><use
   id="use432"
   inkscape:spray-origin="#path24"
   xlink:href="#path24"
   x="0"
   y="0"
   width="100%"
   height="100%"
   transform="translate(-178.55196,203.82075)" /><use
   id="use434"
   inkscape:spray-origin="#path24"
   xlink:href="#path24"
   x="0"
   y="0"
   width="100%"
   height="100%"
   transform="translate(-197.53461,179.93184)" /><use
   id="use436"
   inkscape:spray-origin="#path24"
   xlink:href="#path24"
   x="0"
   y="0"
   width="100%"
   height="100%"
   transform="translate(-187.20659,182.01481)" /><use
   id="use438"
   inkscape:spray-origin="#path24"
   xlink:href="#path24"
   x="0"
   y="0"
   width="100%"
   height="100%"
   transform="translate(-209.05196,167.83351)" /><use
   id="use440"
   inkscape:spray-origin="#path24"
   xlink:href="#path24"
   x="0"
   y="0"
   width="100%"
   height="100%"
   transform="translate(-196.91597,181.71764)" /><use
   id="use442"
   inkscape:spray-origin="#path24"
   xlink:href="#path24"
   x="0"
   y="0"
   width="100%"
   height="100%"
   transform="translate(-185.95484,155.46174)" /><use
   id="use444"
   inkscape:spray-origin="#path24"
   xlink:href="#path24"
   x="0"
   y="0"
   width="100%"
   height="100%"
   transform="translate(-186.60973,142.26479)" /><use
   id="use446"
   inkscape:spray-origin="#path24"
   xlink:href="#path24"
   x="0"
   y="0"
   width="100%"
   height="100%"
   transform="translate(-168.64934,159.01584)" /><use
   id="use448"
   inkscape:spray-origin="#path24"
   xlink:href="#path24"
   x="0"
   y="0"
   width="100%"
   height="100%"
   transform="translate(-151.39571,106.73707)" /><use
   id="use450"
   inkscape:spray-origin="#path24"
   xlink:href="#path24"
   x="0"
   y="0"
   width="100%"
   height="100%"
   transform="translate(-148.86588,139.0176)" /><use
   id="use452"
   inkscape:spray-origin="#path24"
   xlink:href="#path24"
   x="0"
   y="0"
   width="100%"
   height="100%"
   transform="translate(-142.41297,111.57833)" /><use
   id="use454"
   inkscape:spray-origin="#path24"
   xlink:href="#path24"
   x="0"
   y="0"
   width="100%"
   height="100%"
   transform="translate(-128.21738,133.55824)" /><use
   id="use456"
   inkscape:spray-origin="#path24"
   xlink:href="#path24"
   x="0"
   y="0"
   width="100%"
   height="100%"
   transform="translate(-164.8496,112.98377)" /><use
   id="use458"
   inkscape:spray-origin="#path24"
   xlink:href="#path24"
   x="0"
   y="0"
   width="100%"
   height="100%"
   transform="translate(-134.61935,97.002419)" /><use
   id="use460"
   inkscape:spray-origin="#path24"
   xlink:href="#path24"
   x="0"
   y="0"
   width="100%"
   height="100%"
   transform="translate(-139.26912,136.34896)" /><use
   id="use462"
   inkscape:spray-origin="#path24"
   xlink:href="#path24"
   x="0"
   y="0"
   width="100%"
   height="100%"
   transform="translate(-132.57333,104.05377)" /><use
   id="use464"
   inkscape:spray-origin="#path24"
   xlink:href="#path24"
   x="0"
   y="0"
   width="100%"
   height="100%"
   transform="translate(-127.49429,107.72729)" /><use
   id="use466"
   inkscape:spray-origin="#path24"
   xlink:href="#path24"
   x="0"
   y="0"
   width="100%"
   height="100%"
   transform="translate(-119.55192,102.59835)" /><use
   id="use468"
   inkscape:spray-origin="#path24"
   xlink:href="#path24"
   x="0"
   y="0"
   width="100%"
   height="100%"
   transform="translate(-148.29168,134.85856)" /><use
   id="use470"
   inkscape:spray-origin="#path24"
   xlink:href="#path24"
   x="0"
   y="0"
   width="100%"
   height="100%"
   transform="translate(-148.39284,118.04542)" /><text
   xml:space="preserve"
   style="font-style:normal;font-weight:normal;font-size:40px;line-height:1.25;font-family:sans-serif;letter-spacing:0px;word-spacing:0px;fill:#000000;fill-opacity:1;stroke:none"
   x="206.43301"
   y="261.25122"
   id="text900"><tspan
     sodipodi:role="line"
     id="tspan898"
     x="206.43301"
     y="296.64185"
     style="font-style:normal;font-variant:normal;font-weight:bold;font-stretch:normal;font-size:192px;line-height:6.25;font-family:Arial;-inkscape-font-specification:'Arial Bold'" /></text>

<flowRoot
   xml:space="preserve"
   id="flowRoot6935"
   style="fill:black;fill-opacity:1;stroke:none;font-family:sans-serif;font-style:normal;font-weight:normal;font-size:40px;line-height:1.25;letter-spacing:0px;word-spacing:0px"><flowRegion
     id="flowRegion6937"><rect
       id="rect6939"
       width="342.26718"
       height="51.840843"
       x="3.125"
       y="175.54166" /></flowRegion><flowPara
     id="flowPara6941" /></flowRoot><text
   xml:space="preserve"
   style="font-style:normal;font-weight:normal;font-size:81.71115875px;line-height:1.25;font-family:sans-serif;letter-spacing:0px;word-spacing:0px;opacity:1;fill:#000000;fill-opacity:1;stroke:none;stroke-width:2.04277897"
   x="125.74976"
   y="381.58737"
   id="text422"
   transform="scale(1.0933409,0.91462782)"><tspan
     sodipodi:role="line"
     id="tspan420"
     x="125.74976"
     y="381.58737"
     style="font-style:normal;font-variant:normal;font-weight:bold;font-stretch:normal;font-size:392.21356201px;line-height:674.11706543px;font-family:Arial;-inkscape-font-specification:'Arial Bold';fill:#ffffff;stroke-width:2.04277897">x</tspan></text>

</svg>