<?xml version="1.0" encoding="UTF-8" standalone="no"?>
<!--?xml version="1.0" encoding="utf-8"?-->

<!-- Generator: Adobe Illustrator 18.1.1, SVG Export Plug-In . SVG Version: 6.00 Build 0)  -->

<svg
   xmlns:dc="http://purl.org/dc/elements/1.1/"
   xmlns:cc="http://creativecommons.org/ns#"
   xmlns:rdf="http://www.w3.org/1999/02/22-rdf-syntax-ns#"
   xmlns:svg="http://www.w3.org/2000/svg"
   xmlns="http://www.w3.org/2000/svg"
   xmlns:sodipodi="http://sodipodi.sourceforge.net/DTD/sodipodi-0.dtd"
   xmlns:inkscape="http://www.inkscape.org/namespaces/inkscape"
   version="1.1"
   id="_x32_"
   x="0px"
   y="0px"
   viewBox="0 0 512 512"
   style="width: 512px; height: 512px; opacity: 1;"
   xml:space="preserve"
   sodipodi:docname="icon_zip_hover.svg"
   inkscape:version="0.92.4 (5da689c313, 2019-01-14)"
   inkscape:export-filename="C:\Users\h-moriyama\★Folder\02_共通データ\カスタマイズ (iconn)\アイコンシステムデザイン\アイコン\PNG\icon_file-pdf-dl-hover.png"
   inkscape:export-xdpi="96"
   inkscape:export-ydpi="96"><metadata
   id="metadata23"><rdf:RDF><cc:Work
       rdf:about=""><dc:format>image/svg+xml</dc:format><dc:type
         rdf:resource="http://purl.org/dc/dcmitype/StillImage" /><dc:title></dc:title></cc:Work></rdf:RDF></metadata><defs
   id="defs21">
	
	
	
	
	
	
</defs><sodipodi:namedview
   pagecolor="#ffffff"
   bordercolor="#666666"
   borderopacity="1"
   objecttolerance="10"
   gridtolerance="10"
   guidetolerance="10"
   inkscape:pageopacity="0"
   inkscape:pageshadow="2"
   inkscape:window-width="1920"
   inkscape:window-height="976"
   id="namedview19"
   showgrid="false"
   inkscape:snap-text-baseline="false"
   inkscape:snap-bbox="true"
   inkscape:bbox-paths="false"
   inkscape:snap-intersection-paths="true"
   inkscape:zoom="0.35355339"
   inkscape:cx="814.63466"
   inkscape:cy="-11.222836"
   inkscape:window-x="-8"
   inkscape:window-y="-8"
   inkscape:window-maximized="1"
   inkscape:current-layer="_x32_"
   inkscape:snap-bbox-midpoints="true"
   inkscape:snap-object-midpoints="true"
   inkscape:snap-midpoints="true"
   inkscape:snap-bbox-edge-midpoints="false" />
<style
   type="text/css"
   id="style2">
	.st0{fill:#4B4B4B;}
</style>
<path
   style="fill:#ff5252;fill-opacity:1;stroke-width:1.41421354"
   d="m 79.272479,510.98918 c -1.934357,-0.3672 -5.285039,-1.92657 -7.44596,-3.46527 -8.630237,-6.14528 -8.128912,5.16892 -8.128912,-183.45799 V 151.52741 l 65.407373,-0.41933 c 70.94274,-0.45483 69.54421,-0.30175 76.89792,-8.41671 6.99789,-7.72227 6.86881,-6.37137 7.3131,-76.543104 l 0.41886,-66.15569392 110.66012,0.39476275 C 447.57544,0.82676196 439.34244,0.14629372 445.5975,10.404879 c 2.70291,4.432902 2.75562,9.13187 2.75562,245.642771 0,236.65959 -0.051,241.20723 -2.7606,245.65094 -1.51833,2.49015 -4.85703,5.67213 -7.41933,7.07107 -4.40894,2.40716 -14.06116,2.55274 -180.02122,2.71533 -96.44936,0.0945 -176.945134,-0.12869 -178.879491,-0.49581 z M 356.14574,451.56267 355.73271,440.60252 H 256.03065 156.3286 l -0.41304,10.96015 -0.41305,10.96016 h 100.52814 100.52814 z m -54.08143,-52.96688 43.31855,-35.77502 -24.84462,-0.38605 -24.84461,-0.38605 -0.38605,-25.0698 -0.38605,-25.06979 h -38.89088 -38.89087 l -0.38605,25.06979 -0.38605,25.0698 -24.85484,0.38605 -24.85484,0.38605 44.20425,36.48095 c 24.31234,20.06453 45.03209,36.16328 46.04389,35.77501 1.01181,-0.38826 21.33298,-16.80469 45.15817,-36.48094 z M 149.96463,264.68189 v -18.23583 l 16.61701,-0.55981 c 19.60731,-0.66053 26.25579,-3.26676 32.52534,-12.75002 3.44564,-5.21185 3.89066,-7.20425 3.89066,-17.41855 0,-10.38819 -0.40189,-12.11334 -4.04695,-17.37187 -7.14954,-10.31421 -11.82758,-11.59463 -42.36149,-11.59463 l 51.07644,-3.5 4,52.08326 -4.5,50.58326 -67.1005,-3 h 9.89949 z m 127.74952,13.46388 c 8.73728,-4.27476 13.24172,-9.2339 18.21587,-20.05466 2.7658,-6.01673 3.20711,-9.26411 3.16056,-23.25667 -0.0631,-18.97979 -21.52954,-41.73546 -29.83927,-50.29172 -9.31321,-9.5895 51.94864,5.96629 21.7334,5.45388 -9.07454,-0.15389 101.12921,98.19221 -73.72361,98.03832 l 2,-53.13318 v 48.36683 l 25.20728,-0.59497 c 24.0954,-0.56873 25.56186,-0.76844 33.24577,-4.52783 z m 43.51246,-18.69533 14,-17.46728 20.15255,-0.39237 20.15254,-0.39239 v -7.77817 l 8,16.22182 -16.65254,2.60762 -51.45154,-18.35804 19.79899,-19.56709 V 203.7918 l 22.98097,-0.38858 22.98097,-0.38858 -15.57587,2.36827 16.42413,-18.63173 h -33.3046 l 57.19541,-2.5 -90.5,49.64045 c 80.57362,-44.1957 0.42427,47.56472 0.94282,48.08326 0.51853,0.51855 -2.22015,-2.32835 -3.60051,-7.05719 l -2.04332,-7 z"
   id="path842"
   inkscape:connector-curvature="0"
   sodipodi:nodetypes="ccscscscsssccsccccccccccscccccccccccscscccsscsccccccsscsscccssccccccccccccccccscscc" />

<path
   inkscape:connector-curvature="0"
   id="path4"
   style="fill:#ff5252;fill-opacity:1"
   d="M 189.031,111.069 V 6.177 L 68.398,126.817 h 104.884 c 11.336,0 15.749,-4.413 15.749,-15.748 z"
   class="st0" />
<flowRoot
   xml:space="preserve"
   id="flowRoot4555"
   style="font-style:normal;font-weight:normal;font-size:40px;line-height:1.25;font-family:sans-serif;letter-spacing:0px;word-spacing:0px;fill:#c8c4b7;fill-opacity:1;stroke:none"><flowRegion
     id="flowRegion4557"
     style="fill:#c8c4b7"><rect
       id="rect4559"
       width="409.5946"
       height="220.90495"
       x="573.73926"
       y="258.87973"
       style="fill:#c8c4b7" /></flowRegion><flowPara
     id="flowPara4561" /></flowRoot><flowRoot
   xml:space="preserve"
   id="flowRoot4563"
   style="fill:black;fill-opacity:1;stroke:none;font-family:sans-serif;font-style:normal;font-weight:normal;font-size:40px;line-height:1.25;letter-spacing:0px;word-spacing:0px"><flowRegion
     id="flowRegion4565"><rect
       id="rect4567"
       width="309.88055"
       height="182.55341"
       x="99.714043"
       y="200.58537" /></flowRegion><flowPara
     id="flowPara4569" /></flowRoot><flowRoot
   xml:space="preserve"
   id="flowRoot4571"
   style="fill:black;fill-opacity:1;stroke:none;font-family:sans-serif;font-style:normal;font-weight:normal;font-size:40px;line-height:1.25;letter-spacing:0px;word-spacing:0px"><flowRegion
     id="flowRegion4573"><rect
       id="rect4575"
       width="237.77963"
       height="139.59966"
       x="104.31623"
       y="327.91254" /></flowRegion><flowPara
     id="flowPara4577" /></flowRoot><flowRoot
   xml:space="preserve"
   id="flowRoot4587"
   style="fill:black;fill-opacity:1;stroke:none;font-family:sans-serif;font-style:normal;font-weight:normal;font-size:40px;line-height:1.25;letter-spacing:0px;word-spacing:0px"><flowRegion
     id="flowRegion4589"><rect
       id="rect4591"
       width="233.17744"
       height="111.98654"
       x="161.07652"
       y="223.59631" /></flowRegion><flowPara
     id="flowPara4593" /></flowRoot>
<text
   xml:space="preserve"
   style="font-style:normal;font-weight:normal;font-size:40px;line-height:1.25;font-family:sans-serif;letter-spacing:0px;word-spacing:0px;fill:#ffffff;fill-opacity:1;stroke:none"
   x="139.47679"
   y="290.85233"
   id="text834"><tspan
     sodipodi:role="line"
     id="tspan832"
     x="139.47679"
     y="290.85233"
     style="font-style:normal;font-variant:normal;font-weight:bold;font-stretch:normal;font-size:129.33332825px;font-family:sans-serif;-inkscape-font-specification:'sans-serif Bold';fill:#ffffff">ZIP</tspan></text>
</svg>