<?xml version="1.0" encoding="UTF-8" standalone="no"?>
<!-- Created with Inkscape (http://www.inkscape.org/) -->

<svg
   xmlns:dc="http://purl.org/dc/elements/1.1/"
   xmlns:cc="http://creativecommons.org/ns#"
   xmlns:rdf="http://www.w3.org/1999/02/22-rdf-syntax-ns#"
   xmlns:svg="http://www.w3.org/2000/svg"
   xmlns="http://www.w3.org/2000/svg"
   xmlns:sodipodi="http://sodipodi.sourceforge.net/DTD/sodipodi-0.dtd"
   xmlns:inkscape="http://www.inkscape.org/namespaces/inkscape"
   width="512"
   height="512"
   viewBox="0 0 135.46666 135.46666"
   version="1.1"
   id="svg848"
   inkscape:version="0.92.4 (5da689c313, 2019-01-14)"
   sodipodi:docname="icon_file-pdf-a-disable.svg">
  <defs
     id="defs842" />
  <sodipodi:namedview
     id="base"
     pagecolor="#ffffff"
     bordercolor="#666666"
     borderopacity="1.0"
     inkscape:pageopacity="0.0"
     inkscape:pageshadow="2"
     inkscape:zoom="1.5429688"
     inkscape:cx="124.7595"
     inkscape:cy="256"
     inkscape:document-units="px"
     inkscape:current-layer="layer1"
     showgrid="false"
     inkscape:pagecheckerboard="true"
     inkscape:window-width="1920"
     inkscape:window-height="1013"
     inkscape:window-x="-9"
     inkscape:window-y="1341"
     inkscape:window-maximized="1"
     units="px"
     inkscape:snap-object-midpoints="true"
     inkscape:snap-bbox="true"
     inkscape:snap-bbox-midpoints="true" />
  <metadata
     id="metadata845">
    <rdf:RDF>
      <cc:Work
         rdf:about="">
        <dc:format>image/svg+xml</dc:format>
        <dc:type
           rdf:resource="http://purl.org/dc/dcmitype/StillImage" />
        <dc:title />
      </cc:Work>
    </rdf:RDF>
  </metadata>
  <g
     inkscape:label="レイヤー 1"
     inkscape:groupmode="layer"
     id="layer1"
     transform="translate(0,-161.53336)">
    <path
       style="opacity:1;fill:#d9d9d9;stroke-width:1.00643253;fill-opacity:1"
       d="M 235.99609 211.4668 L 235.99609 300.625 L 252.71094 300.625 C 255.83693 300.625 258.52694 300.51894 260.7832 300.30469 C 263.03946 300.09043 264.86152 299.76835 266.24805 299.33984 C 268.06314 298.78891 269.72073 298.04681 271.2207 297.11328 C 272.72067 296.17975 274.0632 295.05441 275.24805 293.73828 C 276.45811 292.42216 277.55393 290.68518 278.53711 288.52734 C 279.52028 286.36951 280.3902 283.79251 281.14648 280.79297 C 281.90277 277.76282 282.46951 274.18898 282.84766 270.07227 C 283.2258 265.95555 283.41602 261.29508 283.41602 256.0918 C 283.41602 250.88851 283.2258 246.28921 282.84766 242.29492 C 282.46951 238.30063 281.90277 234.91224 281.14648 232.12695 C 280.3902 229.34166 279.48263 226.86064 278.42383 224.6875 C 277.36502 222.51436 276.15429 220.64888 274.79297 219.08789 C 273.43165 217.5269 271.88897 216.21807 270.16211 215.16211 C 268.43525 214.10615 266.52404 213.30289 264.43164 212.75195 C 262.86865 212.32345 260.55711 212.00136 257.49414 211.78711 C 254.43117 211.57286 250.61763 211.4668 246.05469 211.4668 L 235.99609 211.4668 z "
       id="path833"
       transform="matrix(0.26458332,0,0,0.26458332,0,161.53336)" />
    <path
       style="opacity:1;fill:#d9d9d9;stroke-width:1.00643253;fill-opacity:1"
       d="M 132.61133 211.4668 L 132.61133 249.66406 L 144.86328 249.66406 C 149.27496 249.66406 152.95477 249.48871 155.9043 249.13672 C 157.37906 248.96073 158.67203 248.74055 159.78125 248.47656 C 160.89047 248.21257 161.81686 247.90472 162.56055 247.55273 C 164.04791 246.84876 165.37161 245.94562 166.53125 244.84375 C 167.69089 243.74188 168.68566 242.44118 169.51758 240.94141 C 170.3747 239.44164 171.0187 237.81885 171.44727 236.07422 C 171.87583 234.32959 172.08984 232.46215 172.08984 230.47266 C 172.08984 228.02405 171.7936 225.78963 171.20117 223.76953 C 170.90496 222.75948 170.53416 221.80331 170.08984 220.90039 C 169.64552 219.99747 169.12758 219.14931 168.53516 218.35352 C 167.3503 216.76192 166.00778 215.4674 164.50781 214.47266 C 163.75783 213.97528 162.96939 213.55324 162.14062 213.20508 C 161.31186 212.85692 160.4427 212.58371 159.53516 212.38477 C 158.19905 212.07869 156.18873 211.84835 153.50391 211.69531 C 150.81908 211.54227 147.45932 211.4668 143.42578 211.4668 L 132.61133 211.4668 z "
       id="path831"
       transform="matrix(0.26458332,0,0,0.26458332,0,161.53336)" />
    <path
       style="opacity:1;fill:#d9d9d9;stroke-width:1.00643253;fill-opacity:1"
       d="M 211.78711 0 L 211.78711 125.10352 C 211.78711 138.90348 200.40756 150.14648 186.4375 150.14648 L 60 150.14648 L 60 491.57812 L 60 491.58594 C 60.003235 502.84205 69.280582 512 80.673828 512 L 431.32617 512 C 442.71941 512 451.99679 502.8422 452 491.58594 L 452 491.57812 L 452 150.14648 L 452 20.404297 C 452 9.1523404 442.72243 0 431.32617 0 L 211.78711 0 z M 110.22461 188.69336 L 146.14844 188.69336 C 152.95503 188.69336 158.57678 188.86254 163.01367 189.19922 C 165.23212 189.36756 167.15523 189.57757 168.78125 189.83008 C 170.40727 190.08259 171.73594 190.37816 172.76953 190.71484 C 174.35774 191.21987 175.88279 191.87233 177.3418 192.67578 C 178.8008 193.47923 180.19558 194.43328 181.52539 195.53516 C 182.8552 196.63703 184.11971 197.88681 185.32031 199.28711 C 186.52092 200.68741 187.65711 202.23683 188.72852 203.93555 C 189.79992 205.61896 190.73746 207.42727 191.54102 209.35938 C 192.34457 211.29148 193.01312 213.34851 193.54883 215.5293 C 194.08453 217.71009 194.48605 220.01584 194.75391 222.44531 C 195.02176 224.87479 195.15625 227.42731 195.15625 230.10547 C 195.15625 232.17148 195.08019 234.15515 194.92578 236.05664 C 194.77137 237.95814 194.53929 239.77865 194.23047 241.51562 C 193.92165 243.2526 193.53549 244.90605 193.07227 246.47852 C 192.60904 248.05098 192.06881 249.54127 191.45117 250.94922 C 190.2159 253.76512 188.80998 256.2829 187.23438 258.50195 C 185.65877 260.721 183.91398 262.64147 181.99805 264.26367 C 180.10733 265.85527 178.19611 267.18037 176.26758 268.23633 C 174.33904 269.29229 172.39213 270.07928 170.42578 270.59961 C 167.75356 271.24237 164.48296 271.7255 160.61328 272.04688 C 156.74361 272.36825 152.27416 272.52734 147.20703 272.52734 L 132.61133 272.52734 L 132.61133 323.30664 L 110.22461 323.30664 L 110.22461 188.69336 z M 213.60938 188.69336 L 254.52539 188.69336 C 259.13875 188.69336 263.20396 188.90743 266.7207 189.33594 C 270.23744 189.76444 273.20488 190.40861 275.625 191.26562 C 277.25102 191.84717 278.8187 192.54038 280.32812 193.34766 C 281.83755 194.15493 283.28881 195.07637 284.68164 196.10938 C 286.07447 197.14238 287.40931 198.28814 288.68555 199.54688 C 289.96178 200.80561 291.1802 202.17569 292.33984 203.66016 C 293.49949 205.14462 294.59034 206.71438 295.61133 208.36719 C 296.63232 210.02 297.58251 211.75697 298.46484 213.57812 C 299.34718 215.39928 300.16061 217.30348 300.9043 219.29297 C 301.64798 221.28246 302.3227 223.35779 302.92773 225.51562 C 303.53276 227.65816 304.06185 229.92527 304.51562 232.32031 C 304.9694 234.71536 305.34788 237.23721 305.65039 239.88477 C 306.25542 245.17988 306.55859 250.98 306.55859 257.28516 C 306.55859 262.82513 306.27425 267.98303 305.70703 272.75781 C 305.42342 275.1452 305.06799 277.43672 304.64258 279.63281 C 304.21717 281.82891 303.72151 283.9288 303.1543 285.93359 C 302.46103 288.3822 301.69489 290.71446 300.85352 292.92969 C 300.01215 295.14491 299.09495 297.24277 298.10547 299.22461 C 297.11599 301.20645 296.0536 303.07185 294.91602 304.82031 C 293.77843 306.56877 292.56694 308.20172 291.28125 309.7168 C 290.31068 310.86458 289.25402 311.94918 288.11328 312.9707 C 286.97255 313.99223 285.74645 314.95043 284.43555 315.8457 C 283.12465 316.74097 281.72911 317.57278 280.24805 318.3418 C 278.76698 319.11081 277.20201 319.81623 275.55078 320.45898 C 273.08024 321.40782 270.19308 322.11933 266.89062 322.59375 C 263.58817 323.06817 259.86875 323.30664 255.73438 323.30664 L 213.60938 323.30664 L 213.60938 188.69336 z M 325.76758 188.69336 L 401.77539 188.69336 L 401.77539 211.4668 L 348.1543 211.4668 L 348.1543 243.32812 L 394.43945 243.32812 L 394.43945 266.09961 L 348.1543 266.09961 L 348.1543 323.30664 L 325.76758 323.30664 L 325.76758 188.69336 z "
       id="path12"
       transform="matrix(0.26458332,0,0,0.26458332,0,161.53336)" />
    <path
       inkscape:connector-curvature="0"
       id="path4"
       style="fill:#d9d9d9;stroke-width:0.26628569;fill-opacity:1"
       d="M 49.785705,190.92036 V 163.16769 L 17.45618,195.08702 h 28.108809 c 3.038037,0 4.220716,-1.1676 4.220716,-4.16666 z"
       class="st0" />
  </g>
  <style
     id="style2"
     type="text/css">
	.st0{fill:#4B4B4B;}
</style>
  <style
     id="style2-0"
     type="text/css">
	.st0{fill:#4B4B4B;}
</style>
</svg>
