<?xml version="1.0" encoding="UTF-8" standalone="no"?>
<!-- Created with Inkscape (http://www.inkscape.org/) -->

<svg
   xmlns:dc="http://purl.org/dc/elements/1.1/"
   xmlns:cc="http://creativecommons.org/ns#"
   xmlns:rdf="http://www.w3.org/1999/02/22-rdf-syntax-ns#"
   xmlns:svg="http://www.w3.org/2000/svg"
   xmlns="http://www.w3.org/2000/svg"
   xmlns:sodipodi="http://sodipodi.sourceforge.net/DTD/sodipodi-0.dtd"
   xmlns:inkscape="http://www.inkscape.org/namespaces/inkscape"
   width="512"
   height="512"
   viewBox="0 0 135.46666 135.46666"
   version="1.1"
   id="svg848"
   inkscape:version="0.92.4 (5da689c313, 2019-01-14)"
   sodipodi:docname="icon_file-dwg-a-disable.svg">
  <defs
     id="defs842" />
  <sodipodi:namedview
     id="base"
     pagecolor="#ffffff"
     bordercolor="#666666"
     borderopacity="1.0"
     inkscape:pageopacity="0.0"
     inkscape:pageshadow="2"
     inkscape:zoom="1.5429688"
     inkscape:cx="255.99999"
     inkscape:cy="255.99999"
     inkscape:document-units="px"
     inkscape:current-layer="layer1"
     showgrid="false"
     inkscape:pagecheckerboard="true"
     inkscape:window-width="1920"
     inkscape:window-height="1013"
     inkscape:window-x="-9"
     inkscape:window-y="1341"
     inkscape:window-maximized="1"
     units="px"
     inkscape:snap-object-midpoints="true"
     inkscape:snap-bbox="true"
     inkscape:snap-bbox-midpoints="true" />
  <metadata
     id="metadata845">
    <rdf:RDF>
      <cc:Work
         rdf:about="">
        <dc:format>image/svg+xml</dc:format>
        <dc:type
           rdf:resource="http://purl.org/dc/dcmitype/StillImage" />
        <dc:title />
      </cc:Work>
    </rdf:RDF>
  </metadata>
  <g
     inkscape:label="レイヤー 1"
     inkscape:groupmode="layer"
     id="layer1"
     transform="translate(0,-161.53336)">
    <path
       style="opacity:1;fill:#d9d9d9;stroke-width:1.00643253;fill-opacity:1"
       d="M 98.351562 211.4668 L 98.351562 300.625 L 115.06641 300.625 C 118.1924 300.625 120.88241 300.51894 123.13867 300.30469 C 125.39493 300.09043 127.21699 299.76835 128.60352 299.33984 C 130.41861 298.78891 132.0762 298.04681 133.57617 297.11328 C 135.07614 296.17975 136.41866 295.05441 137.60352 293.73828 C 138.81358 292.42216 139.9094 290.68518 140.89258 288.52734 C 141.87575 286.36951 142.74566 283.79251 143.50195 280.79297 C 144.25824 277.76282 144.82498 274.18898 145.20312 270.07227 C 145.58127 265.95555 145.77148 261.29508 145.77148 256.0918 C 145.77148 250.88851 145.58127 246.28921 145.20312 242.29492 C 144.82498 238.30063 144.25824 234.91224 143.50195 232.12695 C 142.74566 229.34166 141.8381 226.86064 140.7793 224.6875 C 139.72049 222.51436 138.50976 220.64888 137.14844 219.08789 C 135.78712 217.5269 134.24444 216.21807 132.51758 215.16211 C 130.79072 214.10615 128.88146 213.30289 126.78906 212.75195 C 125.22607 212.32345 122.91258 212.00136 119.84961 211.78711 C 116.78664 211.57286 112.97309 211.4668 108.41016 211.4668 L 98.351562 211.4668 z "
       id="path825"
       transform="matrix(0.26458332,0,0,0.26458332,0,161.53336)" />
    <path
       style="opacity:1;fill:#d9d9d9;stroke-width:1.00643253;fill-opacity:1"
       d="M 211.78711 0 L 211.78711 125.10352 C 211.78711 138.90348 200.40756 150.14648 186.4375 150.14648 L 60 150.14648 L 60 491.57812 L 60 491.58594 C 60.003235 502.84205 69.280582 512 80.673828 512 L 431.32617 512 C 442.71941 512 451.99679 502.8422 452 491.58594 L 452 491.57812 L 452 150.14648 L 452 20.404297 C 452 9.1523404 442.72243 0 431.32617 0 L 211.78711 0 z M 385.28711 186.39844 C 388.72822 186.39844 391.98 186.61861 395.04297 187.05859 C 398.10594 187.49858 400.98119 188.15909 403.66602 189.03906 C 406.35084 189.91903 408.84566 191.01794 411.15234 192.33789 C 413.45902 193.65784 415.57732 195.1971 417.50586 196.95703 C 419.447 198.70166 421.21409 200.61595 422.80859 202.69727 C 424.4031 204.77858 425.82439 207.02731 427.07227 209.44531 C 428.32014 211.86331 429.39563 214.4504 430.29688 217.20508 C 431.19812 219.95976 431.92586 222.88324 432.48047 225.97461 L 410.24414 231.02344 C 409.85339 229.37063 409.37656 227.80689 408.8125 226.33008 C 408.24844 224.85326 407.59871 223.46488 406.86133 222.16406 C 406.12395 220.86324 405.29937 219.65022 404.38867 218.52539 C 403.47797 217.40056 402.4805 216.3629 401.39648 215.41406 C 400.32508 214.44992 399.18543 213.60592 397.97852 212.88281 C 396.77161 212.15971 395.49671 211.55824 394.1543 211.07617 C 392.81189 210.5941 391.40174 210.23127 389.92383 209.99023 C 388.44591 209.7492 386.90052 209.62891 385.28711 209.62891 C 382.84178 209.62891 380.52061 209.86535 378.32422 210.33594 C 376.12783 210.80653 374.05682 211.51194 372.10938 212.45312 C 370.16193 213.39431 368.33912 214.57065 366.64062 215.98242 C 364.94213 217.3942 363.36752 219.04146 361.91797 220.92383 C 360.48102 222.80619 359.2242 224.91625 358.14648 227.25391 C 357.06877 229.59156 356.16965 232.15628 355.45117 234.94922 C 354.7327 237.74216 354.19517 240.76349 353.83594 244.01172 C 353.4767 247.25995 353.29688 250.73594 353.29688 254.43945 C 353.29688 258.43374 353.48016 262.17887 353.8457 265.67578 C 354.21124 269.1727 354.75916 272.42038 355.49023 275.41992 C 356.22131 278.41946 357.13385 281.17166 358.23047 283.67383 C 359.32709 286.176 360.60816 288.4288 362.07031 290.43359 C 363.53247 292.42309 365.10783 294.16413 366.79688 295.65625 C 368.48592 297.14837 370.28719 298.39197 372.20312 299.38672 C 374.11906 300.38146 376.1482 301.12763 378.29102 301.625 C 380.43383 302.12237 382.69084 302.37109 385.06055 302.37109 C 387.40504 302.37109 389.74926 302.09586 392.09375 301.54492 C 394.43824 300.99399 396.78246 300.16633 399.12695 299.06445 C 401.49666 297.93197 403.69719 296.6843 405.72656 295.32227 C 407.75594 293.96023 409.61564 292.48417 411.30469 290.89258 L 411.30469 273.81445 L 385.66602 273.81445 L 385.66602 251.13281 L 433.91602 251.13281 L 433.91602 304.75781 C 432.74377 306.13515 431.44085 307.47254 430.00391 308.76953 C 428.56696 310.06653 426.99657 311.32241 425.29492 312.53906 C 423.59327 313.75571 421.75932 314.93205 419.79297 316.06836 C 417.82662 317.20467 415.72714 318.30146 413.49609 319.35742 C 411.27765 320.39808 409.05256 321.30935 406.81836 322.08984 C 404.58416 322.87034 402.34175 323.52069 400.0918 324.04102 C 397.84184 324.56134 395.58407 324.95077 393.31836 325.21094 C 391.05265 325.4711 388.77952 325.60156 386.49805 325.60156 C 383.59894 325.60156 380.79131 325.41807 378.07812 325.05078 C 375.36494 324.68349 372.74601 324.13302 370.21875 323.39844 C 367.69149 322.66386 365.25736 321.74445 362.91602 320.64258 C 360.57467 319.54071 358.32534 318.25627 356.16992 316.78711 C 354.0145 315.30264 351.99304 313.66148 350.10547 311.86328 C 348.2179 310.06509 346.46542 308.10997 344.8457 305.99805 C 343.22599 303.88612 341.73858 301.61706 340.38672 299.19141 C 339.03485 296.76576 337.81839 294.18274 336.73438 291.44336 C 335.65036 288.68868 334.70168 285.87524 333.88867 283.00195 C 333.07566 280.12867 332.39748 277.19502 331.85547 274.20312 C 331.31346 271.21123 330.90772 268.16128 330.63672 265.05078 C 330.36572 261.94029 330.23047 258.77011 330.23047 255.54102 C 330.23047 252.03645 330.38108 248.62976 330.68359 245.32031 C 330.98611 242.01087 331.43989 238.79791 332.04492 235.68359 C 332.64995 232.56927 333.40691 229.55396 334.31445 226.63477 C 335.222 223.71557 336.28017 220.894 337.49023 218.16992 C 338.7003 215.44585 340.0505 212.87918 341.54102 210.47266 C 343.03153 208.06614 344.66262 205.81944 346.43359 203.73047 C 348.20457 201.6415 350.11458 199.71087 352.16602 197.93945 C 354.21745 196.16804 356.4103 194.55542 358.74219 193.10156 C 360.51946 191.98439 362.40568 191.00585 364.40039 190.16797 C 366.3951 189.33009 368.49879 188.63281 370.71094 188.07422 C 372.92308 187.51563 375.2423 187.0957 377.67188 186.81641 C 380.10145 186.53711 382.6401 186.39844 385.28711 186.39844 z M 75.964844 188.69336 L 116.88086 188.69336 C 121.49422 188.69336 125.55943 188.90743 129.07617 189.33594 C 132.59291 189.76444 135.56035 190.40861 137.98047 191.26562 C 139.60649 191.84717 141.17417 192.54038 142.68359 193.34766 C 144.19302 194.15493 145.64428 195.07637 147.03711 196.10938 C 148.42994 197.14238 149.76478 198.28814 151.04102 199.54688 C 152.31725 200.80561 153.53567 202.17569 154.69531 203.66016 C 155.85495 205.14462 156.94581 206.71438 157.9668 208.36719 C 158.98779 210.02 159.93798 211.75697 160.82031 213.57812 C 161.70265 215.39928 162.51608 217.30348 163.25977 219.29297 C 164.00345 221.28246 164.67817 223.35779 165.2832 225.51562 C 165.88823 227.65816 166.41732 229.92527 166.87109 232.32031 C 167.32487 234.71536 167.70334 237.23721 168.00586 239.88477 C 168.61089 245.17988 168.91406 250.98 168.91406 257.28516 C 168.91406 262.82513 168.62972 267.98303 168.0625 272.75781 C 167.77889 275.1452 167.42541 277.43672 167 279.63281 C 166.57459 281.82891 166.07698 283.9288 165.50977 285.93359 C 164.8165 288.3822 164.05035 290.71446 163.20898 292.92969 C 162.36761 295.14491 161.45041 297.24277 160.46094 299.22461 C 159.47146 301.20645 158.40907 303.07185 157.27148 304.82031 C 156.1339 306.56877 154.92241 308.20172 153.63672 309.7168 C 152.66615 310.86458 151.60948 311.94918 150.46875 312.9707 C 149.32802 313.99223 148.10192 314.95043 146.79102 315.8457 C 145.48012 316.74097 144.08458 317.57278 142.60352 318.3418 C 141.12245 319.11081 139.55748 319.81623 137.90625 320.45898 C 135.43571 321.40782 132.54855 322.11933 129.24609 322.59375 C 125.94364 323.06817 122.22617 323.30664 118.0918 323.30664 L 75.964844 323.30664 L 75.964844 188.69336 z M 177.23242 188.69336 L 200.14844 188.69336 L 216.86133 281.16016 L 237.13086 188.69336 L 263.75195 188.69336 L 283.18945 282.7207 L 300.20508 188.69336 L 322.74219 188.69336 L 295.81836 323.30664 L 272.07031 323.30664 L 249.98828 222.66797 L 227.98047 323.30664 L 203.70312 323.30664 L 177.23242 188.69336 z "
       id="path12"
       transform="matrix(0.26458332,0,0,0.26458332,0,161.53336)" />
    <path
       inkscape:connector-curvature="0"
       id="path4"
       style="fill:#d9d9d9;stroke-width:0.26628527;fill-opacity:1"
       d="M 49.785705,190.92027 V 163.16769 L 17.45618,195.08692 h 28.108809 c 3.038037,0 4.220716,-1.1676 4.220716,-4.16665 z"
       class="st0" />
  </g>
  <style
     id="style2"
     type="text/css">
	.st0{fill:#4B4B4B;}
</style>
  <style
     id="style2-0"
     type="text/css">
	.st0{fill:#4B4B4B;}
</style>
</svg>
