<?xml version="1.0" encoding="UTF-8" standalone="no"?>
<!--?xml version="1.0" encoding="utf-8"?-->

<!-- Generator: Adobe Illustrator 18.1.1, SVG Export Plug-In . SVG Version: 6.00 Build 0)  -->

<svg
   xmlns:dc="http://purl.org/dc/elements/1.1/"
   xmlns:cc="http://creativecommons.org/ns#"
   xmlns:rdf="http://www.w3.org/1999/02/22-rdf-syntax-ns#"
   xmlns:svg="http://www.w3.org/2000/svg"
   xmlns="http://www.w3.org/2000/svg"
   xmlns:sodipodi="http://sodipodi.sourceforge.net/DTD/sodipodi-0.dtd"
   xmlns:inkscape="http://www.inkscape.org/namespaces/inkscape"
   version="1.1"
   id="_x32_"
   x="0px"
   y="0px"
   viewBox="0 0 512 512"
   style="width: 512px; height: 512px; opacity: 1;"
   xml:space="preserve"
   sodipodi:docname="icon_file-dwg-dl.svg"
   inkscape:version="0.92.4 (5da689c313, 2019-01-14)"><metadata
   id="metadata23"><rdf:RDF><cc:Work
       rdf:about=""><dc:format>image/svg+xml</dc:format><dc:type
         rdf:resource="http://purl.org/dc/dcmitype/StillImage" /><dc:title></dc:title></cc:Work></rdf:RDF></metadata><defs
   id="defs21">
	
	
	
	
	
	
</defs><sodipodi:namedview
   pagecolor="#ffffff"
   bordercolor="#666666"
   borderopacity="1"
   objecttolerance="10"
   gridtolerance="10"
   guidetolerance="10"
   inkscape:pageopacity="0"
   inkscape:pageshadow="2"
   inkscape:window-width="1562"
   inkscape:window-height="783"
   id="namedview19"
   showgrid="false"
   inkscape:snap-text-baseline="false"
   inkscape:snap-bbox="true"
   inkscape:bbox-paths="false"
   inkscape:snap-intersection-paths="true"
   inkscape:zoom="0.70710678"
   inkscape:cx="318.85732"
   inkscape:cy="169.86512"
   inkscape:window-x="187"
   inkscape:window-y="1316"
   inkscape:window-maximized="0"
   inkscape:current-layer="_x32_"
   inkscape:snap-bbox-midpoints="true"
   inkscape:snap-object-midpoints="true"
   inkscape:snap-midpoints="true"
   inkscape:snap-bbox-edge-midpoints="false" />
<style
   type="text/css"
   id="style2">
	.st0{fill:#4B4B4B;}
</style>
<path
   style="fill:#2c2c54;fill-opacity:1;stroke-width:1.41421354"
   d="m 74.519275,509.0806 c -2.66707,-1.35998 -6.167249,-4.26933 -7.778175,-6.46522 -2.920053,-3.9804 -2.930081,-4.52083 -3.299001,-177.79699 l -0.370046,-173.80446 66.235907,-0.39391 66.23591,-0.39392 5.73415,-3.79577 c 3.4528,-2.28561 6.92761,-6.26113 8.7339,-9.99244 2.92267,-6.03742 2.99975,-7.85706 2.99975,-70.803994 V 1.0265733 H 323.8183 434.62492 l 4.80534,3.2101705 c 2.64293,1.7655937 5.92201,5.4248713 7.28684,8.1317282 2.3411,4.643128 2.46111,18.522716 2.12132,245.337858 l -0.36019,240.41631 -3.15413,4.42183 c -6.86628,9.62599 6.00837,9.01344 -189.39264,9.01101 C 90.630357,511.55406 79.059192,511.39556 74.519275,509.0806 Z M 355.84724,451.45359 v -10.6066 H 255.43808 155.02892 v 10.6066 10.6066 h 100.40916 100.40916 z m -53.74011,-53.01052 c 22.94561,-18.89288 41.93143,-34.89999 42.1907,-35.57136 0.25928,-0.67137 -10.71855,-1.22068 -24.39519,-1.22068 h -24.86658 v -24.74874 -24.74873 h -38.89087 -38.89088 v 24.71683 24.71683 l -25.53824,0.38546 -25.53824,0.38546 44.91203,37.08718 c 38.79329,32.03448 45.21078,36.8325 47.10499,35.21781 1.20614,-1.02815 20.96666,-17.32717 43.91228,-36.22006 z m 88.73469,-119.9478 c 4.07956,-1.55873 10.28443,-4.51424 13.78858,-6.5678 l 6.37117,-3.73377 v -19.73936 -19.73938 h -21.2132 -21.2132 v 8.48528 8.48528 h 11.3137 11.31371 v 5.67764 c 0,4.8829 -0.6398,6.06672 -4.57076,8.4573 -17.20892,10.46536 -37.64862,4.20283 -42.79013,-13.11051 -2.70802,-9.11889 -2.7231,-19.74927 -0.0409,-28.7815 3.24195,-10.91664 12.28459,-17.49777 24.04243,-17.49777 9.05015,0 15.75358,3.17476 19.26318,9.12307 1.69722,2.87658 4.07935,5.01907 5.58044,5.01907 5.0866,0 16.90049,-3.0805 16.90049,-4.40684 0,-0.73923 -1.58171,-4.4654 -3.51492,-8.28039 -6.46345,-12.75499 -18.05614,-18.42547 -37.66899,-18.42547 -14.11621,0 -24.43789,3.70953 -32.70396,11.75352 -21.73912,21.1551 -18.15683,64.80014 6.57314,80.0841 12.02681,7.43298 33.74225,8.8626 48.56919,3.19753 z m -229.94371,-2.08554 c 14.83783,-7.28661 21.39797,-20.34552 21.47294,-42.74503 0.0551,-16.45895 -1.60556,-23.32142 -7.91592,-32.71177 -5.09684,-7.58454 -11.57026,-12.50575 -19.25986,-14.64171 -2.81385,-0.78161 -15.77573,-1.42467 -28.80418,-1.42899 l -23.68807,-0.008 v 48.22062 48.22064 l 25.10229,-0.49093 c 24.08409,-0.47101 25.4264,-0.65009 33.0928,-4.41494 z m 81.87214,-29.91711 c 5.02248,-19.00152 9.54041,-33.79773 10.03983,-32.88046 0.49943,0.91727 4.51278,15.35028 8.91856,32.07336 4.40579,16.72307 8.33585,31.51928 8.73345,32.88046 0.60369,2.06665 2.43556,2.47488 11.10559,2.47488 h 10.38267 l 11.46289,-47.0226 c 6.30458,-25.86243 11.45363,-47.4999 11.44234,-48.08326 -0.0113,-0.58337 -4.4183,-1.06066 -9.79333,-1.06066 h -9.7728 l -2.80844,12.37436 c -1.54464,6.80591 -4.612,20.80662 -6.81636,31.1127 -2.20435,10.30608 -4.35902,18.73833 -4.78813,18.73833 -0.42912,0 -4.24526,-14.02338 -8.48032,-31.16307 l -7.70013,-31.16309 -11.97054,0.40394 -11.97054,0.40393 -8.07431,30.14725 c -4.44085,16.58097 -8.34058,30.41351 -8.66604,30.73897 -0.32546,0.32547 -3.60977,-13.22685 -7.29846,-30.11627 -3.68869,-16.88941 -6.90917,-30.91048 -7.15662,-31.15794 -0.24745,-0.24744 -4.86114,-0.26137 -10.25265,-0.031 l -9.80274,0.41895 10.86839,45.53817 c 5.97762,25.04599 11.24684,46.52436 11.70937,47.72971 0.65359,1.70321 3.14894,2.19153 11.19874,2.19153 h 10.35779 l 9.13179,-34.54823 z"
   id="path851"
   inkscape:connector-curvature="0" />
<path
   inkscape:connector-curvature="0"
   id="path4"
   style="fill:#2c2c54;fill-opacity:1"
   d="M 189.031,111.069 V 6.177 L 68.398,126.817 h 104.884 c 11.336,0 15.749,-4.413 15.749,-15.748 z"
   class="st0" />
<flowRoot
   xml:space="preserve"
   id="flowRoot4555"
   style="font-style:normal;font-weight:normal;font-size:40px;line-height:1.25;font-family:sans-serif;letter-spacing:0px;word-spacing:0px;fill:#c8c4b7;fill-opacity:1;stroke:none"><flowRegion
     id="flowRegion4557"
     style="fill:#c8c4b7"><rect
       id="rect4559"
       width="409.5946"
       height="220.90495"
       x="573.73926"
       y="258.87973"
       style="fill:#c8c4b7" /></flowRegion><flowPara
     id="flowPara4561" /></flowRoot><flowRoot
   xml:space="preserve"
   id="flowRoot4563"
   style="fill:black;fill-opacity:1;stroke:none;font-family:sans-serif;font-style:normal;font-weight:normal;font-size:40px;line-height:1.25;letter-spacing:0px;word-spacing:0px"><flowRegion
     id="flowRegion4565"><rect
       id="rect4567"
       width="309.88055"
       height="182.55341"
       x="99.714043"
       y="200.58537" /></flowRegion><flowPara
     id="flowPara4569" /></flowRoot><flowRoot
   xml:space="preserve"
   id="flowRoot4571"
   style="fill:black;fill-opacity:1;stroke:none;font-family:sans-serif;font-style:normal;font-weight:normal;font-size:40px;line-height:1.25;letter-spacing:0px;word-spacing:0px"><flowRegion
     id="flowRegion4573"><rect
       id="rect4575"
       width="237.77963"
       height="139.59966"
       x="104.31623"
       y="327.91254" /></flowRegion><flowPara
     id="flowPara4577" /></flowRoot><flowRoot
   xml:space="preserve"
   id="flowRoot4587"
   style="fill:black;fill-opacity:1;stroke:none;font-family:sans-serif;font-style:normal;font-weight:normal;font-size:40px;line-height:1.25;letter-spacing:0px;word-spacing:0px"><flowRegion
     id="flowRegion4589"><rect
       id="rect4591"
       width="233.17744"
       height="111.98654"
       x="161.07652"
       y="223.59631" /></flowRegion><flowPara
     id="flowPara4593" /></flowRoot>
<path
   style="fill:#2c2c54;fill-opacity:1;stroke-width:1.41421354"
   d="M 122.50201,233.12628 V 201.8449 l 11.66726,0.002 c 13.83847,0.003 20.06862,2.53521 24.34707,9.89729 2.43888,4.19665 2.87654,7.42422 2.87654,21.21321 0,25.44558 -3.71216,29.91147 -25.66115,30.87145 l -13.22972,0.57862 z"
   id="path853"
   inkscape:connector-curvature="0" /></svg>