<?xml version="1.0" encoding="UTF-8" standalone="no"?>
<!--?xml version="1.0" encoding="utf-8"?-->

<!-- Generator: Adobe Illustrator 18.1.1, SVG Export Plug-In . SVG Version: 6.00 Build 0)  -->

<svg
   xmlns:dc="http://purl.org/dc/elements/1.1/"
   xmlns:cc="http://creativecommons.org/ns#"
   xmlns:rdf="http://www.w3.org/1999/02/22-rdf-syntax-ns#"
   xmlns:svg="http://www.w3.org/2000/svg"
   xmlns="http://www.w3.org/2000/svg"
   xmlns:sodipodi="http://sodipodi.sourceforge.net/DTD/sodipodi-0.dtd"
   xmlns:inkscape="http://www.inkscape.org/namespaces/inkscape"
   version="1.1"
   id="_x32_"
   x="0px"
   y="0px"
   viewBox="0 0 512 512"
   style="width: 512px; height: 512px; opacity: 1;"
   xml:space="preserve"
   sodipodi:docname="icon_file-csv-dl-hover.svg"
   inkscape:version="0.92.4 (5da689c313, 2019-01-14)"
   inkscape:export-filename="C:\Users\h-moriyama\★Folder\02_共通データ\カスタマイズ (iconn)\アイコンシステムデザイン\アイコン\icon_file-csv-dl-hover.png"
   inkscape:export-xdpi="96"
   inkscape:export-ydpi="96"><metadata
   id="metadata23"><rdf:RDF><cc:Work
       rdf:about=""><dc:format>image/svg+xml</dc:format><dc:type
         rdf:resource="http://purl.org/dc/dcmitype/StillImage" /><dc:title></dc:title></cc:Work></rdf:RDF></metadata><defs
   id="defs21">
	
	
	
	
	
	
</defs><sodipodi:namedview
   pagecolor="#ffffff"
   bordercolor="#666666"
   borderopacity="1"
   objecttolerance="10"
   gridtolerance="10"
   guidetolerance="10"
   inkscape:pageopacity="0"
   inkscape:pageshadow="2"
   inkscape:window-width="1562"
   inkscape:window-height="783"
   id="namedview19"
   showgrid="false"
   inkscape:snap-text-baseline="false"
   inkscape:snap-bbox="true"
   inkscape:bbox-paths="false"
   inkscape:snap-intersection-paths="true"
   inkscape:zoom="1"
   inkscape:cx="272.22297"
   inkscape:cy="233.68918"
   inkscape:window-x="148"
   inkscape:window-y="160"
   inkscape:window-maximized="0"
   inkscape:current-layer="_x32_"
   inkscape:snap-bbox-midpoints="true"
   inkscape:snap-object-midpoints="true"
   inkscape:snap-midpoints="true"
   inkscape:snap-bbox-edge-midpoints="false" />
<style
   type="text/css"
   id="style2">
	.st0{fill:#4B4B4B;}
</style>


<path
   inkscape:connector-curvature="0"
   id="path4"
   style="fill:#33d9b2;fill-opacity:1"
   d="M 189.031,111.069 V 6.177 L 68.398,126.817 h 104.884 c 11.336,0 15.749,-4.413 15.749,-15.748 z"
   class="st0" />
<flowRoot
   xml:space="preserve"
   id="flowRoot4555"
   style="font-style:normal;font-weight:normal;font-size:40px;line-height:1.25;font-family:sans-serif;letter-spacing:0px;word-spacing:0px;fill:#c8c4b7;fill-opacity:1;stroke:none"><flowRegion
     id="flowRegion4557"
     style="fill:#c8c4b7"><rect
       id="rect4559"
       width="409.5946"
       height="220.90495"
       x="573.73926"
       y="258.87973"
       style="fill:#c8c4b7" /></flowRegion><flowPara
     id="flowPara4561" /></flowRoot><flowRoot
   xml:space="preserve"
   id="flowRoot4563"
   style="fill:black;fill-opacity:1;stroke:none;font-family:sans-serif;font-style:normal;font-weight:normal;font-size:40px;line-height:1.25;letter-spacing:0px;word-spacing:0px"><flowRegion
     id="flowRegion4565"><rect
       id="rect4567"
       width="309.88055"
       height="182.55341"
       x="99.714043"
       y="200.58537" /></flowRegion><flowPara
     id="flowPara4569" /></flowRoot><flowRoot
   xml:space="preserve"
   id="flowRoot4571"
   style="fill:black;fill-opacity:1;stroke:none;font-family:sans-serif;font-style:normal;font-weight:normal;font-size:40px;line-height:1.25;letter-spacing:0px;word-spacing:0px"><flowRegion
     id="flowRegion4573"><rect
       id="rect4575"
       width="237.77963"
       height="139.59966"
       x="104.31623"
       y="327.91254" /></flowRegion><flowPara
     id="flowPara4577" /></flowRoot><flowRoot
   xml:space="preserve"
   id="flowRoot4587"
   style="fill:black;fill-opacity:1;stroke:none;font-family:sans-serif;font-style:normal;font-weight:normal;font-size:40px;line-height:1.25;letter-spacing:0px;word-spacing:0px"><flowRegion
     id="flowRegion4589"><rect
       id="rect4591"
       width="233.17744"
       height="111.98654"
       x="161.07652"
       y="223.59631" /></flowRegion><flowPara
     id="flowPara4593" /></flowRoot>
<path
   style="fill:#33d9b2;fill-opacity:1;stroke-width:0.70710677"
   d="m 73.922391,509.23627 c -2.833803,-1.46697 -5.302521,-3.41373 -6.771713,-5.33996 -4.812362,-6.30943 -4.469673,7.64305 -4.469673,-181.98115 V 150.23072 l 65.937705,-0.19095 65.93771,-0.19094 4.43239,-2.40352 c 5.30305,-2.87567 8.85932,-6.62733 11.38193,-12.00731 l 1.86335,-3.97394 0.19102,-65.584158 0.19101,-65.58415409 h 109.45897 c 95.55668,0 109.9156,0.13560166 113.05415,1.06765239 4.76446,1.4148921 10.09271,6.2278151 12.29861,11.1091287 l 1.68701,3.733122 V 256.2684 496.33116 l -1.64309,3.30393 c -2.04533,4.11274 -5.66109,7.89032 -9.53364,9.96025 l -2.9654,1.58506 -178.29537,0.18223 -178.295354,0.18224 z M 356.13032,451.42988 V 440.82327 H 256.07471 156.0191 v 10.60661 10.6066 h 100.05561 100.05561 z m -54.80078,-52.30442 c 24.11235,-19.90674 43.94669,-36.48748 44.07632,-36.8461 0.14109,-0.3903 -10.00662,-0.65205 -25.27906,-0.65205 h -25.51477 v -25.10833 -25.10833 l -38.7141,0.18282 -38.71409,0.18282 -0.18582,24.92551 -0.18583,24.92551 h -25.15217 c -15.85498,0 -25.06504,0.25229 -24.91646,0.6825 0.12963,0.37538 20.26565,17.22653 44.7467,37.44701 27.76599,22.93371 44.79084,36.53844 45.25484,36.16359 0.4091,-0.3305 20.4721,-16.88823 44.58444,-36.79495 z M 181.50237,280.60238 c 10.66107,-3.13163 18.04849,-9.47445 22.9248,-19.68319 5.01282,-10.4945 5.38807,-9.555 -5.11975,-12.81808 -4.9465,-1.53607 -9.25482,-2.79286 -9.57404,-2.79286 -0.31922,0 -1.20705,1.85622 -1.97297,4.12495 -3.61151,10.69766 -9.98981,15.61811 -20.1862,15.57238 -4.03494,-0.0181 -5.85422,-0.41034 -8.96725,-1.93341 -9.43542,-4.61632 -13.30588,-13.70475 -13.2695,-31.15884 0.0344,-16.5223 3.63925,-24.69426 12.94423,-29.34401 3.76214,-1.87996 5.07435,-2.16145 10.04794,-2.15544 4.51378,0.006 6.47489,0.3581 9.29555,1.67155 4.06901,1.89475 8.37212,6.51135 9.57116,10.26845 0.44737,1.40183 1.0363,2.79419 1.30872,3.09415 0.27242,0.29996 4.72117,-0.45274 9.88612,-1.67267 l 9.39082,-2.21804 -0.43065,-2.21642 c -0.8524,-4.387 -4.90978,-11.40132 -8.85614,-15.31029 -7.63646,-7.56413 -16.15223,-10.69656 -29.04108,-10.68243 -13.99453,0.0153 -22.42733,3.27839 -31.13649,12.04817 -6.01305,6.0549 -9.00735,11.17271 -11.42717,19.53113 -1.43363,4.95196 -1.63051,7.16892 -1.63051,18.35995 0,11.34348 0.17932,13.30478 1.64866,18.03123 5.17355,16.64187 17.1126,27.39661 33.75971,30.41089 4.77355,0.86434 16.14957,0.24887 20.83404,-1.12717 z m 92.75475,0.10711 c 9.69777,-2.58092 16.45879,-7.80475 20.38042,-15.74674 4.42242,-8.95619 3.64696,-20.813 -1.89569,-28.98523 -5.01099,-7.38832 -9.7992,-9.81492 -30.47779,-15.4457 -16.84721,-4.5875 -20.11935,-6.5624 -20.11935,-12.14304 0,-5.15465 6.37543,-8.69285 15.64933,-8.68497 2.55455,0.002 5.91025,0.3553 7.45711,0.78474 3.86815,1.07389 7.87785,5.25324 8.97477,9.3545 l 0.88043,3.29184 4.97987,-0.005 c 2.73893,-0.003 7.12771,-0.20788 9.75284,-0.4558 4.74692,-0.44832 4.77297,-0.46251 4.77297,-2.60024 0,-7.2224 -5.06103,-16.14511 -11.70772,-20.64097 -5.28374,-3.57395 -10.12187,-5.14383 -18.54405,-6.01716 -18.4798,-1.91626 -32.8714,3.79382 -38.73663,15.36932 -2.85101,5.6267 -3.28457,14.15908 -1.02548,20.18115 3.72672,9.93431 12.08851,15.31889 32.18367,20.72468 6.61145,1.77854 13.36467,3.82795 15.00716,4.55424 8.44057,3.73229 7.45459,14.67629 -1.72968,19.19878 -2.86594,1.41124 -4.45271,1.66338 -10.46793,1.66338 -6.21559,0 -7.52283,-0.22277 -10.60007,-1.80638 -4.40337,-2.26605 -7.5457,-6.3344 -9.22647,-11.94544 l -1.30443,-4.35469 -2.50655,0.36928 c -1.37861,0.20311 -4.73394,0.55761 -7.4563,0.78778 -9.87835,0.83522 -9.61712,0.57263 -7.74485,7.78527 3.67356,14.15189 12.87486,22.70874 27.40788,25.48824 6.26499,1.1982 20.34543,0.80875 26.09654,-0.72182 z M 375.54457,233.9565 c 9.05566,-25.29998 16.68663,-46.6988 16.95772,-47.55293 0.49248,-1.55169 0.48435,-1.55295 -10.02613,-1.55295 h -10.51901 l -10.83166,33.05724 c -5.95741,18.18148 -11.13791,33.85274 -11.51223,34.82501 -0.5803,1.5073 -2.42781,-3.3373 -12.53918,-32.88047 l -11.85862,-34.64823 -10.70552,-0.1952 c -5.88804,-0.10735 -10.70552,-0.0564 -10.70552,0.11314 0,0.22737 31.47866,88.65586 33.57682,94.32254 0.25522,0.6893 2.85652,0.85627 11.01631,0.70711 l 10.6822,-0.19528 z"
   id="path842"
   inkscape:connector-curvature="0" /></svg>