<svg height="512pt" viewBox="0 -44 512 511" width="512pt" xmlns="http://www.w3.org/2000/svg"><path d="m472 233.042969c16.558594 0 30-13.441407 30-30 0-16.570313-13.429688-30-30-30-20.429688 0-113.566406 0-133.570312 0l-.03125-.011719c5.160156-18.300781 17.292968-56.28125 23.070312-75.058594 23.761719-60.300781-46.4375-116.378906-56.199219-70.820312-18.464843 92.03125-35.429687 145.890625-169.269531 145.890625v200l6.621094 2.410156c68.390625 24.867187 120.609375 37.589844 193.378906 37.589844h76c16.558594 0 30-13.441407 30-30 0-16.570313-13.429688-30-30-30h40c16.558594 0 30-13.441407 30-30 0-16.570313-13.429688-30-30-30h20c16.558594 0 30-13.441407 30-30 0-16.570313-13.429688-30-30-30zm0 0" fill="#fec9a5"/><path d="m136 413.042969h-60l20-240h40zm0 0" fill="#96c8ef"/><path d="m96 173.042969-20 240h-66v-240zm0 0" fill="#3a5576"/><path d="m176 323.042969c-5.519531 0-10 4.480469-10 10s4.480469 10 10 10 10-4.480469 10-10-4.480469-10-10-10zm0 0"/><path d="m512 203.042969c0-22.058594-17.945312-40-40-40-23.796875 0-96.753906 0-120.246094 0 5.988282-19.878907 14.472656-46.535157 19.164063-61.773438 13.058593-33.589843.8125-64.589843-15.050781-82.4375-12.699219-14.289062-27.871094-20.820312-40.578126-17.46875-5.824218 1.535157-16.148437 6.65625-19.796874 23.691407-7.847657 36.675781-15.042969 76.335937-37.5625 101.28125-22.605469 25.042968-61.347657 36.707031-121.929688 36.707031h-126c-5.523438 0-10 4.476562-10 10v240c0 5.523437 4.476562 10 10 10h126c5.523438 0 10-4.476563 10-10v-25.742188c63.414062 22.679688 115.878906 35.742188 190 35.742188h76c22.097656 0 40-17.898438 40-40 0-7.285157-1.964844-14.113281-5.382812-20h5.382812c22.097656 0 40-17.898438 40-40 0-8.226563-2.496094-15.875-6.769531-22.238281 15.449219-5.402344 26.769531-20.167969 26.769531-37.761719 0-11.933594-5.257812-22.65625-13.574219-29.992188 8.800781-7.769531 13.574219-18.574219 13.574219-30.007812zm-492-20h65.132812l-18.332031 220h-46.800781zm106 220h-39.132812l18.332031-220h20.800781zm20-37.003907v-183.113281c61.019531-1.335937 101.46875-15.152343 126.777344-43.1875 26.050781-28.863281 33.457031-69.308593 42.269531-110.492187.738281-3.453125 2.265625-7.734375 5.34375-8.546875 4.175781-1.097657 12.574219 2.464843 20.53125 11.417969 11.972656 13.472656 21.214844 36.882812 11.242187 62.1875-.09375.238281-.179687.480468-.253906.726562-12.808594 41.625-25.910156 81.203125-25.910156 88.011719 0 27.78125-14.085938 53.167969-37.679688 67.90625-4.683593 2.925781-6.105468 9.097656-3.179687 13.78125 2.929687 4.691406 9.097656 6.105469 13.777344 3.183593 29.324219-18.320312 46.894531-49.824218 47.078125-84.335937.027344-.125.0625-.304687.113281-.546875h25.246094c-3.488281 6.015625-5.355469 12.875-5.355469 20.011719 0 11.933593 5.257812 22.652343 13.570312 29.988281-8.796874 7.773438-13.570312 18.578125-13.570312 30.011719 0 8.222656 2.496094 15.871093 6.769531 22.238281-15.449219 5.402344-26.769531 20.167969-26.769531 37.761719 0 7.28125 1.964844 14.109375 5.382812 20h-5.382812c-10.679688 0-20.726562 4.160156-28.28125 11.71875-7.558594 7.558593-11.71875 17.601562-11.71875 28.28125 0 6.984375 1.800781 13.636719 5.027344 19.445312-61.066406-2.75-108.085938-15.742187-164.988282-36.433593zm286 17.003907c0 11.042969-8.953125 20-20 20h-66c-10.933594 0-20-8.820313-20-20 0-11.046875 8.953125-20 20-20h66c11.027344 0 20 8.972656 20 20zm20-40c-10.75 0-50.652344 0-66 0-11.027344 0-20-8.972657-20-20 0-11.046875 8.953125-20 20-20h66c11.027344 0 20 8.972656 20 20 0 11.042969-8.953125 20-20 20zm40-80c0 11.042969-8.953125 20-20 20-16.996094 0-50.429688 0-66 0-11.027344 0-20-8.972657-20-20 0-11.046875 8.953125-20 20-20h66c11.027344 0 20 8.972656 20 20zm-86-40c-11.027344 0-20-8.972657-20-20 0-11.046875 8.953125-20 20-20h66c11.027344 0 20 8.972656 20 20 0 11.042969-8.953125 20-20 20zm0 0"/><path d="m176 203.042969c-5.523438 0-10 4.476562-10 10v80c0 5.523437 4.476562 10 10 10s10-4.476563 10-10v-80c0-5.523438-4.476562-10-10-10zm0 0"/></svg>