<?xml version="1.0" encoding="UTF-8" standalone="no"?>
<!--?xml version="1.0" encoding="utf-8"?-->

<!-- Generator: Adobe Illustrator 18.1.1, SVG Export Plug-In . SVG Version: 6.00 Build 0)  -->

<svg
   xmlns:osb="http://www.openswatchbook.org/uri/2009/osb"
   xmlns:dc="http://purl.org/dc/elements/1.1/"
   xmlns:cc="http://creativecommons.org/ns#"
   xmlns:rdf="http://www.w3.org/1999/02/22-rdf-syntax-ns#"
   xmlns:svg="http://www.w3.org/2000/svg"
   xmlns="http://www.w3.org/2000/svg"
   xmlns:xlink="http://www.w3.org/1999/xlink"
   xmlns:sodipodi="http://sodipodi.sourceforge.net/DTD/sodipodi-0.dtd"
   xmlns:inkscape="http://www.inkscape.org/namespaces/inkscape"
   version="1.1"
   id="_x32_"
   x="0px"
   y="0px"
   viewBox="0 0 512 512"
   style="width: 512px; height: 512px; opacity: 1;"
   xml:space="preserve"
   sodipodi:docname="merge_hover.svg"
   inkscape:version="0.92.4 (5da689c313, 2019-01-14)"
   inkscape:export-filename="C:\Users\h-moriyama\★Folder\02_共通データ\カスタマイズ (iconn)\アイコンシステムデザイン\アイコン\PNG\icon_file-pdf-dl.png"
   inkscape:export-xdpi="96"
   inkscape:export-ydpi="96"><metadata
   id="metadata23"><rdf:RDF><cc:Work
       rdf:about=""><dc:format>image/svg+xml</dc:format><dc:type
         rdf:resource="http://purl.org/dc/dcmitype/StillImage" /><dc:title></dc:title></cc:Work></rdf:RDF></metadata><defs
   id="defs21"><linearGradient
   id="linearGradient849"
   osb:paint="gradient"><stop
     style="stop-color:#000000;stop-opacity:1;"
     offset="0"
     id="stop845" /><stop
     style="stop-color:#000000;stop-opacity:0;"
     offset="1"
     id="stop847" /></linearGradient>
	
	
	
	
	
	
<linearGradient
   inkscape:collect="always"
   xlink:href="#linearGradient849"
   id="linearGradient1003"
   gradientUnits="userSpaceOnUse"
   x1="106.31784"
   y1="229.60964"
   x2="423.17961"
   y2="229.60964" /></defs><sodipodi:namedview
   pagecolor="#ffffff"
   bordercolor="#666666"
   borderopacity="1"
   objecttolerance="10"
   gridtolerance="10"
   guidetolerance="10"
   inkscape:pageopacity="0"
   inkscape:pageshadow="2"
   inkscape:window-width="1920"
   inkscape:window-height="976"
   id="namedview19"
   showgrid="false"
   inkscape:snap-text-baseline="false"
   inkscape:snap-bbox="true"
   inkscape:bbox-paths="false"
   inkscape:snap-intersection-paths="true"
   inkscape:zoom="1"
   inkscape:cx="223.52083"
   inkscape:cy="283.56438"
   inkscape:window-x="-8"
   inkscape:window-y="-8"
   inkscape:window-maximized="1"
   inkscape:current-layer="_x32_"
   inkscape:snap-bbox-midpoints="true"
   inkscape:snap-object-midpoints="true"
   inkscape:snap-midpoints="true"
   inkscape:snap-bbox-edge-midpoints="false" />
<style
   type="text/css"
   id="style2">
	.st0{fill:#4B4B4B;}
</style>
<path
   style="fill:#0000ff;fill-opacity:1;stroke-width:1.41421354"
   d="m 79.272479,511.98918 c -1.934357,-0.3672 -5.285039,-1.92657 -7.44596,-3.46527 -8.630237,-6.14528 -8.128912,5.16892 -8.128912,-183.45799 V 152.52741 l 65.407373,-0.41933 c 70.94274,-0.45483 69.54421,-0.30175 76.89792,-8.41671 6.99789,-7.72227 6.86881,-6.37137 7.3131,-76.543104 L 213.73486,0.99257208 324.39498,1.3873348 C 447.57544,1.826762 439.34244,1.1462937 445.5975,11.404879 c 2.70291,4.432902 2.75562,9.13187 2.75562,245.642771 0,236.65959 -0.051,241.20723 -2.7606,245.65094 -1.51833,2.49015 -4.85703,5.67213 -7.41933,7.07107 -4.40894,2.40716 -14.06116,2.55274 -180.02122,2.71533 -96.44936,0.0945 -176.945134,-0.12869 -178.879491,-0.49581 z M 356.14574,452.56267 355.73271,441.60252 H 256.03065 156.3286 l -0.41304,10.96015 -0.41305,10.96016 h 100.52814 100.52814 z m -54.08143,-52.96688 43.31855,-35.77502 -24.84462,-0.38605 -24.84461,-0.38605 -0.38605,-25.0698 -0.38605,-25.06979 h -38.89088 -38.89087 l -0.38605,25.06979 -0.38605,25.0698 -24.85484,0.38605 -24.85484,0.38605 44.20425,36.48095 c 24.31234,20.06453 45.03209,36.16328 46.04389,35.77501 1.01181,-0.38826 21.33298,-16.80469 45.15817,-36.48094 z m -152.09968,-133.9139 3,-18.23583 13.61701,-0.55981 c 19.60731,-0.66053 26.25579,-3.26676 32.52534,-12.75002 3.44564,-5.21185 3.89066,-7.20425 3.89066,-17.41855 0,-10.38819 -0.40189,-12.11334 -4.04695,-17.37187 7.97902,-11.02531 455.90298,3.93676 20.31041,84.92276 l -89.09546,-0.35087 h 9.8995 9.89949 z m 127.74952,13.46388 c 8.73728,-4.27476 13.24172,-9.2339 18.21587,-20.05466 2.7658,-6.01673 -2.79289,3.73589 -2.83944,-10.25667 -0.0631,-18.97979 2.97046,-41.73546 -5.33927,-50.29172 -9.31321,-9.5895 -18.34588,41.26092 -39.2666,19.45388 l -31.22361,-8.46168 2,26.36682 v 48.36683 l 25.20728,-0.59497 c -159.673878,3.7688 25.56186,-0.76844 33.24577,-4.52783 z m 11.71657,-8.97376 22.79589,-22.72157 43.15255,-4.85965 20.15254,-0.39239 v -7.77817 -7.77818 l -20.15254,-0.39238 -20.15255,-0.39238 V 215.32454 204.7918 l 22.98097,-0.38858 22.98097,-0.38858 -5.65685,22.62741 -20.15254,-0.39238 v 0 l -35.95154,-4.49849 -4,13.14045 c -7.55029,24.80355 0.42427,47.56472 0.94282,48.08326 0.51853,0.51855 4.9733,0.94281 9.89949,0.94281 l -225.04332,-2 z"
   id="path842"
   inkscape:connector-curvature="0"
   sodipodi:nodetypes="ccscscscsssccsccccccccccscccccccccccscscccssccccccsscsscccssccccccccccccccccscscc" />

<path
   inkscape:connector-curvature="0"
   id="path4"
   style="fill:#0000ff;fill-opacity:1"
   d="M 189.031,111.069 V 6.177 L 68.398,126.817 h 104.884 c 11.336,0 15.749,-4.413 15.749,-15.748 z"
   class="st0" />
<flowRoot
   xml:space="preserve"
   id="flowRoot4555"
   style="font-style:normal;font-weight:normal;font-size:40px;line-height:1.25;font-family:sans-serif;letter-spacing:0px;word-spacing:0px;fill:#c8c4b7;fill-opacity:1;stroke:none"><flowRegion
     id="flowRegion4557"
     style="fill:#c8c4b7"><rect
       id="rect4559"
       width="409.5946"
       height="220.90495"
       x="573.73926"
       y="258.87973"
       style="fill:#c8c4b7" /></flowRegion><flowPara
     id="flowPara4561" /></flowRoot><flowRoot
   xml:space="preserve"
   id="flowRoot4563"
   style="fill:black;fill-opacity:1;stroke:none;font-family:sans-serif;font-style:normal;font-weight:normal;font-size:40px;line-height:1.25;letter-spacing:0px;word-spacing:0px"><flowRegion
     id="flowRegion4565"><rect
       id="rect4567"
       width="309.88055"
       height="182.55341"
       x="99.714043"
       y="200.58537" /></flowRegion><flowPara
     id="flowPara4569" /></flowRoot><flowRoot
   xml:space="preserve"
   id="flowRoot4571"
   style="fill:black;fill-opacity:1;stroke:none;font-family:sans-serif;font-style:normal;font-weight:normal;font-size:40px;line-height:1.25;letter-spacing:0px;word-spacing:0px"><flowRegion
     id="flowRegion4573"><rect
       id="rect4575"
       width="237.77963"
       height="139.59966"
       x="104.31623"
       y="327.91254" /></flowRegion><flowPara
     id="flowPara4577" /></flowRoot><flowRoot
   xml:space="preserve"
   id="flowRoot4587"
   style="fill:black;fill-opacity:1;stroke:none;font-family:sans-serif;font-style:normal;font-weight:normal;font-size:40px;line-height:1.25;letter-spacing:0px;word-spacing:0px"><flowRegion
     id="flowRegion4589"><rect
       id="rect4591"
       width="233.17744"
       height="111.98654"
       x="161.07652"
       y="223.59631" /></flowRegion><flowPara
     id="flowPara4593" /></flowRoot>
<text
   xml:space="preserve"
   style="font-style:normal;font-weight:normal;font-size:100.5475235px;line-height:1.25;font-family:sans-serif;letter-spacing:0px;word-spacing:0px;fill:#ffffff;fill-opacity:1;stroke:none;stroke-width:2.51368809"
   x="79.849449"
   y="261.60095"
   id="text834"
   transform="scale(0.92919789,1.076197)"><tspan
     sodipodi:role="line"
     id="tspan832"
     x="79.849449"
     y="261.60095"
     style="font-style:normal;font-variant:normal;font-weight:bold;font-stretch:normal;font-family:sans-serif;-inkscape-font-specification:'sans-serif Bold';fill:#ffffff;fill-opacity:1;stroke-width:2.51368809">MERGE</tspan></text>


</svg>