<svg height="512pt" viewBox="0 -45 512 512" width="512pt" xmlns="http://www.w3.org/2000/svg"><path d="m412 70h40c16.558594 0 30 13.441406 30 30 0 16.570312-13.429688 30-30 30h20c16.558594 0 30 13.441406 30 30 0 16.570312-13.429688 30-30 30 16.570312 0 30 13.429688 30 30 0 16.558594-13.441406 30-30 30-15.269531 0-118.226562 0-135.070312 0 11.164062 28.554688.765624.492188 24.539062 75.070312 23.761719 60.300782-46.4375 116.378907-56.199219 70.820313l-.378906-1.769531c-17.710937-82.632813-28.890625-144.121094-168.890625-144.121094v-200h6.621094c68.390625-24.871094 140.609375-40 213.378906-40h56c16.558594 0 30 13.441406 30 30 0 16.570312-13.429688 30-30 30zm0 0" fill="#fec9a5"/><path d="m136 290h-60l20-240h40zm0 0" fill="#96c8ef"/><path d="m96 50-20 240h-66v-240zm0 0" fill="#3a5576"/><path d="m176 200c-5.519531 0-10 4.480469-10 10s4.480469 10 10 10 10-4.480469 10-10-4.480469-10-10-10zm0 0"/><path d="m498.414062 190c8.320313-7.335938 13.585938-18.0625 13.585938-30 0-17.566406-11.292969-32.351562-26.769531-37.761719 4.273437-6.363281 6.769531-14.015625 6.769531-22.238281 0-22.097656-17.898438-40-40-40h-5.382812c3.417968-5.886719 5.382812-12.71875 5.382812-20 0-22.097656-17.898438-40-40-40h-56c-69.246094 0-141.621094 13.457031-215.136719 40-17.191406 0-116.6875 0-130.863281 0-5.523438 0-10 4.476562-10 10v240c0 5.523438 4.476562 10 10 10h126c5.523438 0 10-4.476562 10-10v-29.882812c54.878906 1.242187 90.597656 12.953124 111.929688 36.589843 22.542968 24.972657 29.597656 64.066407 37.5625 101.277344 3.59375 16.769531 14.441406 24.558594 26.578124 24.558594 11.097657 0 23.292969-6.511719 33.800782-18.332031 15.863281-17.851563 28.109375-48.855469 15.042968-82.453126-15.464843-49.683593-18.722656-60.226562-18.9375-60.777343 0-.003907-.136718-.34375-.386718-.980469h120.410156c22.097656 0 40-17.898438 40-40 0-11.9375-5.265625-22.664062-13.585938-30zm-478.414062-130h65.132812l-18.332031 220h-46.800781zm106 220h-39.132812l18.332031-220h20.800781zm346-40c-19.804688 0-148.65625 0-176 0-5.523438 0-10 4.476562-10 10s4.476562 10 10 10h34.105469c6.21875 15.871094-.457031-2.429688 21.816406 68.039062.070313.238282.152344.46875.242187.695313 9.972657 25.304687.730469 48.71875-11.242187 62.191406-7.957031 8.949219-16.355469 12.519531-20.53125 11.414063-3.078125-.808594-4.605469-5.09375-5.34375-8.550782-9.144531-42.71875-16.597656-82.046874-42.269531-110.484374-25.308594-28.039063-65.757813-41.851563-126.777344-43.1875v-180.707032c69.449219-24.273437 135.25-39.410156 210-39.410156h56c11.046875 0 20 8.953125 20 20 0 11.027344-8.972656 20-20 20h-56c-5.523438 0-10 4.476562-10 10s4.476562 10 10 10h96c11.046875 0 20 8.953125 20 20 0 11.027344-8.972656 20-20 20h-56c-5.523438 0-10 4.476562-10 10s4.476562 10 10 10h76c11.046875 0 20 8.953125 20 20 0 11.027344-8.972656 20-20 20h-56c-5.523438 0-10 4.476562-10 10s4.476562 10 10 10h56c11.027344 0 20 8.972656 20 20 0 11.042969-8.953125 20-20 20zm0 0"/><path d="m176 80c-5.523438 0-10 4.476562-10 10v80c0 5.523438 4.476562 10 10 10s10-4.476562 10-10v-80c0-5.523438-4.476562-10-10-10zm0 0"/></svg>